<svg width="2779" height="593" xmlns="http://www.w3.org/2000/svg" xmlns:xlink="http://www.w3.org/1999/xlink" xml:space="preserve" overflow="hidden"><g transform="translate(-369 -1684)"><path d="M397.5 1807.5C397.5 1798.66 404.663 1791.5 413.5 1791.5L771.5 1791.5C780.337 1791.5 787.5 1798.66 787.5 1807.5L787.5 1807.5C787.5 1816.34 780.337 1823.5 771.5 1823.5L413.5 1823.5C404.663 1823.5 397.5 1816.34 397.5 1807.5Z" stroke="#249087" stroke-width="4.58333" stroke-miterlimit="8" fill="#249087" fill-rule="evenodd"/><path d="M397.5 1855.83C397.5 1839.08 411.081 1825.5 427.834 1825.5L757.166 1825.5C773.919 1825.5 787.5 1839.08 787.5 1855.83L787.5 1977.17C787.5 1993.92 773.919 2007.5 757.166 2007.5L427.834 2007.5C411.081 2007.5 397.5 1993.92 397.5 1977.17Z" stroke="#249087" stroke-width="4.58333" stroke-miterlimit="8" fill="#A9E9E4" fill-rule="evenodd"/><text fill="#404040" font-family="Microsoft YaHei,Microsoft YaHei_MSFontService,sans-serif" font-weight="700" font-size="55" transform="matrix(1 0 0 1 496.398 1893)">header</text><text fill="#404040" font-family="Microsoft YaHei,Microsoft YaHei_MSFontService,sans-serif" font-weight="400" font-size="46" transform="matrix(1 0 0 1 504.991 1980)">[0</text><text fill="#404040" font-family="Microsoft YaHei,Microsoft YaHei_MSFontService,sans-serif" font-weight="400" font-size="46" transform="matrix(1 0 0 1 547.387 1980)">-</text><text fill="#404040" font-family="Microsoft YaHei,Microsoft YaHei_MSFontService,sans-serif" font-weight="400" font-size="46" transform="matrix(1 0 0 1 567.439 1980)">1</text><text fill="#404040" font-family="Microsoft YaHei,Microsoft YaHei_MSFontService,sans-serif" font-weight="400" font-size="46" transform="matrix(1 0 0 1 594.366 1980)">]</text><text fill="#404040" font-family="Microsoft YaHei,Microsoft YaHei_MSFontService,sans-serif" font-weight="400" font-size="46" transform="matrix(1 0 0 1 623.585 1980)">2B</text><path d="M789.5 1807.5C789.5 1798.66 796.664 1791.5 805.5 1791.5L1071.5 1791.5C1080.34 1791.5 1087.5 1798.66 1087.5 1807.5L1087.5 1807.5C1087.5 1816.34 1080.34 1823.5 1071.5 1823.5L805.5 1823.5C796.664 1823.5 789.5 1816.34 789.5 1807.5Z" stroke="#249087" stroke-width="4.58333" stroke-miterlimit="8" fill="#249087" fill-rule="evenodd"/><path d="M789.5 1855.83C789.5 1839.08 803.081 1825.5 819.834 1825.5L1057.17 1825.5C1073.92 1825.5 1087.5 1839.08 1087.5 1855.83L1087.5 1977.17C1087.5 1993.92 1073.92 2007.5 1057.17 2007.5L819.834 2007.5C803.081 2007.5 789.5 1993.92 789.5 1977.17Z" stroke="#249087" stroke-width="4.58333" stroke-miterlimit="8" fill="#A9E9E4" fill-rule="evenodd"/><text fill="#404040" font-family="Microsoft YaHei,Microsoft YaHei_MSFontService,sans-serif" font-weight="700" font-size="55" transform="matrix(1 0 0 1 839.66 1893)">cmd_id</text><text fill="#404040" font-family="Microsoft YaHei,Microsoft YaHei_MSFontService,sans-serif" font-weight="400" font-size="46" transform="matrix(1 0 0 1 874.31 1980)">[2</text><text fill="#404040" font-family="Microsoft YaHei,Microsoft YaHei_MSFontService,sans-serif" font-weight="400" font-size="46" transform="matrix(1 0 0 1 916.706 1980)">]</text><text fill="#404040" font-family="Microsoft YaHei,Microsoft YaHei_MSFontService,sans-serif" font-weight="400" font-size="46" transform="matrix(1 0 0 1 945.924 1980)">1B</text><path d="M1087.5 1807.5C1087.5 1798.66 1094.66 1791.5 1103.5 1791.5L1370.5 1791.5C1379.34 1791.5 1386.5 1798.66 1386.5 1807.5L1386.5 1807.5C1386.5 1816.34 1379.34 1823.5 1370.5 1823.5L1103.5 1823.5C1094.66 1823.5 1087.5 1816.34 1087.5 1807.5Z" stroke="#249087" stroke-width="4.58333" stroke-miterlimit="8" fill="#249087" fill-rule="evenodd"/><path d="M1087.5 1855.83C1087.5 1839.08 1101.08 1825.5 1117.83 1825.5L1356.17 1825.5C1372.92 1825.5 1386.5 1839.08 1386.5 1855.83L1386.5 1977.17C1386.5 1993.92 1372.92 2007.5 1356.17 2007.5L1117.83 2007.5C1101.08 2007.5 1087.5 1993.92 1087.5 1977.17Z" stroke="#249087" stroke-width="4.58333" stroke-miterlimit="8" fill="#A9E9E4" fill-rule="evenodd"/><text fill="#404040" font-family="Microsoft YaHei,Microsoft YaHei_MSFontService,sans-serif" font-weight="700" font-size="55" transform="matrix(1 0 0 1 1147.36 1893)">length</text><text fill="#404040" font-family="Microsoft YaHei,Microsoft YaHei_MSFontService,sans-serif" font-weight="400" font-size="46" transform="matrix(1 0 0 1 1173.14 1980)">[3</text><text fill="#404040" font-family="Microsoft YaHei,Microsoft YaHei_MSFontService,sans-serif" font-weight="400" font-size="46" transform="matrix(1 0 0 1 1215.54 1980)">]</text><text fill="#404040" font-family="Microsoft YaHei,Microsoft YaHei_MSFontService,sans-serif" font-weight="400" font-size="46" transform="matrix(1 0 0 1 1244.75 1980)">1B</text><text fill="#404040" font-family="Microsoft YaHei,Microsoft YaHei_MSFontService,sans-serif" font-weight="400" font-size="50" transform="matrix(1 0 0 1 402.444 1757)">Response</text><path d="M395.5 2144.5C395.5 2130.14 407.141 2118.5 421.501 2118.5L759.5 2118.5C773.859 2118.5 785.5 2130.14 785.5 2144.5L785.5 2248.5C785.5 2262.86 773.859 2274.5 759.5 2274.5L421.501 2274.5C407.141 2274.5 395.5 2262.86 395.5 2248.5Z" stroke="#249087" stroke-width="4.58333" stroke-miterlimit="8" fill="none" fill-rule="evenodd"/><text fill="#404040" font-family="Microsoft YaHei,Microsoft YaHei_MSFontService,sans-serif" font-weight="400" font-size="46" transform="matrix(1 0 0 1 480.61 2213)">0x</text><text fill="#404040" font-family="Microsoft YaHei,Microsoft YaHei_MSFontService,sans-serif" font-weight="400" font-size="46" transform="matrix(1 0 0 1 531.026 2213)">05</text><text fill="#404040" font-family="Microsoft YaHei,Microsoft YaHei_MSFontService,sans-serif" font-weight="400" font-size="46" transform="matrix(1 0 0 1 598.631 2213)">0x</text><text fill="#404040" font-family="Microsoft YaHei,Microsoft YaHei_MSFontService,sans-serif" font-weight="400" font-size="46" transform="matrix(1 0 0 1 649.047 2213)">1c</text><path d="M786.5 2144.5C786.5 2130.14 798.141 2118.5 812.501 2118.5L1059.5 2118.5C1073.86 2118.5 1085.5 2130.14 1085.5 2144.5L1085.5 2248.5C1085.5 2262.86 1073.86 2274.5 1059.5 2274.5L812.501 2274.5C798.141 2274.5 786.5 2262.86 786.5 2248.5Z" stroke="#249087" stroke-width="4.58333" stroke-miterlimit="8" fill="none" fill-rule="evenodd"/><text fill="#404040" font-family="Microsoft YaHei,Microsoft YaHei_MSFontService,sans-serif" font-weight="400" font-size="46" transform="matrix(1 0 0 1 883.456 2213)">0x0</text><text fill="#404040" font-family="Microsoft YaHei,Microsoft YaHei_MSFontService,sans-serif" font-weight="400" font-size="46" transform="matrix(1 0 0 1 960.799 2213)">8</text><path d="M1085.5 2144.5C1085.5 2130.14 1097.14 2118.5 1111.5 2118.5L1358.5 2118.5C1372.86 2118.5 1384.5 2130.14 1384.5 2144.5L1384.5 2248.5C1384.5 2262.86 1372.86 2274.5 1358.5 2274.5L1111.5 2274.5C1097.14 2274.5 1085.5 2262.86 1085.5 2248.5Z" stroke="#249087" stroke-width="4.58333" stroke-miterlimit="8" fill="none" fill-rule="evenodd"/><text fill="#404040" font-family="Microsoft YaHei,Microsoft YaHei_MSFontService,sans-serif" font-weight="400" font-size="46" transform="matrix(1 0 0 1 1182.27 2213)">0x</text><text fill="#404040" font-family="Microsoft YaHei,Microsoft YaHei_MSFontService,sans-serif" font-weight="400" font-size="46" transform="matrix(1 0 0 1 1232.69 2213)">02</text><text fill="#404040" font-family="Microsoft YaHei,Microsoft YaHei_MSFontService,sans-serif" font-weight="400" font-size="50" transform="matrix(1 0 0 1 400.12 2083)">Example Values</text><path d="M1388.5 1807.5C1388.5 1798.66 1395.66 1791.5 1404.5 1791.5L1671.5 1791.5C1680.34 1791.5 1687.5 1798.66 1687.5 1807.5L1687.5 1807.5C1687.5 1816.34 1680.34 1823.5 1671.5 1823.5L1404.5 1823.5C1395.66 1823.5 1388.5 1816.34 1388.5 1807.5Z" stroke="#75BD42" stroke-width="4.58333" stroke-miterlimit="8" fill="#75BD42" fill-rule="evenodd"/><path d="M1388.5 1855.83C1388.5 1839.08 1402.08 1825.5 1418.83 1825.5L1657.17 1825.5C1673.92 1825.5 1687.5 1839.08 1687.5 1855.83L1687.5 1977.17C1687.5 1993.92 1673.92 2007.5 1657.17 2007.5L1418.83 2007.5C1402.08 2007.5 1388.5 1993.92 1388.5 1977.17Z" stroke="#75BD42" stroke-width="4.58333" stroke-miterlimit="8" fill="#C8E5B3" fill-rule="evenodd"/><text fill="#404040" font-family="Microsoft YaHei,Microsoft YaHei_MSFontService,sans-serif" font-weight="700" font-size="55" transform="matrix(1 0 0 1 1422.5 1893)">s</text><text fill="#404040" font-family="Microsoft YaHei,Microsoft YaHei_MSFontService,sans-serif" font-weight="700" font-size="55" transform="matrix(1 0 0 1 1449.42 1893)">ervo_id</text><text fill="#404040" font-family="Microsoft YaHei,Microsoft YaHei_MSFontService,sans-serif" font-weight="400" font-size="46" transform="matrix(1 0 0 1 1473.51 1980)">[</text><text fill="#404040" font-family="Microsoft YaHei,Microsoft YaHei_MSFontService,sans-serif" font-weight="400" font-size="46" transform="matrix(1 0 0 1 1488.98 1980)">4</text><text fill="#404040" font-family="Microsoft YaHei,Microsoft YaHei_MSFontService,sans-serif" font-weight="400" font-size="46" transform="matrix(1 0 0 1 1515.9 1980)">]</text><text fill="#404040" font-family="Microsoft YaHei,Microsoft YaHei_MSFontService,sans-serif" font-weight="400" font-size="46" transform="matrix(1 0 0 1 1545.12 1980)">1</text><text fill="#404040" font-family="Microsoft YaHei,Microsoft YaHei_MSFontService,sans-serif" font-weight="400" font-size="46" transform="matrix(1 0 0 1 1572.05 1980)">B</text><path d="M1385.5 2144.5C1385.5 2130.14 1397.14 2118.5 1411.5 2118.5L1658.5 2118.5C1672.86 2118.5 1684.5 2130.14 1684.5 2144.5L1684.5 2248.5C1684.5 2262.86 1672.86 2274.5 1658.5 2274.5L1411.5 2274.5C1397.14 2274.5 1385.5 2262.86 1385.5 2248.5Z" stroke="#75BD42" stroke-width="4.58333" stroke-miterlimit="8" fill="none" fill-rule="evenodd"/><text fill="#404040" font-family="Microsoft YaHei,Microsoft YaHei_MSFontService,sans-serif" font-weight="400" font-size="46" transform="matrix(1 0 0 1 1482.64 2213)">0x0</text><text fill="#404040" font-family="Microsoft YaHei,Microsoft YaHei_MSFontService,sans-serif" font-weight="400" font-size="46" transform="matrix(1 0 0 1 1559.99 2213)">0</text><path d="M1687.5 1807.5C1687.5 1798.66 1694.66 1791.5 1703.5 1791.5L1970.5 1791.5C1979.34 1791.5 1986.5 1798.66 1986.5 1807.5L1986.5 1807.5C1986.5 1816.34 1979.34 1823.5 1970.5 1823.5L1703.5 1823.5C1694.66 1823.5 1687.5 1816.34 1687.5 1807.5Z" stroke="#75BD42" stroke-width="4.58333" stroke-miterlimit="8" fill="#75BD42" fill-rule="evenodd"/><path d="M1687.5 1855.83C1687.5 1839.08 1701.08 1825.5 1717.83 1825.5L1956.17 1825.5C1972.92 1825.5 1986.5 1839.08 1986.5 1855.83L1986.5 1977.17C1986.5 1993.92 1972.92 2007.5 1956.17 2007.5L1717.83 2007.5C1701.08 2007.5 1687.5 1993.92 1687.5 1977.17Z" stroke="#75BD42" stroke-width="4.58333" stroke-miterlimit="8" fill="#C8E5B3" fill-rule="evenodd"/><text fill="#404040" font-family="Microsoft YaHei,Microsoft YaHei_MSFontService,sans-serif" font-weight="700" font-size="55" transform="matrix(1 0 0 1 1758.34 1893)">r</text><text fill="#404040" font-family="Microsoft YaHei,Microsoft YaHei_MSFontService,sans-serif" font-weight="700" font-size="55" transform="matrix(1 0 0 1 1781.56 1893)">esult</text><text fill="#404040" font-family="Microsoft YaHei,Microsoft YaHei_MSFontService,sans-serif" font-weight="400" font-size="46" transform="matrix(1 0 0 1 1773.1 1980)">[</text><text fill="#404040" font-family="Microsoft YaHei,Microsoft YaHei_MSFontService,sans-serif" font-weight="400" font-size="46" transform="matrix(1 0 0 1 1788.57 1980)">5</text><text fill="#404040" font-family="Microsoft YaHei,Microsoft YaHei_MSFontService,sans-serif" font-weight="400" font-size="46" transform="matrix(1 0 0 1 1815.5 1980)">]</text><text fill="#404040" font-family="Microsoft YaHei,Microsoft YaHei_MSFontService,sans-serif" font-weight="400" font-size="46" transform="matrix(1 0 0 1 1844.72 1980)">1</text><text fill="#404040" font-family="Microsoft YaHei,Microsoft YaHei_MSFontService,sans-serif" font-weight="400" font-size="46" transform="matrix(1 0 0 1 1871.64 1980)">B</text><path d="M1685.5 2144.5C1685.5 2130.14 1697.14 2118.5 1711.5 2118.5L1958.5 2118.5C1972.86 2118.5 1984.5 2130.14 1984.5 2144.5L1984.5 2248.5C1984.5 2262.86 1972.86 2274.5 1958.5 2274.5L1711.5 2274.5C1697.14 2274.5 1685.5 2262.86 1685.5 2248.5Z" stroke="#75BD42" stroke-width="4.58333" stroke-miterlimit="8" fill="none" fill-rule="evenodd"/><text fill="#404040" font-family="Microsoft YaHei,Microsoft YaHei_MSFontService,sans-serif" font-weight="400" font-size="46" transform="matrix(1 0 0 1 1782.24 2213)">0x0</text><text fill="#404040" font-family="Microsoft YaHei,Microsoft YaHei_MSFontService,sans-serif" font-weight="400" font-size="46" transform="matrix(1 0 0 1 1859.58 2213)">1</text><path d="M1985.5 1807.5C1985.5 1798.66 1992.66 1791.5 2001.5 1791.5L2268.5 1791.5C2277.34 1791.5 2284.5 1798.66 2284.5 1807.5L2284.5 1807.5C2284.5 1816.34 2277.34 1823.5 2268.5 1823.5L2001.5 1823.5C1992.66 1823.5 1985.5 1816.34 1985.5 1807.5Z" stroke="#8843AB" stroke-width="4.58333" stroke-miterlimit="8" fill="#8843AB" fill-rule="evenodd"/><path d="M1985.5 1855.83C1985.5 1839.08 1999.08 1825.5 2015.83 1825.5L2254.17 1825.5C2270.92 1825.5 2284.5 1839.08 2284.5 1855.83L2284.5 1977.17C2284.5 1993.92 2270.92 2007.5 2254.17 2007.5L2015.83 2007.5C1999.08 2007.5 1985.5 1993.92 1985.5 1977.17Z" stroke="#8843AB" stroke-width="4.58333" stroke-miterlimit="8" fill="#CCCCFF" fill-rule="evenodd"/><text fill="#404040" font-family="Microsoft YaHei,Microsoft YaHei_MSFontService,sans-serif" font-weight="700" font-size="55" transform="matrix(1 0 0 1 1997.81 1893)">checksum</text><text fill="#404040" font-family="Microsoft YaHei,Microsoft YaHei_MSFontService,sans-serif" font-weight="400" font-size="46" transform="matrix(1 0 0 1 2071.15 1980)">[</text><text fill="#404040" font-family="Microsoft YaHei,Microsoft YaHei_MSFontService,sans-serif" font-weight="400" font-size="46" transform="matrix(1 0 0 1 2086.61 1980)">6</text><text fill="#404040" font-family="Microsoft YaHei,Microsoft YaHei_MSFontService,sans-serif" font-weight="400" font-size="46" transform="matrix(1 0 0 1 2113.54 1980)">]</text><text fill="#404040" font-family="Microsoft YaHei,Microsoft YaHei_MSFontService,sans-serif" font-weight="400" font-size="46" transform="matrix(1 0 0 1 2142.76 1980)">1B</text><path d="M1983.5 2144.5C1983.5 2130.14 1995.14 2118.5 2009.5 2118.5L2256.5 2118.5C2270.86 2118.5 2282.5 2130.14 2282.5 2144.5L2282.5 2248.5C2282.5 2262.86 2270.86 2274.5 2256.5 2274.5L2009.5 2274.5C1995.14 2274.5 1983.5 2262.86 1983.5 2248.5Z" stroke="#8843AB" stroke-width="4.58333" stroke-miterlimit="8" fill="none" fill-rule="evenodd"/><text fill="#404040" font-family="Microsoft YaHei,Microsoft YaHei_MSFontService,sans-serif" font-weight="400" font-size="46" transform="matrix(1 0 0 1 2082.29 2213)">0x</text><text fill="#404040" font-family="Microsoft YaHei,Microsoft YaHei_MSFontService,sans-serif" font-weight="400" font-size="46" transform="matrix(1 0 0 1 2132.7 2213)">2</text><text fill="#404040" font-family="Microsoft YaHei,Microsoft YaHei_MSFontService,sans-serif" font-weight="400" font-size="46" transform="matrix(1 0 0 1 2159.63 2213)">c</text></g></svg>