<svg width="2785" height="591" xmlns="http://www.w3.org/2000/svg" xmlns:xlink="http://www.w3.org/1999/xlink" xml:space="preserve" overflow="hidden"><g transform="translate(-365 -992)"><path d="M393.5 1115C393.5 1105.89 400.887 1098.5 410 1098.5L767 1098.5C776.113 1098.5 783.5 1105.89 783.5 1115L783.5 1115C783.5 1124.11 776.113 1131.5 767 1131.5L410 1131.5C400.887 1131.5 393.5 1124.11 393.5 1115Z" stroke="#2E54A1" stroke-width="4.58333" stroke-miterlimit="8" fill="#2E54A1" fill-rule="evenodd"/><path d="M393.5 1162.83C393.5 1146.08 407.081 1132.5 423.834 1132.5L753.166 1132.5C769.919 1132.5 783.5 1146.08 783.5 1162.83L783.5 1284.17C783.5 1300.92 769.919 1314.5 753.166 1314.5L423.834 1314.5C407.081 1314.5 393.5 1300.92 393.5 1284.17Z" stroke="#2E54A1" stroke-width="4.58333" stroke-miterlimit="8" fill="#B6C7EA" fill-rule="evenodd"/><text fill="#404040" font-family="Microsoft YaHei,Microsoft YaHei_MSFontService,sans-serif" font-weight="700" font-size="55" transform="matrix(1 0 0 1 492.138 1200)">header</text><text fill="#404040" font-family="Microsoft YaHei,Microsoft YaHei_MSFontService,sans-serif" font-weight="400" font-size="46" transform="matrix(1 0 0 1 500.731 1287)">[0</text><text fill="#404040" font-family="Microsoft YaHei,Microsoft YaHei_MSFontService,sans-serif" font-weight="400" font-size="46" transform="matrix(1 0 0 1 543.127 1287)">-</text><text fill="#404040" font-family="Microsoft YaHei,Microsoft YaHei_MSFontService,sans-serif" font-weight="400" font-size="46" transform="matrix(1 0 0 1 563.179 1287)">1] 2B</text><path d="M784.5 1115C784.5 1105.89 791.887 1098.5 801 1098.5L1067 1098.5C1076.11 1098.5 1083.5 1105.89 1083.5 1115L1083.5 1115C1083.5 1124.11 1076.11 1131.5 1067 1131.5L801 1131.5C791.887 1131.5 784.5 1124.11 784.5 1115Z" stroke="#2E54A1" stroke-width="4.58333" stroke-miterlimit="8" fill="#2E54A1" fill-rule="evenodd"/><path d="M784.5 1162.83C784.5 1146.08 798.081 1132.5 814.834 1132.5L1053.17 1132.5C1069.92 1132.5 1083.5 1146.08 1083.5 1162.83L1083.5 1284.17C1083.5 1300.92 1069.92 1314.5 1053.17 1314.5L814.834 1314.5C798.081 1314.5 784.5 1300.92 784.5 1284.17Z" stroke="#2E54A1" stroke-width="4.58333" stroke-miterlimit="8" fill="#B6C7EA" fill-rule="evenodd"/><text fill="#404040" font-family="Microsoft YaHei,Microsoft YaHei_MSFontService,sans-serif" font-weight="700" font-size="55" transform="matrix(1 0 0 1 835.4 1200)">cmd_id</text><text fill="#404040" font-family="Microsoft YaHei,Microsoft YaHei_MSFontService,sans-serif" font-weight="400" font-size="46" transform="matrix(1 0 0 1 870.05 1287)">[2] 1B</text><path d="M1083.5 1115C1083.5 1105.89 1090.89 1098.5 1100 1098.5L1366 1098.5C1375.11 1098.5 1382.5 1105.89 1382.5 1115L1382.5 1115C1382.5 1124.11 1375.11 1131.5 1366 1131.5L1100 1131.5C1090.89 1131.5 1083.5 1124.11 1083.5 1115Z" stroke="#2E54A1" stroke-width="4.58333" stroke-miterlimit="8" fill="#2E54A1" fill-rule="evenodd"/><path d="M1083.5 1162.83C1083.5 1146.08 1097.08 1132.5 1113.83 1132.5L1352.17 1132.5C1368.92 1132.5 1382.5 1146.08 1382.5 1162.83L1382.5 1284.17C1382.5 1300.92 1368.92 1314.5 1352.17 1314.5L1113.83 1314.5C1097.08 1314.5 1083.5 1300.92 1083.5 1284.17Z" stroke="#2E54A1" stroke-width="4.58333" stroke-miterlimit="8" fill="#B6C7EA" fill-rule="evenodd"/><text fill="#404040" font-family="Microsoft YaHei,Microsoft YaHei_MSFontService,sans-serif" font-weight="700" font-size="55" transform="matrix(1 0 0 1 1143.1 1200)">length</text><text fill="#404040" font-family="Microsoft YaHei,Microsoft YaHei_MSFontService,sans-serif" font-weight="400" font-size="46" transform="matrix(1 0 0 1 1168.88 1287)">[3] 1B</text><text fill="#404040" font-family="Microsoft YaHei,Microsoft YaHei_MSFontService,sans-serif" font-weight="400" font-size="50" transform="matrix(1 0 0 1 398.184 1065)">Command</text><path d="M391.5 1450.5C391.5 1436.14 403.141 1424.5 417.5 1424.5L755.499 1424.5C769.859 1424.5 781.5 1436.14 781.5 1450.5L781.5 1554.5C781.5 1568.86 769.859 1580.5 755.499 1580.5L417.5 1580.5C403.141 1580.5 391.5 1568.86 391.5 1554.5Z" stroke="#2E54A1" stroke-width="4.58333" stroke-miterlimit="8" fill="none" fill-rule="evenodd"/><text fill="#404040" font-family="Microsoft YaHei,Microsoft YaHei_MSFontService,sans-serif" font-weight="400" font-size="46" transform="matrix(1 0 0 1 476.738 1519)">0x12 0x4c</text><path d="M782.5 1450.5C782.5 1436.14 794.141 1424.5 808.501 1424.5L1055.5 1424.5C1069.86 1424.5 1081.5 1436.14 1081.5 1450.5L1081.5 1554.5C1081.5 1568.86 1069.86 1580.5 1055.5 1580.5L808.501 1580.5C794.141 1580.5 782.5 1568.86 782.5 1554.5Z" stroke="#2E54A1" stroke-width="4.58333" stroke-miterlimit="8" fill="none" fill-rule="evenodd"/><text fill="#404040" font-family="Microsoft YaHei,Microsoft YaHei_MSFontService,sans-serif" font-weight="400" font-size="46" transform="matrix(1 0 0 1 879.584 1519)">0x</text><text fill="#404040" font-family="Microsoft YaHei,Microsoft YaHei_MSFontService,sans-serif" font-weight="400" font-size="46" transform="matrix(1 0 0 1 930.001 1519)">18</text><path d="M1081.5 1450.5C1081.5 1436.14 1093.14 1424.5 1107.5 1424.5L1354.5 1424.5C1368.86 1424.5 1380.5 1436.14 1380.5 1450.5L1380.5 1554.5C1380.5 1568.86 1368.86 1580.5 1354.5 1580.5L1107.5 1580.5C1093.14 1580.5 1081.5 1568.86 1081.5 1554.5Z" stroke="#2E54A1" stroke-width="4.58333" stroke-miterlimit="8" fill="none" fill-rule="evenodd"/><text fill="#404040" font-family="Microsoft YaHei,Microsoft YaHei_MSFontService,sans-serif" font-weight="400" font-size="46" transform="matrix(1 0 0 1 1178.4 1519)">0x0</text><text fill="#404040" font-family="Microsoft YaHei,Microsoft YaHei_MSFontService,sans-serif" font-weight="400" font-size="46" transform="matrix(1 0 0 1 1255.75 1519)">4</text><text fill="#404040" font-family="Microsoft YaHei,Microsoft YaHei_MSFontService,sans-serif" font-weight="400" font-size="50" transform="matrix(1 0 0 1 396.249 1389)">Example Values</text><path d="M1681.5 1115C1681.5 1105.89 1688.89 1098.5 1698 1098.5L1964 1098.5C1973.11 1098.5 1980.5 1105.89 1980.5 1115L1980.5 1115C1980.5 1124.11 1973.11 1131.5 1964 1131.5L1698 1131.5C1688.89 1131.5 1681.5 1124.11 1681.5 1115Z" stroke="#75BD42" stroke-width="4.58333" stroke-miterlimit="8" fill="#75BD42" fill-rule="evenodd"/><path d="M1681.5 1162.83C1681.5 1146.08 1695.08 1132.5 1711.83 1132.5L1950.17 1132.5C1966.92 1132.5 1980.5 1146.08 1980.5 1162.83L1980.5 1284.17C1980.5 1300.92 1966.92 1314.5 1950.17 1314.5L1711.83 1314.5C1695.08 1314.5 1681.5 1300.92 1681.5 1284.17Z" stroke="#75BD42" stroke-width="4.58333" stroke-miterlimit="8" fill="#C8E5B3" fill-rule="evenodd"/><text fill="#404040" font-family="Microsoft YaHei,Microsoft YaHei_MSFontService,sans-serif" font-weight="700" font-size="55" transform="matrix(1 0 0 1 1750.76 1200)">mode</text><text fill="#404040" font-family="Microsoft YaHei,Microsoft YaHei_MSFontService,sans-serif" font-weight="400" font-size="46" transform="matrix(1 0 0 1 1766.51 1287)">[</text><text fill="#404040" font-family="Microsoft YaHei,Microsoft YaHei_MSFontService,sans-serif" font-weight="400" font-size="46" transform="matrix(1 0 0 1 1781.98 1287)">5</text><text fill="#404040" font-family="Microsoft YaHei,Microsoft YaHei_MSFontService,sans-serif" font-weight="400" font-size="46" transform="matrix(1 0 0 1 1808.9 1287)">] </text><text fill="#404040" font-family="Microsoft YaHei,Microsoft YaHei_MSFontService,sans-serif" font-weight="400" font-size="46" transform="matrix(1 0 0 1 1838.12 1287)">1B</text><path d="M1679.5 1450.5C1679.5 1436.14 1691.14 1424.5 1705.5 1424.5L1952.5 1424.5C1966.86 1424.5 1978.5 1436.14 1978.5 1450.5L1978.5 1554.5C1978.5 1568.86 1966.86 1580.5 1952.5 1580.5L1705.5 1580.5C1691.14 1580.5 1679.5 1568.86 1679.5 1554.5Z" stroke="#75BD42" stroke-width="4.58333" stroke-miterlimit="8" fill="none" fill-rule="evenodd"/><text fill="#404040" font-family="Microsoft YaHei,Microsoft YaHei_MSFontService,sans-serif" font-weight="400" font-size="46" transform="matrix(1 0 0 1 1776.04 1518)">0x</text><text fill="#404040" font-family="Microsoft YaHei,Microsoft YaHei_MSFontService,sans-serif" font-weight="400" font-size="46" transform="matrix(1 0 0 1 1826.46 1518)">11</text><path d="M1981.5 1115C1981.5 1105.89 1988.89 1098.5 1998 1098.5L2355 1098.5C2364.11 1098.5 2371.5 1105.89 2371.5 1115L2371.5 1115C2371.5 1124.11 2364.11 1131.5 2355 1131.5L1998 1131.5C1988.89 1131.5 1981.5 1124.11 1981.5 1115Z" stroke="#75BD42" stroke-width="4.58333" stroke-miterlimit="8" fill="#75BD42" fill-rule="evenodd"/><path d="M1981.5 1162.83C1981.5 1146.08 1995.08 1132.5 2011.83 1132.5L2341.17 1132.5C2357.92 1132.5 2371.5 1146.08 2371.5 1162.83L2371.5 1284.17C2371.5 1300.92 2357.92 1314.5 2341.17 1314.5L2011.83 1314.5C1995.08 1314.5 1981.5 1300.92 1981.5 1284.17Z" stroke="#75BD42" stroke-width="4.58333" stroke-miterlimit="8" fill="#C8E5B3" fill-rule="evenodd"/><text fill="#404040" font-family="Microsoft YaHei,Microsoft YaHei_MSFontService,sans-serif" font-weight="700" font-size="55" transform="matrix(1 0 0 1 2088.43 1200)">power</text><text fill="#404040" font-family="Microsoft YaHei,Microsoft YaHei_MSFontService,sans-serif" font-weight="400" font-size="46" transform="matrix(1 0 0 1 2088.87 1287)">[</text><text fill="#404040" font-family="Microsoft YaHei,Microsoft YaHei_MSFontService,sans-serif" font-weight="400" font-size="46" transform="matrix(1 0 0 1 2104.34 1287)">6</text><text fill="#404040" font-family="Microsoft YaHei,Microsoft YaHei_MSFontService,sans-serif" font-weight="400" font-size="46" transform="matrix(1 0 0 1 2131.27 1287)">-</text><text fill="#404040" font-family="Microsoft YaHei,Microsoft YaHei_MSFontService,sans-serif" font-weight="400" font-size="46" transform="matrix(1 0 0 1 2151.32 1287)">7</text><text fill="#404040" font-family="Microsoft YaHei,Microsoft YaHei_MSFontService,sans-serif" font-weight="400" font-size="46" transform="matrix(1 0 0 1 2178.24 1287)">] </text><text fill="#404040" font-family="Microsoft YaHei,Microsoft YaHei_MSFontService,sans-serif" font-weight="400" font-size="46" transform="matrix(1 0 0 1 2207.46 1287)">2B</text><path d="M1979.5 1450.5C1979.5 1436.14 1991.14 1424.5 2005.5 1424.5L2343.5 1424.5C2357.86 1424.5 2369.5 1436.14 2369.5 1450.5L2369.5 1554.5C2369.5 1568.86 2357.86 1580.5 2343.5 1580.5L2005.5 1580.5C1991.14 1580.5 1979.5 1568.86 1979.5 1554.5Z" stroke="#75BD42" stroke-width="4.58333" stroke-miterlimit="8" fill="none" fill-rule="evenodd"/><text fill="#404040" font-family="Microsoft YaHei,Microsoft YaHei_MSFontService,sans-serif" font-weight="400" font-size="46" transform="matrix(1 0 0 1 2062.87 1518)">0x70 0x17</text><path d="M2373.5 1115C2373.5 1105.89 2380.89 1098.5 2390 1098.5L2656 1098.5C2665.11 1098.5 2672.5 1105.89 2672.5 1115L2672.5 1115C2672.5 1124.11 2665.11 1131.5 2656 1131.5L2390 1131.5C2380.89 1131.5 2373.5 1124.11 2373.5 1115Z" stroke="#8843AB" stroke-width="4.58333" stroke-miterlimit="8" fill="#8843AB" fill-rule="evenodd"/><path d="M2373.5 1162.83C2373.5 1146.08 2387.08 1132.5 2403.83 1132.5L2642.17 1132.5C2658.92 1132.5 2672.5 1146.08 2672.5 1162.83L2672.5 1284.17C2672.5 1300.92 2658.92 1314.5 2642.17 1314.5L2403.83 1314.5C2387.08 1314.5 2373.5 1300.92 2373.5 1284.17Z" stroke="#8843AB" stroke-width="4.58333" stroke-miterlimit="8" fill="#CCCCFF" fill-rule="evenodd"/><text fill="#404040" font-family="Microsoft YaHei,Microsoft YaHei_MSFontService,sans-serif" font-weight="700" font-size="55" transform="matrix(1 0 0 1 2385.64 1200)">checksum</text><text fill="#404040" font-family="Microsoft YaHei,Microsoft YaHei_MSFontService,sans-serif" font-weight="400" font-size="46" transform="matrix(1 0 0 1 2458.97 1287)">[</text><text fill="#404040" font-family="Microsoft YaHei,Microsoft YaHei_MSFontService,sans-serif" font-weight="400" font-size="46" transform="matrix(1 0 0 1 2474.44 1287)">8</text><text fill="#404040" font-family="Microsoft YaHei,Microsoft YaHei_MSFontService,sans-serif" font-weight="400" font-size="46" transform="matrix(1 0 0 1 2501.37 1287)">] </text><text fill="#404040" font-family="Microsoft YaHei,Microsoft YaHei_MSFontService,sans-serif" font-weight="400" font-size="46" transform="matrix(1 0 0 1 2530.59 1287)">1B</text><path d="M2371.5 1450.5C2371.5 1436.14 2383.14 1424.5 2397.5 1424.5L2644.5 1424.5C2658.86 1424.5 2670.5 1436.14 2670.5 1450.5L2670.5 1554.5C2670.5 1568.86 2658.86 1580.5 2644.5 1580.5L2397.5 1580.5C2383.14 1580.5 2371.5 1568.86 2371.5 1554.5Z" stroke="#8843AB" stroke-width="4.58333" stroke-miterlimit="8" fill="none" fill-rule="evenodd"/><text fill="#404040" font-family="Microsoft YaHei,Microsoft YaHei_MSFontService,sans-serif" font-weight="400" font-size="46" transform="matrix(1 0 0 1 2468.11 1518)">0x</text><text fill="#404040" font-family="Microsoft YaHei,Microsoft YaHei_MSFontService,sans-serif" font-weight="400" font-size="46" transform="matrix(1 0 0 1 2518.53 1518)">12</text><path d="M1382.5 1115C1382.5 1105.89 1389.89 1098.5 1399 1098.5L1665 1098.5C1674.11 1098.5 1681.5 1105.89 1681.5 1115L1681.5 1115C1681.5 1124.11 1674.11 1131.5 1665 1131.5L1399 1131.5C1389.89 1131.5 1382.5 1124.11 1382.5 1115Z" stroke="#75BD42" stroke-width="4.58333" stroke-miterlimit="8" fill="#75BD42" fill-rule="evenodd"/><path d="M1382.5 1162.83C1382.5 1146.08 1396.08 1132.5 1412.83 1132.5L1651.17 1132.5C1667.92 1132.5 1681.5 1146.08 1681.5 1162.83L1681.5 1284.17C1681.5 1300.92 1667.92 1314.5 1651.17 1314.5L1412.83 1314.5C1396.08 1314.5 1382.5 1300.92 1382.5 1284.17Z" stroke="#75BD42" stroke-width="4.58333" stroke-miterlimit="8" fill="#C8E5B3" fill-rule="evenodd"/><text fill="#404040" font-family="Microsoft YaHei,Microsoft YaHei_MSFontService,sans-serif" font-weight="700" font-size="55" transform="matrix(1 0 0 1 1417.07 1200)">servo_id</text><text fill="#404040" font-family="Microsoft YaHei,Microsoft YaHei_MSFontService,sans-serif" font-weight="400" font-size="46" transform="matrix(1 0 0 1 1468.09 1287)">[4] 1B</text><path d="M1380.5 1450.5C1380.5 1436.14 1392.14 1424.5 1406.5 1424.5L1653.5 1424.5C1667.86 1424.5 1679.5 1436.14 1679.5 1450.5L1679.5 1554.5C1679.5 1568.86 1667.86 1580.5 1653.5 1580.5L1406.5 1580.5C1392.14 1580.5 1380.5 1568.86 1380.5 1554.5Z" stroke="#75BD42" stroke-width="4.58333" stroke-miterlimit="8" fill="none" fill-rule="evenodd"/><text fill="#404040" font-family="Microsoft YaHei,Microsoft YaHei_MSFontService,sans-serif" font-weight="400" font-size="46" transform="matrix(1 0 0 1 1477.61 1519)">0x00</text></g></svg>