<svg width="4405" height="593" xmlns="http://www.w3.org/2000/svg" xmlns:xlink="http://www.w3.org/1999/xlink" xml:space="preserve" overflow="hidden"><g transform="translate(1 -1702)"><path d="M27.5 1825C27.5 1815.89 34.8873 1808.5 43.9999 1808.5L401 1808.5C410.113 1808.5 417.5 1815.89 417.5 1825L417.5 1825C417.5 1834.11 410.113 1841.5 401 1841.5L43.9999 1841.5C34.8873 1841.5 27.5 1834.11 27.5 1825Z" stroke="#249087" stroke-width="4.58333" stroke-miterlimit="8" fill="#249087" fill-rule="evenodd"/><path d="M27.5 1872.83C27.5 1856.08 41.0809 1842.5 57.8338 1842.5L387.166 1842.5C403.919 1842.5 417.5 1856.08 417.5 1872.83L417.5 1994.17C417.5 2010.92 403.919 2024.5 387.166 2024.5L57.8338 2024.5C41.0809 2024.5 27.5 2010.92 27.5 1994.17Z" stroke="#249087" stroke-width="4.58333" stroke-miterlimit="8" fill="#A9E9E4" fill-rule="evenodd"/><text fill="#404040" font-family="Microsoft YaHei,Microsoft YaHei_MSFontService,sans-serif" font-weight="700" font-size="55" transform="matrix(1 0 0 1 126.167 1910)">header</text><text fill="#404040" font-family="Microsoft YaHei,Microsoft YaHei_MSFontService,sans-serif" font-weight="400" font-size="46" transform="matrix(1 0 0 1 134.76 1997)">[0</text><text fill="#404040" font-family="Microsoft YaHei,Microsoft YaHei_MSFontService,sans-serif" font-weight="400" font-size="46" transform="matrix(1 0 0 1 177.156 1997)">-</text><text fill="#404040" font-family="Microsoft YaHei,Microsoft YaHei_MSFontService,sans-serif" font-weight="400" font-size="46" transform="matrix(1 0 0 1 197.208 1997)">1] 2B</text><path d="M418.5 1825C418.5 1815.89 425.887 1808.5 435 1808.5L701 1808.5C710.113 1808.5 717.5 1815.89 717.5 1825L717.5 1825C717.5 1834.11 710.113 1841.5 701 1841.5L435 1841.5C425.887 1841.5 418.5 1834.11 418.5 1825Z" stroke="#249087" stroke-width="4.58333" stroke-miterlimit="8" fill="#249087" fill-rule="evenodd"/><path d="M418.5 1872.83C418.5 1856.08 432.081 1842.5 448.834 1842.5L687.166 1842.5C703.919 1842.5 717.5 1856.08 717.5 1872.83L717.5 1994.17C717.5 2010.92 703.919 2024.5 687.166 2024.5L448.834 2024.5C432.081 2024.5 418.5 2010.92 418.5 1994.17Z" stroke="#249087" stroke-width="4.58333" stroke-miterlimit="8" fill="#A9E9E4" fill-rule="evenodd"/><text fill="#404040" font-family="Microsoft YaHei,Microsoft YaHei_MSFontService,sans-serif" font-weight="700" font-size="55" transform="matrix(1 0 0 1 469.429 1910)">cmd_id</text><text fill="#404040" font-family="Microsoft YaHei,Microsoft YaHei_MSFontService,sans-serif" font-weight="400" font-size="46" transform="matrix(1 0 0 1 504.079 1997)">[2] 1B</text><path d="M717.5 1825C717.5 1815.89 724.887 1808.5 734 1808.5L1000 1808.5C1009.11 1808.5 1016.5 1815.89 1016.5 1825L1016.5 1825C1016.5 1834.11 1009.11 1841.5 1000 1841.5L734 1841.5C724.887 1841.5 717.5 1834.11 717.5 1825Z" stroke="#249087" stroke-width="4.58333" stroke-miterlimit="8" fill="#249087" fill-rule="evenodd"/><path d="M717.5 1872.83C717.5 1856.08 731.081 1842.5 747.834 1842.5L986.166 1842.5C1002.92 1842.5 1016.5 1856.08 1016.5 1872.83L1016.5 1994.17C1016.5 2010.92 1002.92 2024.5 986.166 2024.5L747.834 2024.5C731.081 2024.5 717.5 2010.92 717.5 1994.17Z" stroke="#249087" stroke-width="4.58333" stroke-miterlimit="8" fill="#A9E9E4" fill-rule="evenodd"/><text fill="#404040" font-family="Microsoft YaHei,Microsoft YaHei_MSFontService,sans-serif" font-weight="700" font-size="55" transform="matrix(1 0 0 1 777.128 1910)">length</text><text fill="#404040" font-family="Microsoft YaHei,Microsoft YaHei_MSFontService,sans-serif" font-weight="400" font-size="46" transform="matrix(1 0 0 1 802.909 1997)">[3] 1B</text><text fill="#404040" font-family="Microsoft YaHei,Microsoft YaHei_MSFontService,sans-serif" font-weight="400" font-size="50" transform="matrix(1 0 0 1 32.2136 1775)">Response</text><path d="M25.4999 2162.5C25.4999 2148.14 37.1408 2136.5 51.5005 2136.5L388.5 2136.5C402.859 2136.5 414.5 2148.14 414.5 2162.5L414.5 2266.5C414.5 2280.86 402.859 2292.5 388.5 2292.5L51.5005 2292.5C37.1408 2292.5 25.4999 2280.86 25.4999 2266.5Z" stroke="#249087" stroke-width="4.58333" stroke-miterlimit="8" fill="none" fill-rule="evenodd"/><text fill="#404040" font-family="Microsoft YaHei,Microsoft YaHei_MSFontService,sans-serif" font-weight="400" font-size="46" transform="matrix(1 0 0 1 110.379 2230)">0x05 0x1c</text><path d="M416.5 2162.5C416.5 2148.14 428.141 2136.5 442.501 2136.5L689.499 2136.5C703.859 2136.5 715.5 2148.14 715.5 2162.5L715.5 2266.5C715.5 2280.86 703.859 2292.5 689.499 2292.5L442.501 2292.5C428.141 2292.5 416.5 2280.86 416.5 2266.5Z" stroke="#249087" stroke-width="4.58333" stroke-miterlimit="8" fill="none" fill-rule="evenodd"/><text fill="#404040" font-family="Microsoft YaHei,Microsoft YaHei_MSFontService,sans-serif" font-weight="400" font-size="46" transform="matrix(1 0 0 1 513.225 2230)">0x16</text><path d="M715.5 2162.5C715.5 2148.14 727.141 2136.5 741.5 2136.5L988.499 2136.5C1002.86 2136.5 1014.5 2148.14 1014.5 2162.5L1014.5 2266.5C1014.5 2280.86 1002.86 2292.5 988.499 2292.5L741.5 2292.5C727.141 2292.5 715.5 2280.86 715.5 2266.5Z" stroke="#249087" stroke-width="4.58333" stroke-miterlimit="8" fill="none" fill-rule="evenodd"/><text fill="#404040" font-family="Microsoft YaHei,Microsoft YaHei_MSFontService,sans-serif" font-weight="400" font-size="46" transform="matrix(1 0 0 1 812.044 2230)">0x10</text><text fill="#404040" font-family="Microsoft YaHei,Microsoft YaHei_MSFontService,sans-serif" font-weight="400" font-size="50" transform="matrix(1 0 0 1 29.8895 2100)">Example Values</text><path d="M1017.5 1825C1017.5 1815.89 1024.89 1808.5 1034 1808.5L1300 1808.5C1309.11 1808.5 1316.5 1815.89 1316.5 1825L1316.5 1825C1316.5 1834.11 1309.11 1841.5 1300 1841.5L1034 1841.5C1024.89 1841.5 1017.5 1834.11 1017.5 1825Z" stroke="#75BD42" stroke-width="4.58333" stroke-miterlimit="8" fill="#75BD42" fill-rule="evenodd"/><path d="M1017.5 1872.83C1017.5 1856.08 1031.08 1842.5 1047.83 1842.5L1286.17 1842.5C1302.92 1842.5 1316.5 1856.08 1316.5 1872.83L1316.5 1994.17C1316.5 2010.92 1302.92 2024.5 1286.17 2024.5L1047.83 2024.5C1031.08 2024.5 1017.5 2010.92 1017.5 1994.17Z" stroke="#75BD42" stroke-width="4.58333" stroke-miterlimit="8" fill="#C8E5B3" fill-rule="evenodd"/><text fill="#404040" font-family="Microsoft YaHei,Microsoft YaHei_MSFontService,sans-serif" font-weight="700" font-size="55" transform="matrix(1 0 0 1 1052.27 1910)">servo_id</text><text fill="#404040" font-family="Microsoft YaHei,Microsoft YaHei_MSFontService,sans-serif" font-weight="400" font-size="46" transform="matrix(1 0 0 1 1103.28 1997)">[4] 1B</text><path d="M1015.5 2162.5C1015.5 2148.14 1027.14 2136.5 1041.5 2136.5L1288.5 2136.5C1302.86 2136.5 1314.5 2148.14 1314.5 2162.5L1314.5 2266.5C1314.5 2280.86 1302.86 2292.5 1288.5 2292.5L1041.5 2292.5C1027.14 2292.5 1015.5 2280.86 1015.5 2266.5Z" stroke="#75BD42" stroke-width="4.58333" stroke-miterlimit="8" fill="none" fill-rule="evenodd"/><text fill="#404040" font-family="Microsoft YaHei,Microsoft YaHei_MSFontService,sans-serif" font-weight="400" font-size="46" transform="matrix(1 0 0 1 1112.41 2230)">0x00</text><path d="M1317.5 1826C1317.5 1816.89 1324.89 1809.5 1334 1809.5L1690 1809.5C1699.11 1809.5 1706.5 1816.89 1706.5 1826L1706.5 1826C1706.5 1835.11 1699.11 1842.5 1690 1842.5L1334 1842.5C1324.89 1842.5 1317.5 1835.11 1317.5 1826Z" stroke="#75BD42" stroke-width="4.58333" stroke-miterlimit="8" fill="#75BD42" fill-rule="evenodd"/><path d="M1317.5 1873.83C1317.5 1857.08 1331.08 1843.5 1347.83 1843.5L1676.17 1843.5C1692.92 1843.5 1706.5 1857.08 1706.5 1873.83L1706.5 1995.17C1706.5 2011.92 1692.92 2025.5 1676.17 2025.5L1347.83 2025.5C1331.08 2025.5 1317.5 2011.92 1317.5 1995.17Z" stroke="#75BD42" stroke-width="4.58333" stroke-miterlimit="8" fill="#C8E5B3" fill-rule="evenodd"/><text fill="#404040" font-family="Microsoft YaHei,Microsoft YaHei_MSFontService,sans-serif" font-weight="700" font-size="55" transform="matrix(1 0 0 1 1408.44 1911)">voltage</text><text fill="#404040" font-family="Microsoft YaHei,Microsoft YaHei_MSFontService,sans-serif" font-weight="400" font-size="46" transform="matrix(1 0 0 1 1424.45 1998)">[5</text><text fill="#404040" font-family="Microsoft YaHei,Microsoft YaHei_MSFontService,sans-serif" font-weight="400" font-size="46" transform="matrix(1 0 0 1 1466.85 1998)">-</text><text fill="#404040" font-family="Microsoft YaHei,Microsoft YaHei_MSFontService,sans-serif" font-weight="400" font-size="46" transform="matrix(1 0 0 1 1486.9 1998)">6] 2B</text><path d="M1706.5 1826C1706.5 1816.89 1713.89 1809.5 1723 1809.5L2080 1809.5C2089.11 1809.5 2096.5 1816.89 2096.5 1826L2096.5 1826C2096.5 1835.11 2089.11 1842.5 2080 1842.5L1723 1842.5C1713.89 1842.5 1706.5 1835.11 1706.5 1826Z" stroke="#75BD42" stroke-width="4.58333" stroke-miterlimit="8" fill="#75BD42" fill-rule="evenodd"/><path d="M1706.5 1873.83C1706.5 1857.08 1720.08 1843.5 1736.83 1843.5L2066.17 1843.5C2082.92 1843.5 2096.5 1857.08 2096.5 1873.83L2096.5 1995.17C2096.5 2011.92 2082.92 2025.5 2066.17 2025.5L1736.83 2025.5C1720.08 2025.5 1706.5 2011.92 1706.5 1995.17Z" stroke="#75BD42" stroke-width="4.58333" stroke-miterlimit="8" fill="#C8E5B3" fill-rule="evenodd"/><text fill="#404040" font-family="Microsoft YaHei,Microsoft YaHei_MSFontService,sans-serif" font-weight="700" font-size="55" transform="matrix(1 0 0 1 1800.62 1911)">current</text><text fill="#404040" font-family="Microsoft YaHei,Microsoft YaHei_MSFontService,sans-serif" font-weight="400" font-size="46" transform="matrix(1 0 0 1 1814.23 1998)">[7</text><text fill="#404040" font-family="Microsoft YaHei,Microsoft YaHei_MSFontService,sans-serif" font-weight="400" font-size="46" transform="matrix(1 0 0 1 1856.63 1998)">-</text><text fill="#404040" font-family="Microsoft YaHei,Microsoft YaHei_MSFontService,sans-serif" font-weight="400" font-size="46" transform="matrix(1 0 0 1 1876.68 1998)">8] 2B</text><path d="M2096.5 1826C2096.5 1816.89 2103.89 1809.5 2113 1809.5L2470 1809.5C2479.11 1809.5 2486.5 1816.89 2486.5 1826L2486.5 1826C2486.5 1835.11 2479.11 1842.5 2470 1842.5L2113 1842.5C2103.89 1842.5 2096.5 1835.11 2096.5 1826Z" stroke="#75BD42" stroke-width="4.58333" stroke-miterlimit="8" fill="#75BD42" fill-rule="evenodd"/><path d="M2096.5 1873.83C2096.5 1857.08 2110.08 1843.5 2126.83 1843.5L2456.17 1843.5C2472.92 1843.5 2486.5 1857.08 2486.5 1873.83L2486.5 1995.17C2486.5 2011.92 2472.92 2025.5 2456.17 2025.5L2126.83 2025.5C2110.08 2025.5 2096.5 2011.92 2096.5 1995.17Z" stroke="#75BD42" stroke-width="4.58333" stroke-miterlimit="8" fill="#C8E5B3" fill-rule="evenodd"/><text fill="#404040" font-family="Microsoft YaHei,Microsoft YaHei_MSFontService,sans-serif" font-weight="700" font-size="55" transform="matrix(1 0 0 1 2203.55 1911)">power</text><text fill="#404040" font-family="Microsoft YaHei,Microsoft YaHei_MSFontService,sans-serif" font-weight="400" font-size="46" transform="matrix(1 0 0 1 2190.53 1998)">[9</text><text fill="#404040" font-family="Microsoft YaHei,Microsoft YaHei_MSFontService,sans-serif" font-weight="400" font-size="46" transform="matrix(1 0 0 1 2232.93 1998)">-</text><text fill="#404040" font-family="Microsoft YaHei,Microsoft YaHei_MSFontService,sans-serif" font-weight="400" font-size="46" transform="matrix(1 0 0 1 2252.98 1998)">10] 2B</text><path d="M1315.5 2162.5C1315.5 2148.14 1327.14 2136.5 1341.5 2136.5L1678.5 2136.5C1692.86 2136.5 1704.5 2148.14 1704.5 2162.5L1704.5 2266.5C1704.5 2280.86 1692.86 2292.5 1678.5 2292.5L1341.5 2292.5C1327.14 2292.5 1315.5 2280.86 1315.5 2266.5Z" stroke="#75BD42" stroke-width="4.58333" stroke-miterlimit="8" fill="none" fill-rule="evenodd"/><text fill="#404040" font-family="Microsoft YaHei,Microsoft YaHei_MSFontService,sans-serif" font-weight="400" font-size="46" transform="matrix(1 0 0 1 1399.04 2230)">0x83 0x1e</text><path d="M1704.5 2162.5C1704.5 2148.14 1716.14 2136.5 1730.5 2136.5L2068.5 2136.5C2082.86 2136.5 2094.5 2148.14 2094.5 2162.5L2094.5 2266.5C2094.5 2280.86 2082.86 2292.5 2068.5 2292.5L1730.5 2292.5C1716.14 2292.5 1704.5 2280.86 1704.5 2266.5Z" stroke="#75BD42" stroke-width="4.58333" stroke-miterlimit="8" fill="none" fill-rule="evenodd"/><text fill="#404040" font-family="Microsoft YaHei,Microsoft YaHei_MSFontService,sans-serif" font-weight="400" font-size="46" transform="matrix(1 0 0 1 1788.8 2230)">0x1e 0x00</text><path d="M2094.5 2162.5C2094.5 2148.14 2106.14 2136.5 2120.5 2136.5L2458.5 2136.5C2472.86 2136.5 2484.5 2148.14 2484.5 2162.5L2484.5 2266.5C2484.5 2280.86 2472.86 2292.5 2458.5 2292.5L2120.5 2292.5C2106.14 2292.5 2094.5 2280.86 2094.5 2266.5Z" stroke="#75BD42" stroke-width="4.58333" stroke-miterlimit="8" fill="none" fill-rule="evenodd"/><text fill="#404040" font-family="Microsoft YaHei,Microsoft YaHei_MSFontService,sans-serif" font-weight="400" font-size="46" transform="matrix(1 0 0 1 2179.43 2230)">0xea 0x00</text><path d="M2486.5 1825C2486.5 1815.89 2493.89 1808.5 2503 1808.5L2860 1808.5C2869.11 1808.5 2876.5 1815.89 2876.5 1825L2876.5 1825C2876.5 1834.11 2869.11 1841.5 2860 1841.5L2503 1841.5C2493.89 1841.5 2486.5 1834.11 2486.5 1825Z" stroke="#75BD42" stroke-width="4.58333" stroke-miterlimit="8" fill="#75BD42" fill-rule="evenodd"/><path d="M2486.5 1872.83C2486.5 1856.08 2500.08 1842.5 2516.83 1842.5L2846.17 1842.5C2862.92 1842.5 2876.5 1856.08 2876.5 1872.83L2876.5 1994.17C2876.5 2010.92 2862.92 2024.5 2846.17 2024.5L2516.83 2024.5C2500.08 2024.5 2486.5 2010.92 2486.5 1994.17Z" stroke="#75BD42" stroke-width="4.58333" stroke-miterlimit="8" fill="#C8E5B3" fill-rule="evenodd"/><text fill="#404040" font-family="Microsoft YaHei,Microsoft YaHei_MSFontService,sans-serif" font-weight="700" font-size="55" transform="matrix(1 0 0 1 2507.8 1910)">temperature</text><text fill="#404040" font-family="Microsoft YaHei,Microsoft YaHei_MSFontService,sans-serif" font-weight="400" font-size="46" transform="matrix(1 0 0 1 2566.83 1997)">[11</text><text fill="#404040" font-family="Microsoft YaHei,Microsoft YaHei_MSFontService,sans-serif" font-weight="400" font-size="46" transform="matrix(1 0 0 1 2636.15 1997)">-</text><text fill="#404040" font-family="Microsoft YaHei,Microsoft YaHei_MSFontService,sans-serif" font-weight="400" font-size="46" transform="matrix(1 0 0 1 2656.21 1997)">12] 2B</text><path d="M2484.5 2160.5C2484.5 2146.14 2496.14 2134.5 2510.5 2134.5L2848.5 2134.5C2862.86 2134.5 2874.5 2146.14 2874.5 2160.5L2874.5 2264.5C2874.5 2278.86 2862.86 2290.5 2848.5 2290.5L2510.5 2290.5C2496.14 2290.5 2484.5 2278.86 2484.5 2264.5Z" stroke="#75BD42" stroke-width="4.58333" stroke-miterlimit="8" fill="none" fill-rule="evenodd"/><text fill="#404040" font-family="Microsoft YaHei,Microsoft YaHei_MSFontService,sans-serif" font-weight="400" font-size="46" transform="matrix(1 0 0 1 2569.76 2229)">0x2c 0x07</text><path d="M2876.5 1825C2876.5 1815.89 2883.89 1808.5 2893 1808.5L3159 1808.5C3168.11 1808.5 3175.5 1815.89 3175.5 1825L3175.5 1825C3175.5 1834.11 3168.11 1841.5 3159 1841.5L2893 1841.5C2883.89 1841.5 2876.5 1834.11 2876.5 1825Z" stroke="#75BD42" stroke-width="4.58333" stroke-miterlimit="8" fill="#75BD42" fill-rule="evenodd"/><path d="M2876.5 1872.83C2876.5 1856.08 2890.08 1842.5 2906.83 1842.5L3145.17 1842.5C3161.92 1842.5 3175.5 1856.08 3175.5 1872.83L3175.5 1994.17C3175.5 2010.92 3161.92 2024.5 3145.17 2024.5L2906.83 2024.5C2890.08 2024.5 2876.5 2010.92 2876.5 1994.17Z" stroke="#75BD42" stroke-width="4.58333" stroke-miterlimit="8" fill="#C8E5B3" fill-rule="evenodd"/><text fill="#404040" font-family="Microsoft YaHei,Microsoft YaHei_MSFontService,sans-serif" font-weight="700" font-size="55" transform="matrix(1 0 0 1 2941.77 1910)">status</text><text fill="#404040" font-family="Microsoft YaHei,Microsoft YaHei_MSFontService,sans-serif" font-weight="400" font-size="46" transform="matrix(1 0 0 1 2948.07 1997)">[13] 1B</text><path d="M2873.5 2161.5C2873.5 2147.14 2885.14 2135.5 2899.5 2135.5L3146.5 2135.5C3160.86 2135.5 3172.5 2147.14 3172.5 2161.5L3172.5 2265.5C3172.5 2279.86 3160.86 2291.5 3146.5 2291.5L2899.5 2291.5C2885.14 2291.5 2873.5 2279.86 2873.5 2265.5Z" stroke="#75BD42" stroke-width="4.58333" stroke-miterlimit="8" fill="none" fill-rule="evenodd"/><text fill="#404040" font-family="Microsoft YaHei,Microsoft YaHei_MSFontService,sans-serif" font-weight="400" font-size="46" transform="matrix(1 0 0 1 2970.67 2230)">0x00</text><path d="M3175.5 1825C3175.5 1815.89 3182.89 1808.5 3192 1808.5L3678 1808.5C3687.11 1808.5 3694.5 1815.89 3694.5 1825L3694.5 1825C3694.5 1834.11 3687.11 1841.5 3678 1841.5L3192 1841.5C3182.89 1841.5 3175.5 1834.11 3175.5 1825Z" stroke="#75BD42" stroke-width="4.58333" stroke-miterlimit="8" fill="#75BD42" fill-rule="evenodd"/><path d="M3175.5 1872.83C3175.5 1856.08 3189.08 1842.5 3205.83 1842.5L3664.17 1842.5C3680.92 1842.5 3694.5 1856.08 3694.5 1872.83L3694.5 1994.17C3694.5 2010.92 3680.92 2024.5 3664.17 2024.5L3205.83 2024.5C3189.08 2024.5 3175.5 2010.92 3175.5 1994.17Z" stroke="#75BD42" stroke-width="4.58333" stroke-miterlimit="8" fill="#C8E5B3" fill-rule="evenodd"/><text fill="#404040" font-family="Microsoft YaHei,Microsoft YaHei_MSFontService,sans-serif" font-weight="700" font-size="55" transform="matrix(1 0 0 1 3321.22 1910)">position</text><text fill="#404040" font-family="Microsoft YaHei,Microsoft YaHei_MSFontService,sans-serif" font-weight="400" font-size="46" transform="matrix(1 0 0 1 3320.37 1997)">[14</text><text fill="#404040" font-family="Microsoft YaHei,Microsoft YaHei_MSFontService,sans-serif" font-weight="400" font-size="46" transform="matrix(1 0 0 1 3389.7 1997)">-</text><text fill="#404040" font-family="Microsoft YaHei,Microsoft YaHei_MSFontService,sans-serif" font-weight="400" font-size="46" transform="matrix(1 0 0 1 3409.75 1997)">17] 4B</text><path d="M3173.5 2161.5C3173.5 2147.14 3185.14 2135.5 3199.5 2135.5L3666.5 2135.5C3680.86 2135.5 3692.5 2147.14 3692.5 2161.5L3692.5 2265.5C3692.5 2279.86 3680.86 2291.5 3666.5 2291.5L3199.5 2291.5C3185.14 2291.5 3173.5 2279.86 3173.5 2265.5Z" stroke="#75BD42" stroke-width="4.58333" stroke-miterlimit="8" fill="none" fill-rule="evenodd"/><text fill="#404040" font-family="Microsoft YaHei,Microsoft YaHei_MSFontService,sans-serif" font-weight="400" font-size="46" transform="matrix(1 0 0 1 3208.44 2230)">0x</text><text fill="#404040" font-family="Microsoft YaHei,Microsoft YaHei_MSFontService,sans-serif" font-weight="400" font-size="46" transform="matrix(1 0 0 1 3258.85 2230)">af</text><text fill="#404040" font-family="Microsoft YaHei,Microsoft YaHei_MSFontService,sans-serif" font-weight="400" font-size="46" transform="matrix(1 0 0 1 3313.85 2230)">0x</text><text fill="#404040" font-family="Microsoft YaHei,Microsoft YaHei_MSFontService,sans-serif" font-weight="400" font-size="46" transform="matrix(1 0 0 1 3364.27 2230)">0b</text><text fill="#404040" font-family="Microsoft YaHei,Microsoft YaHei_MSFontService,sans-serif" font-weight="400" font-size="46" transform="matrix(1 0 0 1 3434.17 2230)">0x0</text><text fill="#404040" font-family="Microsoft YaHei,Microsoft YaHei_MSFontService,sans-serif" font-weight="400" font-size="46" transform="matrix(1 0 0 1 3511.51 2230)">0</text><text fill="#404040" font-family="Microsoft YaHei,Microsoft YaHei_MSFontService,sans-serif" font-weight="400" font-size="46" transform="matrix(1 0 0 1 3552.19 2230)">0x00</text><path d="M3694.5 1826C3694.5 1816.89 3701.89 1809.5 3711 1809.5L4068 1809.5C4077.11 1809.5 4084.5 1816.89 4084.5 1826L4084.5 1826C4084.5 1835.11 4077.11 1842.5 4068 1842.5L3711 1842.5C3701.89 1842.5 3694.5 1835.11 3694.5 1826Z" stroke="#75BD42" stroke-width="4.58333" stroke-miterlimit="8" fill="#75BD42" fill-rule="evenodd"/><path d="M3694.5 1873.83C3694.5 1857.08 3708.08 1843.5 3724.83 1843.5L4054.17 1843.5C4070.92 1843.5 4084.5 1857.08 4084.5 1873.83L4084.5 1995.17C4084.5 2011.92 4070.92 2025.5 4054.17 2025.5L3724.83 2025.5C3708.08 2025.5 3694.5 2011.92 3694.5 1995.17Z" stroke="#75BD42" stroke-width="4.58333" stroke-miterlimit="8" fill="#C8E5B3" fill-rule="evenodd"/><text fill="#404040" font-family="Microsoft YaHei,Microsoft YaHei_MSFontService,sans-serif" font-weight="700" font-size="55" transform="matrix(1 0 0 1 3816.85 1911)">turns</text><text fill="#404040" font-family="Microsoft YaHei,Microsoft YaHei_MSFontService,sans-serif" font-weight="400" font-size="46" transform="matrix(1 0 0 1 3775.1 1998)">[17</text><text fill="#404040" font-family="Microsoft YaHei,Microsoft YaHei_MSFontService,sans-serif" font-weight="400" font-size="46" transform="matrix(1 0 0 1 3844.42 1998)">-</text><text fill="#404040" font-family="Microsoft YaHei,Microsoft YaHei_MSFontService,sans-serif" font-weight="400" font-size="46" transform="matrix(1 0 0 1 3864.47 1998)">18] 2B</text><path d="M3692.5 2161.5C3692.5 2147.14 3704.14 2135.5 3718.5 2135.5L4056.5 2135.5C4070.86 2135.5 4082.5 2147.14 4082.5 2161.5L4082.5 2265.5C4082.5 2279.86 4070.86 2291.5 4056.5 2291.5L3718.5 2291.5C3704.14 2291.5 3692.5 2279.86 3692.5 2265.5Z" stroke="#75BD42" stroke-width="4.58333" stroke-miterlimit="8" fill="none" fill-rule="evenodd"/><text fill="#404040" font-family="Microsoft YaHei,Microsoft YaHei_MSFontService,sans-serif" font-weight="400" font-size="46" transform="matrix(1 0 0 1 3776.03 2230)">0x00 0x00</text><path d="M4084.5 1825C4084.5 1815.89 4091.89 1808.5 4101 1808.5L4367 1808.5C4376.11 1808.5 4383.5 1815.89 4383.5 1825L4383.5 1825C4383.5 1834.11 4376.11 1841.5 4367 1841.5L4101 1841.5C4091.89 1841.5 4084.5 1834.11 4084.5 1825Z" stroke="#8843AB" stroke-width="4.58333" stroke-miterlimit="8" fill="#8843AB" fill-rule="evenodd"/><path d="M4084.5 1872.83C4084.5 1856.08 4098.08 1842.5 4114.83 1842.5L4353.17 1842.5C4369.92 1842.5 4383.5 1856.08 4383.5 1872.83L4383.5 1994.17C4383.5 2010.92 4369.92 2024.5 4353.17 2024.5L4114.83 2024.5C4098.08 2024.5 4084.5 2010.92 4084.5 1994.17Z" stroke="#8843AB" stroke-width="4.58333" stroke-miterlimit="8" fill="#CCCCFF" fill-rule="evenodd"/><text fill="#404040" font-family="Microsoft YaHei,Microsoft YaHei_MSFontService,sans-serif" font-weight="700" font-size="55" transform="matrix(1 0 0 1 4096.86 1910)">checksum</text><text fill="#404040" font-family="Microsoft YaHei,Microsoft YaHei_MSFontService,sans-serif" font-weight="400" font-size="46" transform="matrix(1 0 0 1 4156.72 1997)">[19] 1B</text><path d="M4082.5 2161.5C4082.5 2147.14 4094.14 2135.5 4108.5 2135.5L4355.5 2135.5C4369.86 2135.5 4381.5 2147.14 4381.5 2161.5L4381.5 2265.5C4381.5 2279.86 4369.86 2291.5 4355.5 2291.5L4108.5 2291.5C4094.14 2291.5 4082.5 2279.86 4082.5 2265.5Z" stroke="#8843AB" stroke-width="4.58333" stroke-miterlimit="8" fill="none" fill-rule="evenodd"/><text fill="#404040" font-family="Microsoft YaHei,Microsoft YaHei_MSFontService,sans-serif" font-weight="400" font-size="46" transform="matrix(1 0 0 1 4177.04 2230)">0xd</text><text fill="#404040" font-family="Microsoft YaHei,Microsoft YaHei_MSFontService,sans-serif" font-weight="400" font-size="46" transform="matrix(1 0 0 1 4256.67 2230)">d</text></g></svg>