<svg xmlns="http://www.w3.org/2000/svg" viewBox="0 0 24 24" aria-hidden="true">
  <circle cx="12" cy="12" r="4.5" fill="currentColor"/>
  <g fill="currentColor">
    <path d="M12 2.5a1 1 0 0 1 1 1V5a1 1 0 1 1-2 0V3.5a1 1 0 0 1 1-1z"/>
    <path d="M12 18a1 1 0 0 1 1 1V20.5a1 1 0 1 1-2 0V19a1 1 0 0 1 1-1z"/>
    <path d="M3.5 12a1 1 0 0 1 1-1H6a1 1 0 1 1 0 2H4.5a1 1 0 0 1-1-1z"/>
    <path d="M18 12a1 1 0 0 1 1-1H20.5a1 1 0 1 1 0 2H19a1 1 0 0 1-1-1z"/>
    <path d="M5.3 5.3a1 1 0 0 1 1.4 0l1.06 1.06a1 1 0 1 1-1.42 1.42L5.3 6.72a1 1 0 0 1 0-1.42z"/>
    <path d="M16.24 16.24a1 1 0 0 1 1.4 0l1.06 1.06a1 1 0 1 1-1.42 1.42l-1.04-1.04a1 1 0 0 1 0-1.44z"/>
    <path d="M18.7 5.3a1 1 0 0 1 0 1.4l-1.06 1.06a1 1 0 1 1-1.42-1.42l1.04-1.04a1 1 0 0 1 1.44 0z"/>
    <path d="M7.76 16.24a1 1 0 0 1 0 1.4l-1.06 1.06a1 1 0 1 1-1.42-1.42l1.04-1.04a1 1 0 0 1 1.44 0z"/>
  </g>
</svg>
