<svg width="2781" height="339" xmlns="http://www.w3.org/2000/svg" xmlns:xlink="http://www.w3.org/1999/xlink" xml:space="preserve" overflow="hidden"><g transform="translate(-369 -1129)"><path d="M396.5 1259C396.5 1249.89 403.887 1242.5 413 1242.5L769 1242.5C778.113 1242.5 785.5 1249.89 785.5 1259L785.5 1259C785.5 1268.11 778.113 1275.5 769 1275.5L413 1275.5C403.887 1275.5 396.5 1268.11 396.5 1259Z" stroke="#2E54A1" stroke-width="4.58333" stroke-miterlimit="8" fill="#2E54A1" fill-rule="evenodd"/><path d="M396.5 1305.83C396.5 1289.08 410.081 1275.5 426.834 1275.5L755.166 1275.5C771.919 1275.5 785.5 1289.08 785.5 1305.83L785.5 1427.17C785.5 1443.92 771.919 1457.5 755.166 1457.5L426.834 1457.5C410.081 1457.5 396.5 1443.92 396.5 1427.17Z" stroke="#2E54A1" stroke-width="4.58333" stroke-miterlimit="8" fill="#B6C7EA" fill-rule="evenodd"/><text fill="#404040" font-family="Microsoft YaHei,Microsoft YaHei_MSFontService,sans-serif" font-weight="700" font-size="55" transform="matrix(1 0 0 1 494.848 1342)">header</text><text fill="#404040" font-family="Microsoft YaHei,Microsoft YaHei_MSFontService,sans-serif" font-weight="400" font-size="46" transform="matrix(1 0 0 1 538.092 1429)">[0</text><text fill="#404040" font-family="Microsoft YaHei,Microsoft YaHei_MSFontService,sans-serif" font-weight="400" font-size="46" transform="matrix(1 0 0 1 580.488 1429)">-</text><text fill="#404040" font-family="Microsoft YaHei,Microsoft YaHei_MSFontService,sans-serif" font-weight="400" font-size="46" transform="matrix(1 0 0 1 600.54 1429)">1]</text><path d="M784.5 1259C784.5 1249.89 791.887 1242.5 801 1242.5L1067 1242.5C1076.11 1242.5 1083.5 1249.89 1083.5 1259L1083.5 1259C1083.5 1268.11 1076.11 1275.5 1067 1275.5L801 1275.5C791.887 1275.5 784.5 1268.11 784.5 1259Z" stroke="#2E54A1" stroke-width="4.58333" stroke-miterlimit="8" fill="#2E54A1" fill-rule="evenodd"/><path d="M784.5 1305.83C784.5 1289.08 798.081 1275.5 814.834 1275.5L1053.17 1275.5C1069.92 1275.5 1083.5 1289.08 1083.5 1305.83L1083.5 1427.17C1083.5 1443.92 1069.92 1457.5 1053.17 1457.5L814.834 1457.5C798.081 1457.5 784.5 1443.92 784.5 1427.17Z" stroke="#2E54A1" stroke-width="4.58333" stroke-miterlimit="8" fill="#B6C7EA" fill-rule="evenodd"/><text fill="#404040" font-family="Microsoft YaHei,Microsoft YaHei_MSFontService,sans-serif" font-weight="700" font-size="55" transform="matrix(1 0 0 1 835.478 1342)">cmd_id</text><text fill="#404040" font-family="Microsoft YaHei,Microsoft YaHei_MSFontService,sans-serif" font-weight="400" font-size="46" transform="matrix(1 0 0 1 904.801 1429)">[2]</text><path d="M1083.5 1259C1083.5 1249.89 1090.89 1242.5 1100 1242.5L1366 1242.5C1375.11 1242.5 1382.5 1249.89 1382.5 1259L1382.5 1259C1382.5 1268.11 1375.11 1275.5 1366 1275.5L1100 1275.5C1090.89 1275.5 1083.5 1268.11 1083.5 1259Z" stroke="#2E54A1" stroke-width="4.58333" stroke-miterlimit="8" fill="#2E54A1" fill-rule="evenodd"/><path d="M1083.5 1305.83C1083.5 1289.08 1097.08 1275.5 1113.83 1275.5L1352.17 1275.5C1368.92 1275.5 1382.5 1289.08 1382.5 1305.83L1382.5 1427.17C1382.5 1443.92 1368.92 1457.5 1352.17 1457.5L1113.83 1457.5C1097.08 1457.5 1083.5 1443.92 1083.5 1427.17Z" stroke="#2E54A1" stroke-width="4.58333" stroke-miterlimit="8" fill="#B6C7EA" fill-rule="evenodd"/><text fill="#404040" font-family="Microsoft YaHei,Microsoft YaHei_MSFontService,sans-serif" font-weight="700" font-size="55" transform="matrix(1 0 0 1 1143.18 1342)">length</text><text fill="#404040" font-family="Microsoft YaHei,Microsoft YaHei_MSFontService,sans-serif" font-weight="400" font-size="46" transform="matrix(1 0 0 1 1203.63 1429)">[3]</text><text fill="#404040" font-family="Microsoft YaHei,Microsoft YaHei_MSFontService,sans-serif" font-weight="400" font-size="50" transform="matrix(1 0 0 1 400.12 1203)">Command</text><path d="M1381.5 1259C1381.5 1249.89 1388.89 1242.5 1398 1242.5L2184 1242.5C2193.11 1242.5 2200.5 1249.89 2200.5 1259L2200.5 1259C2200.5 1268.11 2193.11 1275.5 2184 1275.5L1398 1275.5C1388.89 1275.5 1381.5 1268.11 1381.5 1259Z" stroke="#75BD42" stroke-width="4.58333" stroke-miterlimit="8" fill="#75BD42" fill-rule="evenodd"/><path d="M1381.5 1305.83C1381.5 1289.08 1395.08 1275.5 1411.83 1275.5L2170.17 1275.5C2186.92 1275.5 2200.5 1289.08 2200.5 1305.83L2200.5 1427.17C2200.5 1443.92 2186.92 1457.5 2170.17 1457.5L1411.83 1457.5C1395.08 1457.5 1381.5 1443.92 1381.5 1427.17Z" stroke="#75BD42" stroke-width="4.58333" stroke-miterlimit="8" fill="#C8E5B3" fill-rule="evenodd"/><text fill="#404040" font-family="Microsoft YaHei,Microsoft YaHei_MSFontService,sans-serif" font-weight="700" font-size="55" transform="matrix(1 0 0 1 1683.83 1342)">conten</text><text fill="#404040" font-family="Microsoft YaHei,Microsoft YaHei_MSFontService,sans-serif" font-weight="700" font-size="55" transform="matrix(1 0 0 1 1874.36 1342)">t</text><text fill="#404040" font-family="Microsoft YaHei,Microsoft YaHei_MSFontService,sans-serif" font-weight="400" font-size="46" transform="matrix(1 0 0 1 1693.46 1429)">[4 </text><text fill="#404040" font-family="Microsoft YaHei,Microsoft YaHei_MSFontService,sans-serif" font-weight="400" font-size="46" transform="matrix(1 0 0 1 1749.6 1429)">-</text><text fill="#404040" font-family="Microsoft YaHei,Microsoft YaHei_MSFontService,sans-serif" font-weight="400" font-size="46" transform="matrix(1 0 0 1 1783.4 1429)">n+4]</text><path d="M2200.5 1259C2200.5 1249.89 2207.89 1242.5 2217 1242.5L2483 1242.5C2492.11 1242.5 2499.5 1249.89 2499.5 1259L2499.5 1259C2499.5 1268.11 2492.11 1275.5 2483 1275.5L2217 1275.5C2207.89 1275.5 2200.5 1268.11 2200.5 1259Z" stroke="#8843AB" stroke-width="4.58333" stroke-miterlimit="8" fill="#8843AB" fill-rule="evenodd"/><path d="M2200.5 1305.83C2200.5 1289.08 2214.08 1275.5 2230.83 1275.5L2469.17 1275.5C2485.92 1275.5 2499.5 1289.08 2499.5 1305.83L2499.5 1427.17C2499.5 1443.92 2485.92 1457.5 2469.17 1457.5L2230.83 1457.5C2214.08 1457.5 2200.5 1443.92 2200.5 1427.17Z" stroke="#8843AB" stroke-width="4.58333" stroke-miterlimit="8" fill="#CCCCFF" fill-rule="evenodd"/><text fill="#404040" font-family="Microsoft YaHei,Microsoft YaHei_MSFontService,sans-serif" font-weight="700" font-size="55" transform="matrix(1 0 0 1 2212.95 1342)">checksum</text><text fill="#404040" font-family="Microsoft YaHei,Microsoft YaHei_MSFontService,sans-serif" font-weight="400" font-size="46" transform="matrix(1 0 0 1 2290 1429)">[n+5]</text></g></svg>