<svg width="2781" height="589" xmlns="http://www.w3.org/2000/svg" xmlns:xlink="http://www.w3.org/1999/xlink" xml:space="preserve" overflow="hidden"><g transform="translate(-369 -1009)"><path d="M395.5 1132.5C395.5 1123.66 402.664 1116.5 411.5 1116.5L769.5 1116.5C778.337 1116.5 785.5 1123.66 785.5 1132.5L785.5 1132.5C785.5 1141.34 778.336 1148.5 769.5 1148.5L411.5 1148.5C402.664 1148.5 395.5 1141.34 395.5 1132.5Z" stroke="#2E54A1" stroke-width="4.58333" stroke-miterlimit="8" fill="#2E54A1" fill-rule="evenodd"/><path d="M395.5 1180.83C395.5 1164.08 409.081 1150.5 425.834 1150.5L755.166 1150.5C771.919 1150.5 785.5 1164.08 785.5 1180.83L785.5 1302.17C785.5 1318.92 771.919 1332.5 755.166 1332.5L425.834 1332.5C409.081 1332.5 395.5 1318.92 395.5 1302.17Z" stroke="#2E54A1" stroke-width="4.58333" stroke-miterlimit="8" fill="#B6C7EA" fill-rule="evenodd"/><text fill="#404040" font-family="Microsoft YaHei,Microsoft YaHei_MSFontService,sans-serif" font-weight="700" font-size="55" transform="matrix(1 0 0 1 494.073 1218)">header</text><text fill="#404040" font-family="Microsoft YaHei,Microsoft YaHei_MSFontService,sans-serif" font-weight="400" font-size="46" transform="matrix(1 0 0 1 502.667 1305)">[0</text><text fill="#404040" font-family="Microsoft YaHei,Microsoft YaHei_MSFontService,sans-serif" font-weight="400" font-size="46" transform="matrix(1 0 0 1 545.063 1305)">-</text><text fill="#404040" font-family="Microsoft YaHei,Microsoft YaHei_MSFontService,sans-serif" font-weight="400" font-size="46" transform="matrix(1 0 0 1 565.115 1305)">1] 2B</text><path d="M786.5 1132.5C786.5 1123.66 793.663 1116.5 802.5 1116.5L1069.5 1116.5C1078.34 1116.5 1085.5 1123.66 1085.5 1132.5L1085.5 1132.5C1085.5 1141.34 1078.34 1148.5 1069.5 1148.5L802.5 1148.5C793.663 1148.5 786.5 1141.34 786.5 1132.5Z" stroke="#2E54A1" stroke-width="4.58333" stroke-miterlimit="8" fill="#2E54A1" fill-rule="evenodd"/><path d="M786.5 1180.83C786.5 1164.08 800.081 1150.5 816.834 1150.5L1055.17 1150.5C1071.92 1150.5 1085.5 1164.08 1085.5 1180.83L1085.5 1302.17C1085.5 1318.92 1071.92 1332.5 1055.17 1332.5L816.834 1332.5C800.081 1332.5 786.5 1318.92 786.5 1302.17Z" stroke="#2E54A1" stroke-width="4.58333" stroke-miterlimit="8" fill="#B6C7EA" fill-rule="evenodd"/><text fill="#404040" font-family="Microsoft YaHei,Microsoft YaHei_MSFontService,sans-serif" font-weight="700" font-size="55" transform="matrix(1 0 0 1 837.336 1218)">cmd_id</text><text fill="#404040" font-family="Microsoft YaHei,Microsoft YaHei_MSFontService,sans-serif" font-weight="400" font-size="46" transform="matrix(1 0 0 1 871.986 1305)">[2] 1B</text><path d="M1085.5 1132.5C1085.5 1123.66 1092.66 1116.5 1101.5 1116.5L1368.5 1116.5C1377.34 1116.5 1384.5 1123.66 1384.5 1132.5L1384.5 1132.5C1384.5 1141.34 1377.34 1148.5 1368.5 1148.5L1101.5 1148.5C1092.66 1148.5 1085.5 1141.34 1085.5 1132.5Z" stroke="#2E54A1" stroke-width="4.58333" stroke-miterlimit="8" fill="#2E54A1" fill-rule="evenodd"/><path d="M1085.5 1180.83C1085.5 1164.08 1099.08 1150.5 1115.83 1150.5L1354.17 1150.5C1370.92 1150.5 1384.5 1164.08 1384.5 1180.83L1384.5 1302.17C1384.5 1318.92 1370.92 1332.5 1354.17 1332.5L1115.83 1332.5C1099.08 1332.5 1085.5 1318.92 1085.5 1302.17Z" stroke="#2E54A1" stroke-width="4.58333" stroke-miterlimit="8" fill="#B6C7EA" fill-rule="evenodd"/><text fill="#404040" font-family="Microsoft YaHei,Microsoft YaHei_MSFontService,sans-serif" font-weight="700" font-size="55" transform="matrix(1 0 0 1 1145.03 1218)">length</text><text fill="#404040" font-family="Microsoft YaHei,Microsoft YaHei_MSFontService,sans-serif" font-weight="400" font-size="46" transform="matrix(1 0 0 1 1170.82 1305)">[3] 1B</text><text fill="#404040" font-family="Microsoft YaHei,Microsoft YaHei_MSFontService,sans-serif" font-weight="400" font-size="50" transform="matrix(1 0 0 1 400.12 1082)">Command</text><path d="M395.5 1465.5C395.5 1451.14 407.141 1439.5 421.501 1439.5L759.5 1439.5C773.859 1439.5 785.5 1451.14 785.5 1465.5L785.5 1569.5C785.5 1583.86 773.859 1595.5 759.5 1595.5L421.501 1595.5C407.141 1595.5 395.5 1583.86 395.5 1569.5Z" stroke="#2E54A1" stroke-width="4.58333" stroke-miterlimit="8" fill="none" fill-rule="evenodd"/><text fill="#404040" font-family="Microsoft YaHei,Microsoft YaHei_MSFontService,sans-serif" font-weight="400" font-size="46" transform="matrix(1 0 0 1 480.61 1533)">0x12 0x4c</text><path d="M786.5 1465.5C786.5 1451.14 798.141 1439.5 812.5 1439.5L1059.5 1439.5C1073.86 1439.5 1085.5 1451.14 1085.5 1465.5L1085.5 1569.5C1085.5 1583.86 1073.86 1595.5 1059.5 1595.5L812.5 1595.5C798.141 1595.5 786.5 1583.86 786.5 1569.5Z" stroke="#2E54A1" stroke-width="4.58333" stroke-miterlimit="8" fill="none" fill-rule="evenodd"/><text fill="#404040" font-family="Microsoft YaHei,Microsoft YaHei_MSFontService,sans-serif" font-weight="400" font-size="46" transform="matrix(1 0 0 1 883.456 1533)">0x</text><text fill="#404040" font-family="Microsoft YaHei,Microsoft YaHei_MSFontService,sans-serif" font-weight="400" font-size="46" transform="matrix(1 0 0 1 933.872 1533)">1</text><text fill="#404040" font-family="Microsoft YaHei,Microsoft YaHei_MSFontService,sans-serif" font-weight="400" font-size="46" transform="matrix(1 0 0 1 960.799 1533)">1</text><path d="M1085.5 1465.5C1085.5 1451.14 1097.14 1439.5 1111.5 1439.5L1358.5 1439.5C1372.86 1439.5 1384.5 1451.14 1384.5 1465.5L1384.5 1569.5C1384.5 1583.86 1372.86 1595.5 1358.5 1595.5L1111.5 1595.5C1097.14 1595.5 1085.5 1583.86 1085.5 1569.5Z" stroke="#2E54A1" stroke-width="4.58333" stroke-miterlimit="8" fill="none" fill-rule="evenodd"/><text fill="#404040" font-family="Microsoft YaHei,Microsoft YaHei_MSFontService,sans-serif" font-weight="400" font-size="46" transform="matrix(1 0 0 1 1182.27 1533)">0x01</text><text fill="#404040" font-family="Microsoft YaHei,Microsoft YaHei_MSFontService,sans-serif" font-weight="400" font-size="50" transform="matrix(1 0 0 1 400.12 1403)">Example Values</text><path d="M1385.5 1132.5C1385.5 1123.66 1392.66 1116.5 1401.5 1116.5L1668.5 1116.5C1677.34 1116.5 1684.5 1123.66 1684.5 1132.5L1684.5 1132.5C1684.5 1141.34 1677.34 1148.5 1668.5 1148.5L1401.5 1148.5C1392.66 1148.5 1385.5 1141.34 1385.5 1132.5Z" stroke="#75BD42" stroke-width="4.58333" stroke-miterlimit="8" fill="#75BD42" fill-rule="evenodd"/><path d="M1385.5 1180.83C1385.5 1164.08 1399.08 1150.5 1415.83 1150.5L1654.17 1150.5C1670.92 1150.5 1684.5 1164.08 1684.5 1180.83L1684.5 1302.17C1684.5 1318.92 1670.92 1332.5 1654.17 1332.5L1415.83 1332.5C1399.08 1332.5 1385.5 1318.92 1385.5 1302.17Z" stroke="#75BD42" stroke-width="4.58333" stroke-miterlimit="8" fill="#C8E5B3" fill-rule="evenodd"/><text fill="#404040" font-family="Microsoft YaHei,Microsoft YaHei_MSFontService,sans-serif" font-weight="700" font-size="55" transform="matrix(1 0 0 1 1420.17 1218)">servo_id</text><text fill="#404040" font-family="Microsoft YaHei,Microsoft YaHei_MSFontService,sans-serif" font-weight="400" font-size="46" transform="matrix(1 0 0 1 1471.18 1305)">[4] 1B</text><path d="M1385.5 1465.5C1385.5 1451.14 1397.14 1439.5 1411.5 1439.5L1658.5 1439.5C1672.86 1439.5 1684.5 1451.14 1684.5 1465.5L1684.5 1569.5C1684.5 1583.86 1672.86 1595.5 1658.5 1595.5L1411.5 1595.5C1397.14 1595.5 1385.5 1583.86 1385.5 1569.5Z" stroke="#75BD42" stroke-width="4.58333" stroke-miterlimit="8" fill="none" fill-rule="evenodd"/><text fill="#404040" font-family="Microsoft YaHei,Microsoft YaHei_MSFontService,sans-serif" font-weight="400" font-size="46" transform="matrix(1 0 0 1 1482.64 1533)">0x00</text><path d="M1686.5 1132.5C1686.5 1123.66 1693.66 1116.5 1702.5 1116.5L1969.5 1116.5C1978.34 1116.5 1985.5 1123.66 1985.5 1132.5L1985.5 1132.5C1985.5 1141.34 1978.34 1148.5 1969.5 1148.5L1702.5 1148.5C1693.66 1148.5 1686.5 1141.34 1686.5 1132.5Z" stroke="#8843AB" stroke-width="4.58333" stroke-miterlimit="8" fill="#8843AB" fill-rule="evenodd"/><path d="M1686.5 1180.83C1686.5 1164.08 1700.08 1150.5 1716.83 1150.5L1955.17 1150.5C1971.92 1150.5 1985.5 1164.08 1985.5 1180.83L1985.5 1302.17C1985.5 1318.92 1971.92 1332.5 1955.17 1332.5L1716.83 1332.5C1700.08 1332.5 1686.5 1318.92 1686.5 1302.17Z" stroke="#8843AB" stroke-width="4.58333" stroke-miterlimit="8" fill="#CCCCFF" fill-rule="evenodd"/><text fill="#404040" font-family="Microsoft YaHei,Microsoft YaHei_MSFontService,sans-serif" font-weight="700" font-size="55" transform="matrix(1 0 0 1 1698.22 1218)">checksum</text><text fill="#404040" font-family="Microsoft YaHei,Microsoft YaHei_MSFontService,sans-serif" font-weight="400" font-size="46" transform="matrix(1 0 0 1 1771.55 1305)">[5] 1B</text><path d="M1686.5 1465.5C1686.5 1451.14 1698.14 1439.5 1712.5 1439.5L1959.5 1439.5C1973.86 1439.5 1985.5 1451.14 1985.5 1465.5L1985.5 1569.5C1985.5 1583.86 1973.86 1595.5 1959.5 1595.5L1712.5 1595.5C1698.14 1595.5 1686.5 1583.86 1686.5 1569.5Z" stroke="#8843AB" stroke-width="4.58333" stroke-miterlimit="8" fill="none" fill-rule="evenodd"/><text fill="#404040" font-family="Microsoft YaHei,Microsoft YaHei_MSFontService,sans-serif" font-weight="400" font-size="46" transform="matrix(1 0 0 1 1783.01 1533)">0x</text><text fill="#404040" font-family="Microsoft YaHei,Microsoft YaHei_MSFontService,sans-serif" font-weight="400" font-size="46" transform="matrix(1 0 0 1 1833.43 1533)">7</text><text fill="#404040" font-family="Microsoft YaHei,Microsoft YaHei_MSFontService,sans-serif" font-weight="400" font-size="46" transform="matrix(1 0 0 1 1860.35 1533)">0</text></g></svg>