<svg width="2785" height="591" xmlns="http://www.w3.org/2000/svg" xmlns:xlink="http://www.w3.org/1999/xlink" xml:space="preserve" overflow="hidden"><g transform="translate(-365 -992)"><path d="M393.5 1115C393.5 1105.89 400.887 1098.5 410 1098.5L767 1098.5C776.113 1098.5 783.5 1105.89 783.5 1115L783.5 1115C783.5 1124.11 776.113 1131.5 767 1131.5L410 1131.5C400.887 1131.5 393.5 1124.11 393.5 1115Z" stroke="#2E54A1" stroke-width="4.58333" stroke-miterlimit="8" fill="#2E54A1" fill-rule="evenodd"/><path d="M393.5 1162.83C393.5 1146.08 407.081 1132.5 423.834 1132.5L753.166 1132.5C769.919 1132.5 783.5 1146.08 783.5 1162.83L783.5 1284.17C783.5 1300.92 769.919 1314.5 753.166 1314.5L423.834 1314.5C407.081 1314.5 393.5 1300.92 393.5 1284.17Z" stroke="#2E54A1" stroke-width="4.58333" stroke-miterlimit="8" fill="#B6C7EA" fill-rule="evenodd"/><text fill="#404040" font-family="Microsoft YaHei,Microsoft YaHei_MSFontService,sans-serif" font-weight="700" font-size="55" transform="matrix(1 0 0 1 492.138 1200)">header</text><text fill="#404040" font-family="Microsoft YaHei,Microsoft YaHei_MSFontService,sans-serif" font-weight="400" font-size="46" transform="matrix(1 0 0 1 500.731 1287)">[0</text><text fill="#404040" font-family="Microsoft YaHei,Microsoft YaHei_MSFontService,sans-serif" font-weight="400" font-size="46" transform="matrix(1 0 0 1 543.127 1287)">-</text><text fill="#404040" font-family="Microsoft YaHei,Microsoft YaHei_MSFontService,sans-serif" font-weight="400" font-size="46" transform="matrix(1 0 0 1 563.179 1287)">1] 2B</text><path d="M784.5 1115C784.5 1105.89 791.887 1098.5 801 1098.5L1067 1098.5C1076.11 1098.5 1083.5 1105.89 1083.5 1115L1083.5 1115C1083.5 1124.11 1076.11 1131.5 1067 1131.5L801 1131.5C791.887 1131.5 784.5 1124.11 784.5 1115Z" stroke="#2E54A1" stroke-width="4.58333" stroke-miterlimit="8" fill="#2E54A1" fill-rule="evenodd"/><path d="M784.5 1162.83C784.5 1146.08 798.081 1132.5 814.834 1132.5L1053.17 1132.5C1069.92 1132.5 1083.5 1146.08 1083.5 1162.83L1083.5 1284.17C1083.5 1300.92 1069.92 1314.5 1053.17 1314.5L814.834 1314.5C798.081 1314.5 784.5 1300.92 784.5 1284.17Z" stroke="#2E54A1" stroke-width="4.58333" stroke-miterlimit="8" fill="#B6C7EA" fill-rule="evenodd"/><text fill="#404040" font-family="Microsoft YaHei,Microsoft YaHei_MSFontService,sans-serif" font-weight="700" font-size="55" transform="matrix(1 0 0 1 835.4 1200)">cmd_id</text><text fill="#404040" font-family="Microsoft YaHei,Microsoft YaHei_MSFontService,sans-serif" font-weight="400" font-size="46" transform="matrix(1 0 0 1 870.05 1287)">[2] 1B</text><path d="M1083.5 1115C1083.5 1105.89 1090.89 1098.5 1100 1098.5L1366 1098.5C1375.11 1098.5 1382.5 1105.89 1382.5 1115L1382.5 1115C1382.5 1124.11 1375.11 1131.5 1366 1131.5L1100 1131.5C1090.89 1131.5 1083.5 1124.11 1083.5 1115Z" stroke="#2E54A1" stroke-width="4.58333" stroke-miterlimit="8" fill="#2E54A1" fill-rule="evenodd"/><path d="M1083.5 1162.83C1083.5 1146.08 1097.08 1132.5 1113.83 1132.5L1352.17 1132.5C1368.92 1132.5 1382.5 1146.08 1382.5 1162.83L1382.5 1284.17C1382.5 1300.92 1368.92 1314.5 1352.17 1314.5L1113.83 1314.5C1097.08 1314.5 1083.5 1300.92 1083.5 1284.17Z" stroke="#2E54A1" stroke-width="4.58333" stroke-miterlimit="8" fill="#B6C7EA" fill-rule="evenodd"/><text fill="#404040" font-family="Microsoft YaHei,Microsoft YaHei_MSFontService,sans-serif" font-weight="700" font-size="55" transform="matrix(1 0 0 1 1143.1 1200)">length</text><text fill="#404040" font-family="Microsoft YaHei,Microsoft YaHei_MSFontService,sans-serif" font-weight="400" font-size="46" transform="matrix(1 0 0 1 1168.88 1287)">[3] 1B</text><text fill="#404040" font-family="Microsoft YaHei,Microsoft YaHei_MSFontService,sans-serif" font-weight="400" font-size="50" transform="matrix(1 0 0 1 398.184 1065)">Command</text><path d="M391.5 1450.5C391.5 1436.14 403.141 1424.5 417.5 1424.5L755.499 1424.5C769.859 1424.5 781.5 1436.14 781.5 1450.5L781.5 1554.5C781.5 1568.86 769.859 1580.5 755.499 1580.5L417.5 1580.5C403.141 1580.5 391.5 1568.86 391.5 1554.5Z" stroke="#2E54A1" stroke-width="4.58333" stroke-miterlimit="8" fill="none" fill-rule="evenodd"/><text fill="#404040" font-family="Microsoft YaHei,Microsoft YaHei_MSFontService,sans-serif" font-weight="400" font-size="46" transform="matrix(1 0 0 1 476.738 1519)">0x12 0x4c</text><path d="M782.5 1450.5C782.5 1436.14 794.141 1424.5 808.501 1424.5L1055.5 1424.5C1069.86 1424.5 1081.5 1436.14 1081.5 1450.5L1081.5 1554.5C1081.5 1568.86 1069.86 1580.5 1055.5 1580.5L808.501 1580.5C794.141 1580.5 782.5 1568.86 782.5 1554.5Z" stroke="#2E54A1" stroke-width="4.58333" stroke-miterlimit="8" fill="none" fill-rule="evenodd"/><text fill="#404040" font-family="Microsoft YaHei,Microsoft YaHei_MSFontService,sans-serif" font-weight="400" font-size="46" transform="matrix(1 0 0 1 879.584 1519)">0x0</text><text fill="#404040" font-family="Microsoft YaHei,Microsoft YaHei_MSFontService,sans-serif" font-weight="400" font-size="46" transform="matrix(1 0 0 1 956.928 1519)">9</text><path d="M1081.5 1450.5C1081.5 1436.14 1093.14 1424.5 1107.5 1424.5L1354.5 1424.5C1368.86 1424.5 1380.5 1436.14 1380.5 1450.5L1380.5 1554.5C1380.5 1568.86 1368.86 1580.5 1354.5 1580.5L1107.5 1580.5C1093.14 1580.5 1081.5 1568.86 1081.5 1554.5Z" stroke="#2E54A1" stroke-width="4.58333" stroke-miterlimit="8" fill="none" fill-rule="evenodd"/><text fill="#404040" font-family="Microsoft YaHei,Microsoft YaHei_MSFontService,sans-serif" font-weight="400" font-size="46" transform="matrix(1 0 0 1 1178.4 1519)">0x0</text><text fill="#404040" font-family="Microsoft YaHei,Microsoft YaHei_MSFontService,sans-serif" font-weight="400" font-size="46" transform="matrix(1 0 0 1 1255.75 1519)">3</text><text fill="#404040" font-family="Microsoft YaHei,Microsoft YaHei_MSFontService,sans-serif" font-weight="400" font-size="50" transform="matrix(1 0 0 1 396.249 1389)">Example Values</text><path d="M1383.5 1115C1383.5 1105.89 1390.89 1098.5 1400 1098.5L1666 1098.5C1675.11 1098.5 1682.5 1105.89 1682.5 1115L1682.5 1115C1682.5 1124.11 1675.11 1131.5 1666 1131.5L1400 1131.5C1390.89 1131.5 1383.5 1124.11 1383.5 1115Z" stroke="#75BD42" stroke-width="4.58333" stroke-miterlimit="8" fill="#75BD42" fill-rule="evenodd"/><path d="M1383.5 1162.83C1383.5 1146.08 1397.08 1132.5 1413.83 1132.5L1652.17 1132.5C1668.92 1132.5 1682.5 1146.08 1682.5 1162.83L1682.5 1284.17C1682.5 1300.92 1668.92 1314.5 1652.17 1314.5L1413.83 1314.5C1397.08 1314.5 1383.5 1300.92 1383.5 1284.17Z" stroke="#75BD42" stroke-width="4.58333" stroke-miterlimit="8" fill="#C8E5B3" fill-rule="evenodd"/><text fill="#404040" font-family="Microsoft YaHei,Microsoft YaHei_MSFontService,sans-serif" font-weight="700" font-size="55" transform="matrix(1 0 0 1 1418.24 1200)">servo_id</text><text fill="#404040" font-family="Microsoft YaHei,Microsoft YaHei_MSFontService,sans-serif" font-weight="400" font-size="46" transform="matrix(1 0 0 1 1469.25 1287)">[4] 1B</text><path d="M1381.5 1450.5C1381.5 1436.14 1393.14 1424.5 1407.5 1424.5L1654.5 1424.5C1668.86 1424.5 1680.5 1436.14 1680.5 1450.5L1680.5 1554.5C1680.5 1568.86 1668.86 1580.5 1654.5 1580.5L1407.5 1580.5C1393.14 1580.5 1381.5 1568.86 1381.5 1554.5Z" stroke="#75BD42" stroke-width="4.58333" stroke-miterlimit="8" fill="none" fill-rule="evenodd"/><text fill="#404040" font-family="Microsoft YaHei,Microsoft YaHei_MSFontService,sans-serif" font-weight="400" font-size="46" transform="matrix(1 0 0 1 1478.77 1519)">0x00</text><path d="M1684.5 1115C1684.5 1105.89 1691.89 1098.5 1701 1098.5L2058 1098.5C2067.11 1098.5 2074.5 1105.89 2074.5 1115L2074.5 1115C2074.5 1124.11 2067.11 1131.5 2058 1131.5L1701 1131.5C1691.89 1131.5 1684.5 1124.11 1684.5 1115Z" stroke="#75BD42" stroke-width="4.58333" stroke-miterlimit="8" fill="#75BD42" fill-rule="evenodd"/><path d="M1684.5 1162.83C1684.5 1146.08 1698.08 1132.5 1714.83 1132.5L2044.17 1132.5C2060.92 1132.5 2074.5 1146.08 2074.5 1162.83L2074.5 1284.17C2074.5 1300.92 2060.92 1314.5 2044.17 1314.5L1714.83 1314.5C1698.08 1314.5 1684.5 1300.92 1684.5 1284.17Z" stroke="#75BD42" stroke-width="4.58333" stroke-miterlimit="8" fill="#C8E5B3" fill-rule="evenodd"/><text fill="#404040" font-family="Microsoft YaHei,Microsoft YaHei_MSFontService,sans-serif" font-weight="700" font-size="55" transform="matrix(1 0 0 1 1791.16 1200)">power</text><text fill="#404040" font-family="Microsoft YaHei,Microsoft YaHei_MSFontService,sans-serif" font-weight="400" font-size="46" transform="matrix(1 0 0 1 1791.6 1287)">[5</text><text fill="#404040" font-family="Microsoft YaHei,Microsoft YaHei_MSFontService,sans-serif" font-weight="400" font-size="46" transform="matrix(1 0 0 1 1834 1287)">-</text><text fill="#404040" font-family="Microsoft YaHei,Microsoft YaHei_MSFontService,sans-serif" font-weight="400" font-size="46" transform="matrix(1 0 0 1 1854.05 1287)">6] 2B</text><path d="M1682.5 1450.5C1682.5 1436.14 1694.14 1424.5 1708.5 1424.5L2046.5 1424.5C2060.86 1424.5 2072.5 1436.14 2072.5 1450.5L2072.5 1554.5C2072.5 1568.86 2060.86 1580.5 2046.5 1580.5L1708.5 1580.5C1694.14 1580.5 1682.5 1568.86 1682.5 1554.5Z" stroke="#75BD42" stroke-width="4.58333" stroke-miterlimit="8" fill="none" fill-rule="evenodd"/><text fill="#404040" font-family="Microsoft YaHei,Microsoft YaHei_MSFontService,sans-serif" font-weight="400" font-size="46" transform="matrix(1 0 0 1 1771.04 1519)">0xf4 0x01</text><path d="M2076.5 1115C2076.5 1105.89 2083.89 1098.5 2093 1098.5L2359 1098.5C2368.11 1098.5 2375.5 1105.89 2375.5 1115L2375.5 1115C2375.5 1124.11 2368.11 1131.5 2359 1131.5L2093 1131.5C2083.89 1131.5 2076.5 1124.11 2076.5 1115Z" stroke="#8843AB" stroke-width="4.58333" stroke-miterlimit="8" fill="#8843AB" fill-rule="evenodd"/><path d="M2076.5 1162.83C2076.5 1146.08 2090.08 1132.5 2106.83 1132.5L2345.17 1132.5C2361.92 1132.5 2375.5 1146.08 2375.5 1162.83L2375.5 1284.17C2375.5 1300.92 2361.92 1314.5 2345.17 1314.5L2106.83 1314.5C2090.08 1314.5 2076.5 1300.92 2076.5 1284.17Z" stroke="#8843AB" stroke-width="4.58333" stroke-miterlimit="8" fill="#CCCCFF" fill-rule="evenodd"/><text fill="#404040" font-family="Microsoft YaHei,Microsoft YaHei_MSFontService,sans-serif" font-weight="700" font-size="55" transform="matrix(1 0 0 1 2088.37 1200)">checksum</text><text fill="#404040" font-family="Microsoft YaHei,Microsoft YaHei_MSFontService,sans-serif" font-weight="400" font-size="46" transform="matrix(1 0 0 1 2161.7 1287)">[7] 1B</text><path d="M2074.5 1450.5C2074.5 1436.14 2086.14 1424.5 2100.5 1424.5L2346.5 1424.5C2360.86 1424.5 2372.5 1436.14 2372.5 1450.5L2372.5 1554.5C2372.5 1568.86 2360.86 1580.5 2346.5 1580.5L2100.5 1580.5C2086.14 1580.5 2074.5 1568.86 2074.5 1554.5Z" stroke="#8843AB" stroke-width="4.58333" stroke-miterlimit="8" fill="none" fill-rule="evenodd"/><text fill="#404040" font-family="Microsoft YaHei,Microsoft YaHei_MSFontService,sans-serif" font-weight="400" font-size="46" transform="matrix(1 0 0 1 2176.28 1519)">0x</text><text fill="#404040" font-family="Microsoft YaHei,Microsoft YaHei_MSFontService,sans-serif" font-weight="400" font-size="46" transform="matrix(1 0 0 1 2226.7 1519)">5f</text></g></svg>