<svg width="3846" height="591" xmlns="http://www.w3.org/2000/svg" xmlns:xlink="http://www.w3.org/1999/xlink" xml:space="preserve" overflow="hidden"><g transform="translate(-365 -992)"><path d="M393.5 1115C393.5 1105.89 400.887 1098.5 410 1098.5L767 1098.5C776.113 1098.5 783.5 1105.89 783.5 1115L783.5 1115C783.5 1124.11 776.113 1131.5 767 1131.5L410 1131.5C400.887 1131.5 393.5 1124.11 393.5 1115Z" stroke="#2E54A1" stroke-width="4.58333" stroke-miterlimit="8" fill="#2E54A1" fill-rule="evenodd"/><path d="M393.5 1162.83C393.5 1146.08 407.081 1132.5 423.834 1132.5L753.166 1132.5C769.919 1132.5 783.5 1146.08 783.5 1162.83L783.5 1284.17C783.5 1300.92 769.919 1314.5 753.166 1314.5L423.834 1314.5C407.081 1314.5 393.5 1300.92 393.5 1284.17Z" stroke="#2E54A1" stroke-width="4.58333" stroke-miterlimit="8" fill="#B6C7EA" fill-rule="evenodd"/><text fill="#404040" font-family="Microsoft YaHei,Microsoft YaHei_MSFontService,sans-serif" font-weight="700" font-size="55" transform="matrix(1 0 0 1 492.138 1200)">header</text><text fill="#404040" font-family="Microsoft YaHei,Microsoft YaHei_MSFontService,sans-serif" font-weight="400" font-size="46" transform="matrix(1 0 0 1 500.731 1287)">[0</text><text fill="#404040" font-family="Microsoft YaHei,Microsoft YaHei_MSFontService,sans-serif" font-weight="400" font-size="46" transform="matrix(1 0 0 1 543.127 1287)">-</text><text fill="#404040" font-family="Microsoft YaHei,Microsoft YaHei_MSFontService,sans-serif" font-weight="400" font-size="46" transform="matrix(1 0 0 1 563.179 1287)">1] 2B</text><path d="M784.5 1115C784.5 1105.89 791.887 1098.5 801 1098.5L1067 1098.5C1076.11 1098.5 1083.5 1105.89 1083.5 1115L1083.5 1115C1083.5 1124.11 1076.11 1131.5 1067 1131.5L801 1131.5C791.887 1131.5 784.5 1124.11 784.5 1115Z" stroke="#2E54A1" stroke-width="4.58333" stroke-miterlimit="8" fill="#2E54A1" fill-rule="evenodd"/><path d="M784.5 1162.83C784.5 1146.08 798.081 1132.5 814.834 1132.5L1053.17 1132.5C1069.92 1132.5 1083.5 1146.08 1083.5 1162.83L1083.5 1284.17C1083.5 1300.92 1069.92 1314.5 1053.17 1314.5L814.834 1314.5C798.081 1314.5 784.5 1300.92 784.5 1284.17Z" stroke="#2E54A1" stroke-width="4.58333" stroke-miterlimit="8" fill="#B6C7EA" fill-rule="evenodd"/><text fill="#404040" font-family="Microsoft YaHei,Microsoft YaHei_MSFontService,sans-serif" font-weight="700" font-size="55" transform="matrix(1 0 0 1 835.4 1200)">cmd_id</text><text fill="#404040" font-family="Microsoft YaHei,Microsoft YaHei_MSFontService,sans-serif" font-weight="400" font-size="46" transform="matrix(1 0 0 1 870.05 1287)">[2] 1B</text><path d="M1083.5 1115C1083.5 1105.89 1090.89 1098.5 1100 1098.5L1366 1098.5C1375.11 1098.5 1382.5 1105.89 1382.5 1115L1382.5 1115C1382.5 1124.11 1375.11 1131.5 1366 1131.5L1100 1131.5C1090.89 1131.5 1083.5 1124.11 1083.5 1115Z" stroke="#2E54A1" stroke-width="4.58333" stroke-miterlimit="8" fill="#2E54A1" fill-rule="evenodd"/><path d="M1083.5 1162.83C1083.5 1146.08 1097.08 1132.5 1113.83 1132.5L1352.17 1132.5C1368.92 1132.5 1382.5 1146.08 1382.5 1162.83L1382.5 1284.17C1382.5 1300.92 1368.92 1314.5 1352.17 1314.5L1113.83 1314.5C1097.08 1314.5 1083.5 1300.92 1083.5 1284.17Z" stroke="#2E54A1" stroke-width="4.58333" stroke-miterlimit="8" fill="#B6C7EA" fill-rule="evenodd"/><text fill="#404040" font-family="Microsoft YaHei,Microsoft YaHei_MSFontService,sans-serif" font-weight="700" font-size="55" transform="matrix(1 0 0 1 1143.1 1200)">length</text><text fill="#404040" font-family="Microsoft YaHei,Microsoft YaHei_MSFontService,sans-serif" font-weight="400" font-size="46" transform="matrix(1 0 0 1 1168.88 1287)">[3] 1B</text><text fill="#404040" font-family="Microsoft YaHei,Microsoft YaHei_MSFontService,sans-serif" font-weight="400" font-size="50" transform="matrix(1 0 0 1 398.184 1065)">Command</text><path d="M1682.5 1115C1682.5 1105.89 1689.89 1098.5 1699 1098.5L2186 1098.5C2195.11 1098.5 2202.5 1105.89 2202.5 1115L2202.5 1115C2202.5 1124.11 2195.11 1131.5 2186 1131.5L1699 1131.5C1689.89 1131.5 1682.5 1124.11 1682.5 1115Z" stroke="#75BD42" stroke-width="4.58333" stroke-miterlimit="8" fill="#75BD42" fill-rule="evenodd"/><path d="M1682.5 1162.83C1682.5 1146.08 1696.08 1132.5 1712.83 1132.5L2172.17 1132.5C2188.92 1132.5 2202.5 1146.08 2202.5 1162.83L2202.5 1284.17C2202.5 1300.92 2188.92 1314.5 2172.17 1314.5L1712.83 1314.5C1696.08 1314.5 1682.5 1300.92 1682.5 1284.17Z" stroke="#75BD42" stroke-width="4.58333" stroke-miterlimit="8" fill="#C8E5B3" fill-rule="evenodd"/><text fill="#404040" font-family="Microsoft YaHei,Microsoft YaHei_MSFontService,sans-serif" font-weight="700" font-size="55" transform="matrix(1 0 0 1 1828.94 1200)">position</text><text fill="#404040" font-family="Microsoft YaHei,Microsoft YaHei_MSFontService,sans-serif" font-weight="400" font-size="46" transform="matrix(1 0 0 1 1855.02 1287)">[5</text><text fill="#404040" font-family="Microsoft YaHei,Microsoft YaHei_MSFontService,sans-serif" font-weight="400" font-size="46" transform="matrix(1 0 0 1 1897.42 1287)">-</text><text fill="#404040" font-family="Microsoft YaHei,Microsoft YaHei_MSFontService,sans-serif" font-weight="400" font-size="46" transform="matrix(1 0 0 1 1917.47 1287)">8] 4B</text><path d="M2202.5 1116C2202.5 1106.89 2209.89 1099.5 2219 1099.5L2706 1099.5C2715.11 1099.5 2722.5 1106.89 2722.5 1116L2722.5 1116C2722.5 1125.11 2715.11 1132.5 2706 1132.5L2219 1132.5C2209.89 1132.5 2202.5 1125.11 2202.5 1116Z" stroke="#75BD42" stroke-width="4.58333" stroke-miterlimit="8" fill="#75BD42" fill-rule="evenodd"/><path d="M2202.5 1163.83C2202.5 1147.08 2216.08 1133.5 2232.83 1133.5L2692.17 1133.5C2708.92 1133.5 2722.5 1147.08 2722.5 1163.83L2722.5 1285.17C2722.5 1301.92 2708.92 1315.5 2692.17 1315.5L2232.83 1315.5C2216.08 1315.5 2202.5 1301.92 2202.5 1285.17Z" stroke="#75BD42" stroke-width="4.58333" stroke-miterlimit="8" fill="#C8E5B3" fill-rule="evenodd"/><text fill="#404040" font-family="Microsoft YaHei,Microsoft YaHei_MSFontService,sans-serif" font-weight="700" font-size="55" transform="matrix(1 0 0 1 2399.34 1201)">time</text><text fill="#404040" font-family="Microsoft YaHei,Microsoft YaHei_MSFontService,sans-serif" font-weight="400" font-size="46" transform="matrix(1 0 0 1 2361.23 1288)">[9</text><text fill="#404040" font-family="Microsoft YaHei,Microsoft YaHei_MSFontService,sans-serif" font-weight="400" font-size="46" transform="matrix(1 0 0 1 2403.63 1288)">-</text><text fill="#404040" font-family="Microsoft YaHei,Microsoft YaHei_MSFontService,sans-serif" font-weight="400" font-size="46" transform="matrix(1 0 0 1 2423.68 1288)">12] 4B</text><path d="M3501.5 1117C3501.5 1107.89 3508.89 1100.5 3518 1100.5L3875 1100.5C3884.11 1100.5 3891.5 1107.89 3891.5 1117L3891.5 1117C3891.5 1126.11 3884.11 1133.5 3875 1133.5L3518 1133.5C3508.89 1133.5 3501.5 1126.11 3501.5 1117Z" stroke="#75BD42" stroke-width="4.58333" stroke-miterlimit="8" fill="#75BD42" fill-rule="evenodd"/><path d="M3501.5 1164.83C3501.5 1148.08 3515.08 1134.5 3531.83 1134.5L3861.17 1134.5C3877.92 1134.5 3891.5 1148.08 3891.5 1164.83L3891.5 1286.17C3891.5 1302.92 3877.92 1316.5 3861.17 1316.5L3531.83 1316.5C3515.08 1316.5 3501.5 1302.92 3501.5 1286.17Z" stroke="#75BD42" stroke-width="4.58333" stroke-miterlimit="8" fill="#C8E5B3" fill-rule="evenodd"/><text fill="#404040" font-family="Microsoft YaHei,Microsoft YaHei_MSFontService,sans-serif" font-weight="700" font-size="55" transform="matrix(1 0 0 1 3608.51 1202)">power</text><text fill="#404040" font-family="Microsoft YaHei,Microsoft YaHei_MSFontService,sans-serif" font-weight="400" font-size="46" transform="matrix(1 0 0 1 3582.02 1289)">[</text><text fill="#404040" font-family="Microsoft YaHei,Microsoft YaHei_MSFontService,sans-serif" font-weight="400" font-size="46" transform="matrix(1 0 0 1 3597.49 1289)">1</text><text fill="#404040" font-family="Microsoft YaHei,Microsoft YaHei_MSFontService,sans-serif" font-weight="400" font-size="46" transform="matrix(1 0 0 1 3624.42 1289)">7</text><text fill="#404040" font-family="Microsoft YaHei,Microsoft YaHei_MSFontService,sans-serif" font-weight="400" font-size="46" transform="matrix(1 0 0 1 3651.34 1289)">-</text><text fill="#404040" font-family="Microsoft YaHei,Microsoft YaHei_MSFontService,sans-serif" font-weight="400" font-size="46" transform="matrix(1 0 0 1 3671.4 1289)">1</text><text fill="#404040" font-family="Microsoft YaHei,Microsoft YaHei_MSFontService,sans-serif" font-weight="400" font-size="46" transform="matrix(1 0 0 1 3698.32 1289)">8</text><text fill="#404040" font-family="Microsoft YaHei,Microsoft YaHei_MSFontService,sans-serif" font-weight="400" font-size="46" transform="matrix(1 0 0 1 3725.25 1289)">] </text><text fill="#404040" font-family="Microsoft YaHei,Microsoft YaHei_MSFontService,sans-serif" font-weight="400" font-size="46" transform="matrix(1 0 0 1 3754.47 1289)">2B</text><path d="M391.5 1450.5C391.5 1436.14 403.141 1424.5 417.5 1424.5L755.499 1424.5C769.859 1424.5 781.5 1436.14 781.5 1450.5L781.5 1554.5C781.5 1568.86 769.859 1580.5 755.499 1580.5L417.5 1580.5C403.141 1580.5 391.5 1568.86 391.5 1554.5Z" stroke="#2E54A1" stroke-width="4.58333" stroke-miterlimit="8" fill="none" fill-rule="evenodd"/><text fill="#404040" font-family="Microsoft YaHei,Microsoft YaHei_MSFontService,sans-serif" font-weight="400" font-size="46" transform="matrix(1 0 0 1 476.738 1519)">0x12 0x4c</text><path d="M1680.5 1450.5C1680.5 1436.14 1692.14 1424.5 1706.5 1424.5L2174.5 1424.5C2188.86 1424.5 2200.5 1436.14 2200.5 1450.5L2200.5 1554.5C2200.5 1568.86 2188.86 1580.5 2174.5 1580.5L1706.5 1580.5C1692.14 1580.5 1680.5 1568.86 1680.5 1554.5Z" stroke="#75BD42" stroke-width="4.58333" stroke-miterlimit="8" fill="none" fill-rule="evenodd"/><text fill="#404040" font-family="Microsoft YaHei,Microsoft YaHei_MSFontService,sans-serif" font-weight="400" font-size="46" transform="matrix(1 0 0 1 1710.99 1519)">0x70 0x17 0x00 0x00</text><path d="M782.5 1450.5C782.5 1436.14 794.141 1424.5 808.501 1424.5L1055.5 1424.5C1069.86 1424.5 1081.5 1436.14 1081.5 1450.5L1081.5 1554.5C1081.5 1568.86 1069.86 1580.5 1055.5 1580.5L808.501 1580.5C794.141 1580.5 782.5 1568.86 782.5 1554.5Z" stroke="#2E54A1" stroke-width="4.58333" stroke-miterlimit="8" fill="none" fill-rule="evenodd"/><text fill="#404040" font-family="Microsoft YaHei,Microsoft YaHei_MSFontService,sans-serif" font-weight="400" font-size="46" transform="matrix(1 0 0 1 880.157 1519)">0x0</text><text fill="#404040" font-family="Microsoft YaHei,Microsoft YaHei_MSFontService,sans-serif" font-weight="400" font-size="46" transform="matrix(1 0 0 1 957.5 1519)">e</text><path d="M1081.5 1450.5C1081.5 1436.14 1093.14 1424.5 1107.5 1424.5L1354.5 1424.5C1368.86 1424.5 1380.5 1436.14 1380.5 1450.5L1380.5 1554.5C1380.5 1568.86 1368.86 1580.5 1354.5 1580.5L1107.5 1580.5C1093.14 1580.5 1081.5 1568.86 1081.5 1554.5Z" stroke="#2E54A1" stroke-width="4.58333" stroke-miterlimit="8" fill="none" fill-rule="evenodd"/><text fill="#404040" font-family="Microsoft YaHei,Microsoft YaHei_MSFontService,sans-serif" font-weight="400" font-size="46" transform="matrix(1 0 0 1 1183.85 1519)">0x0</text><text fill="#404040" font-family="Microsoft YaHei,Microsoft YaHei_MSFontService,sans-serif" font-weight="400" font-size="46" transform="matrix(1 0 0 1 1261.19 1519)">f</text><text fill="#404040" font-family="Microsoft YaHei,Microsoft YaHei_MSFontService,sans-serif" font-weight="400" font-size="50" transform="matrix(1 0 0 1 396.249 1389)">Example Values</text><path d="M2200.5 1450.5C2200.5 1436.14 2212.14 1424.5 2226.5 1424.5L2694.5 1424.5C2708.86 1424.5 2720.5 1436.14 2720.5 1450.5L2720.5 1554.5C2720.5 1568.86 2708.86 1580.5 2694.5 1580.5L2226.5 1580.5C2212.14 1580.5 2200.5 1568.86 2200.5 1554.5Z" stroke="#75BD42" stroke-width="4.58333" stroke-miterlimit="8" fill="none" fill-rule="evenodd"/><text fill="#404040" font-family="Microsoft YaHei,Microsoft YaHei_MSFontService,sans-serif" font-weight="400" font-size="46" transform="matrix(1 0 0 1 2229.53 1518)">0xb0 0x04 0x00 0x00</text><path d="M3499.5 1450.5C3499.5 1436.14 3511.14 1424.5 3525.5 1424.5L3863.5 1424.5C3877.86 1424.5 3889.5 1436.14 3889.5 1450.5L3889.5 1554.5C3889.5 1568.86 3877.86 1580.5 3863.5 1580.5L3525.5 1580.5C3511.14 1580.5 3499.5 1568.86 3499.5 1554.5Z" stroke="#75BD42" stroke-width="4.58333" stroke-miterlimit="8" fill="none" fill-rule="evenodd"/><text fill="#404040" font-family="Microsoft YaHei,Microsoft YaHei_MSFontService,sans-serif" font-weight="400" font-size="46" transform="matrix(1 0 0 1 3582.95 1518)">0x00 0x00</text><path d="M3889.5 1450.5C3889.5 1436.14 3901.14 1424.5 3915.5 1424.5L4162.5 1424.5C4176.86 1424.5 4188.5 1436.14 4188.5 1450.5L4188.5 1554.5C4188.5 1568.86 4176.86 1580.5 4162.5 1580.5L3915.5 1580.5C3901.14 1580.5 3889.5 1568.86 3889.5 1554.5Z" stroke="#8843AB" stroke-width="4.58333" stroke-miterlimit="8" fill="none" fill-rule="evenodd"/><text fill="#404040" font-family="Microsoft YaHei,Microsoft YaHei_MSFontService,sans-serif" font-weight="400" font-size="46" transform="matrix(1 0 0 1 3986.82 1518)">0x</text><text fill="#404040" font-family="Microsoft YaHei,Microsoft YaHei_MSFontService,sans-serif" font-weight="400" font-size="46" transform="matrix(1 0 0 1 4037.24 1518)">7e</text><path d="M3891.5 1164.83C3891.5 1148.08 3905.08 1134.5 3921.83 1134.5L4160.17 1134.5C4176.92 1134.5 4190.5 1148.08 4190.5 1164.83L4190.5 1286.17C4190.5 1302.92 4176.92 1316.5 4160.17 1316.5L3921.83 1316.5C3905.08 1316.5 3891.5 1302.92 3891.5 1286.17Z" stroke="#8843AB" stroke-width="4.58333" stroke-miterlimit="8" fill="#CCCCFF" fill-rule="evenodd"/><text fill="#404040" font-family="Microsoft YaHei,Microsoft YaHei_MSFontService,sans-serif" font-weight="700" font-size="55" transform="matrix(1 0 0 1 3903.4 1202)">checksum</text><text fill="#404040" font-family="Microsoft YaHei,Microsoft YaHei_MSFontService,sans-serif" font-weight="400" font-size="46" transform="matrix(1 0 0 1 3963.25 1289)">[</text><text fill="#404040" font-family="Microsoft YaHei,Microsoft YaHei_MSFontService,sans-serif" font-weight="400" font-size="46" transform="matrix(1 0 0 1 3978.72 1289)">1</text><text fill="#404040" font-family="Microsoft YaHei,Microsoft YaHei_MSFontService,sans-serif" font-weight="400" font-size="46" transform="matrix(1 0 0 1 4005.65 1289)">9</text><text fill="#404040" font-family="Microsoft YaHei,Microsoft YaHei_MSFontService,sans-serif" font-weight="400" font-size="46" transform="matrix(1 0 0 1 4032.58 1289)">] </text><text fill="#404040" font-family="Microsoft YaHei,Microsoft YaHei_MSFontService,sans-serif" font-weight="400" font-size="46" transform="matrix(1 0 0 1 4061.8 1289)">1B</text><path d="M3891.5 1117C3891.5 1107.89 3898.89 1100.5 3908 1100.5L4174 1100.5C4183.11 1100.5 4190.5 1107.89 4190.5 1117L4190.5 1117C4190.5 1126.11 4183.11 1133.5 4174 1133.5L3908 1133.5C3898.89 1133.5 3891.5 1126.11 3891.5 1117Z" stroke="#8843AB" stroke-width="4.58333" stroke-miterlimit="8" fill="#8843AB" fill-rule="evenodd"/><path d="M1383.5 1115C1383.5 1105.89 1390.89 1098.5 1400 1098.5L1666 1098.5C1675.11 1098.5 1682.5 1105.89 1682.5 1115L1682.5 1115C1682.5 1124.11 1675.11 1131.5 1666 1131.5L1400 1131.5C1390.89 1131.5 1383.5 1124.11 1383.5 1115Z" stroke="#75BD42" stroke-width="4.58333" stroke-miterlimit="8" fill="#75BD42" fill-rule="evenodd"/><path d="M1383.5 1162.83C1383.5 1146.08 1397.08 1132.5 1413.83 1132.5L1652.17 1132.5C1668.92 1132.5 1682.5 1146.08 1682.5 1162.83L1682.5 1284.17C1682.5 1300.92 1668.92 1314.5 1652.17 1314.5L1413.83 1314.5C1397.08 1314.5 1383.5 1300.92 1383.5 1284.17Z" stroke="#75BD42" stroke-width="4.58333" stroke-miterlimit="8" fill="#C8E5B3" fill-rule="evenodd"/><text fill="#404040" font-family="Microsoft YaHei,Microsoft YaHei_MSFontService,sans-serif" font-weight="700" font-size="55" transform="matrix(1 0 0 1 1418.24 1200)">servo_id</text><text fill="#404040" font-family="Microsoft YaHei,Microsoft YaHei_MSFontService,sans-serif" font-weight="400" font-size="46" transform="matrix(1 0 0 1 1469.25 1287)">[4] 1B</text><path d="M1381.5 1450.5C1381.5 1436.14 1393.14 1424.5 1407.5 1424.5L1654.5 1424.5C1668.86 1424.5 1680.5 1436.14 1680.5 1450.5L1680.5 1554.5C1680.5 1568.86 1668.86 1580.5 1654.5 1580.5L1407.5 1580.5C1393.14 1580.5 1381.5 1568.86 1381.5 1554.5Z" stroke="#75BD42" stroke-width="4.58333" stroke-miterlimit="8" fill="none" fill-rule="evenodd"/><text fill="#404040" font-family="Microsoft YaHei,Microsoft YaHei_MSFontService,sans-serif" font-weight="400" font-size="46" transform="matrix(1 0 0 1 1478.77 1519)">0x00</text><path d="M2722.5 1116C2722.5 1106.89 2729.89 1099.5 2739 1099.5L3095 1099.5C3104.11 1099.5 3111.5 1106.89 3111.5 1116L3111.5 1116C3111.5 1125.11 3104.11 1132.5 3095 1132.5L2739 1132.5C2729.89 1132.5 2722.5 1125.11 2722.5 1116Z" stroke="#75BD42" stroke-width="4.58333" stroke-miterlimit="8" fill="#75BD42" fill-rule="evenodd"/><path d="M2722.5 1163.83C2722.5 1147.08 2736.08 1133.5 2752.83 1133.5L3081.17 1133.5C3097.92 1133.5 3111.5 1147.08 3111.5 1163.83L3111.5 1285.17C3111.5 1301.92 3097.92 1315.5 3081.17 1315.5L2752.83 1315.5C2736.08 1315.5 2722.5 1301.92 2722.5 1285.17Z" stroke="#75BD42" stroke-width="4.58333" stroke-miterlimit="8" fill="#C8E5B3" fill-rule="evenodd"/><text fill="#404040" font-family="Microsoft YaHei,Microsoft YaHei_MSFontService,sans-serif" font-weight="700" font-size="55" transform="matrix(1 0 0 1 2848.05 1201)">accel</text><text fill="#404040" font-family="Microsoft YaHei,Microsoft YaHei_MSFontService,sans-serif" font-weight="400" font-size="46" transform="matrix(1 0 0 1 2802.49 1288)">[</text><text fill="#404040" font-family="Microsoft YaHei,Microsoft YaHei_MSFontService,sans-serif" font-weight="400" font-size="46" transform="matrix(1 0 0 1 2817.96 1288)">13</text><text fill="#404040" font-family="Microsoft YaHei,Microsoft YaHei_MSFontService,sans-serif" font-weight="400" font-size="46" transform="matrix(1 0 0 1 2871.82 1288)">-</text><text fill="#404040" font-family="Microsoft YaHei,Microsoft YaHei_MSFontService,sans-serif" font-weight="400" font-size="46" transform="matrix(1 0 0 1 2891.87 1288)">1</text><text fill="#404040" font-family="Microsoft YaHei,Microsoft YaHei_MSFontService,sans-serif" font-weight="400" font-size="46" transform="matrix(1 0 0 1 2918.8 1288)">4</text><text fill="#404040" font-family="Microsoft YaHei,Microsoft YaHei_MSFontService,sans-serif" font-weight="400" font-size="46" transform="matrix(1 0 0 1 2945.72 1288)">] </text><text fill="#404040" font-family="Microsoft YaHei,Microsoft YaHei_MSFontService,sans-serif" font-weight="400" font-size="46" transform="matrix(1 0 0 1 2974.94 1288)">2B</text><path d="M2720.5 1450.5C2720.5 1436.14 2732.14 1424.5 2746.5 1424.5L3083.5 1424.5C3097.86 1424.5 3109.5 1436.14 3109.5 1450.5L3109.5 1554.5C3109.5 1568.86 3097.86 1580.5 3083.5 1580.5L2746.5 1580.5C2732.14 1580.5 2720.5 1568.86 2720.5 1554.5Z" stroke="#75BD42" stroke-width="4.58333" stroke-miterlimit="8" fill="none" fill-rule="evenodd"/><text fill="#404040" font-family="Microsoft YaHei,Microsoft YaHei_MSFontService,sans-serif" font-weight="400" font-size="46" transform="matrix(1 0 0 1 2803.42 1518)">0x64 0x00</text><path d="M3111.5 1116C3111.5 1106.89 3118.89 1099.5 3128 1099.5L3485 1099.5C3494.11 1099.5 3501.5 1106.89 3501.5 1116L3501.5 1116C3501.5 1125.11 3494.11 1132.5 3485 1132.5L3128 1132.5C3118.89 1132.5 3111.5 1125.11 3111.5 1116Z" stroke="#75BD42" stroke-width="4.58333" stroke-miterlimit="8" fill="#75BD42" fill-rule="evenodd"/><path d="M3111.5 1163.83C3111.5 1147.08 3125.08 1133.5 3141.83 1133.5L3471.17 1133.5C3487.92 1133.5 3501.5 1147.08 3501.5 1163.83L3501.5 1285.17C3501.5 1301.92 3487.92 1315.5 3471.17 1315.5L3141.83 1315.5C3125.08 1315.5 3111.5 1301.92 3111.5 1285.17Z" stroke="#75BD42" stroke-width="4.58333" stroke-miterlimit="8" fill="#C8E5B3" fill-rule="evenodd"/><text fill="#404040" font-family="Microsoft YaHei,Microsoft YaHei_MSFontService,sans-serif" font-weight="700" font-size="55" transform="matrix(1 0 0 1 3233.51 1201)">decel</text><text fill="#404040" font-family="Microsoft YaHei,Microsoft YaHei_MSFontService,sans-serif" font-weight="400" font-size="46" transform="matrix(1 0 0 1 3192.26 1288)">[1</text><text fill="#404040" font-family="Microsoft YaHei,Microsoft YaHei_MSFontService,sans-serif" font-weight="400" font-size="46" transform="matrix(1 0 0 1 3234.65 1288)">5</text><text fill="#404040" font-family="Microsoft YaHei,Microsoft YaHei_MSFontService,sans-serif" font-weight="400" font-size="46" transform="matrix(1 0 0 1 3261.58 1288)">-</text><text fill="#404040" font-family="Microsoft YaHei,Microsoft YaHei_MSFontService,sans-serif" font-weight="400" font-size="46" transform="matrix(1 0 0 1 3281.63 1288)">1</text><text fill="#404040" font-family="Microsoft YaHei,Microsoft YaHei_MSFontService,sans-serif" font-weight="400" font-size="46" transform="matrix(1 0 0 1 3308.56 1288)">6</text><text fill="#404040" font-family="Microsoft YaHei,Microsoft YaHei_MSFontService,sans-serif" font-weight="400" font-size="46" transform="matrix(1 0 0 1 3335.49 1288)">] </text><text fill="#404040" font-family="Microsoft YaHei,Microsoft YaHei_MSFontService,sans-serif" font-weight="400" font-size="46" transform="matrix(1 0 0 1 3364.7 1288)">2B</text><path d="M3109.5 1450.5C3109.5 1436.14 3121.14 1424.5 3135.5 1424.5L3473.5 1424.5C3487.86 1424.5 3499.5 1436.14 3499.5 1450.5L3499.5 1554.5C3499.5 1568.86 3487.86 1580.5 3473.5 1580.5L3135.5 1580.5C3121.14 1580.5 3109.5 1568.86 3109.5 1554.5Z" stroke="#75BD42" stroke-width="4.58333" stroke-miterlimit="8" fill="none" fill-rule="evenodd"/><text fill="#404040" font-family="Microsoft YaHei,Microsoft YaHei_MSFontService,sans-serif" font-weight="400" font-size="46" transform="matrix(1 0 0 1 3193.19 1518)">0x64 0x00</text></g></svg>