<svg width="3586" height="592" xmlns="http://www.w3.org/2000/svg" xmlns:xlink="http://www.w3.org/1999/xlink" xml:space="preserve" overflow="hidden"><g transform="translate(-365 -992)"><path d="M393.5 1115C393.5 1105.89 400.887 1098.5 410 1098.5L767 1098.5C776.113 1098.5 783.5 1105.89 783.5 1115L783.5 1115C783.5 1124.11 776.113 1131.5 767 1131.5L410 1131.5C400.887 1131.5 393.5 1124.11 393.5 1115Z" stroke="#2E54A1" stroke-width="4.58333" stroke-miterlimit="8" fill="#2E54A1" fill-rule="evenodd"/><path d="M393.5 1162.83C393.5 1146.08 407.081 1132.5 423.834 1132.5L753.166 1132.5C769.919 1132.5 783.5 1146.08 783.5 1162.83L783.5 1284.17C783.5 1300.92 769.919 1314.5 753.166 1314.5L423.834 1314.5C407.081 1314.5 393.5 1300.92 393.5 1284.17Z" stroke="#2E54A1" stroke-width="4.58333" stroke-miterlimit="8" fill="#B6C7EA" fill-rule="evenodd"/><text fill="#404040" font-family="Microsoft YaHei,Microsoft YaHei_MSFontService,sans-serif" font-weight="700" font-size="55" transform="matrix(1 0 0 1 492.138 1200)">header</text><text fill="#404040" font-family="Microsoft YaHei,Microsoft YaHei_MSFontService,sans-serif" font-weight="400" font-size="46" transform="matrix(1 0 0 1 500.731 1287)">[0</text><text fill="#404040" font-family="Microsoft YaHei,Microsoft YaHei_MSFontService,sans-serif" font-weight="400" font-size="46" transform="matrix(1 0 0 1 543.127 1287)">-</text><text fill="#404040" font-family="Microsoft YaHei,Microsoft YaHei_MSFontService,sans-serif" font-weight="400" font-size="46" transform="matrix(1 0 0 1 563.179 1287)">1] 2B</text><path d="M784.5 1115C784.5 1105.89 791.887 1098.5 801 1098.5L1067 1098.5C1076.11 1098.5 1083.5 1105.89 1083.5 1115L1083.5 1115C1083.5 1124.11 1076.11 1131.5 1067 1131.5L801 1131.5C791.887 1131.5 784.5 1124.11 784.5 1115Z" stroke="#2E54A1" stroke-width="4.58333" stroke-miterlimit="8" fill="#2E54A1" fill-rule="evenodd"/><path d="M784.5 1162.83C784.5 1146.08 798.081 1132.5 814.834 1132.5L1053.17 1132.5C1069.92 1132.5 1083.5 1146.08 1083.5 1162.83L1083.5 1284.17C1083.5 1300.92 1069.92 1314.5 1053.17 1314.5L814.834 1314.5C798.081 1314.5 784.5 1300.92 784.5 1284.17Z" stroke="#2E54A1" stroke-width="4.58333" stroke-miterlimit="8" fill="#B6C7EA" fill-rule="evenodd"/><text fill="#404040" font-family="Microsoft YaHei,Microsoft YaHei_MSFontService,sans-serif" font-weight="700" font-size="55" transform="matrix(1 0 0 1 835.4 1200)">cmd_id</text><text fill="#404040" font-family="Microsoft YaHei,Microsoft YaHei_MSFontService,sans-serif" font-weight="400" font-size="46" transform="matrix(1 0 0 1 870.05 1287)">[2] 1B</text><path d="M1083.5 1115C1083.5 1105.89 1090.89 1098.5 1100 1098.5L1366 1098.5C1375.11 1098.5 1382.5 1105.89 1382.5 1115L1382.5 1115C1382.5 1124.11 1375.11 1131.5 1366 1131.5L1100 1131.5C1090.89 1131.5 1083.5 1124.11 1083.5 1115Z" stroke="#2E54A1" stroke-width="4.58333" stroke-miterlimit="8" fill="#2E54A1" fill-rule="evenodd"/><path d="M1083.5 1162.83C1083.5 1146.08 1097.08 1132.5 1113.83 1132.5L1352.17 1132.5C1368.92 1132.5 1382.5 1146.08 1382.5 1162.83L1382.5 1284.17C1382.5 1300.92 1368.92 1314.5 1352.17 1314.5L1113.83 1314.5C1097.08 1314.5 1083.5 1300.92 1083.5 1284.17Z" stroke="#2E54A1" stroke-width="4.58333" stroke-miterlimit="8" fill="#B6C7EA" fill-rule="evenodd"/><text fill="#404040" font-family="Microsoft YaHei,Microsoft YaHei_MSFontService,sans-serif" font-weight="700" font-size="55" transform="matrix(1 0 0 1 1143.1 1200)">length</text><text fill="#404040" font-family="Microsoft YaHei,Microsoft YaHei_MSFontService,sans-serif" font-weight="400" font-size="46" transform="matrix(1 0 0 1 1168.88 1287)">[3] 1B</text><text fill="#404040" font-family="Microsoft YaHei,Microsoft YaHei_MSFontService,sans-serif" font-weight="400" font-size="50" transform="matrix(1 0 0 1 398.184 1065)">Command</text><path d="M1682.5 1115C1682.5 1105.89 1689.89 1098.5 1699 1098.5L2056 1098.5C2065.11 1098.5 2072.5 1105.89 2072.5 1115L2072.5 1115C2072.5 1124.11 2065.11 1131.5 2056 1131.5L1699 1131.5C1689.89 1131.5 1682.5 1124.11 1682.5 1115Z" stroke="#75BD42" stroke-width="4.58333" stroke-miterlimit="8" fill="#75BD42" fill-rule="evenodd"/><path d="M1682.5 1162.83C1682.5 1146.08 1696.08 1132.5 1712.83 1132.5L2042.17 1132.5C2058.92 1132.5 2072.5 1146.08 2072.5 1162.83L2072.5 1284.17C2072.5 1300.92 2058.92 1314.5 2042.17 1314.5L1712.83 1314.5C1696.08 1314.5 1682.5 1300.92 1682.5 1284.17Z" stroke="#75BD42" stroke-width="4.58333" stroke-miterlimit="8" fill="#C8E5B3" fill-rule="evenodd"/><text fill="#404040" font-family="Microsoft YaHei,Microsoft YaHei_MSFontService,sans-serif" font-weight="700" font-size="55" transform="matrix(1 0 0 1 1763.98 1200)">position</text><text fill="#404040" font-family="Microsoft YaHei,Microsoft YaHei_MSFontService,sans-serif" font-weight="400" font-size="46" transform="matrix(1 0 0 1 1790.04 1287)">[5</text><text fill="#404040" font-family="Microsoft YaHei,Microsoft YaHei_MSFontService,sans-serif" font-weight="400" font-size="46" transform="matrix(1 0 0 1 1832.43 1287)">-</text><text fill="#404040" font-family="Microsoft YaHei,Microsoft YaHei_MSFontService,sans-serif" font-weight="400" font-size="46" transform="matrix(1 0 0 1 1852.49 1287)">6] 2B</text><path d="M2072.5 1116C2072.5 1106.89 2079.89 1099.5 2089 1099.5L2446 1099.5C2455.11 1099.5 2462.5 1106.89 2462.5 1116L2462.5 1116C2462.5 1125.11 2455.11 1132.5 2446 1132.5L2089 1132.5C2079.89 1132.5 2072.5 1125.11 2072.5 1116Z" stroke="#75BD42" stroke-width="4.58333" stroke-miterlimit="8" fill="#75BD42" fill-rule="evenodd"/><path d="M2072.5 1163.83C2072.5 1147.08 2086.08 1133.5 2102.83 1133.5L2432.17 1133.5C2448.92 1133.5 2462.5 1147.08 2462.5 1163.83L2462.5 1285.17C2462.5 1301.92 2448.92 1315.5 2432.17 1315.5L2102.83 1315.5C2086.08 1315.5 2072.5 1301.92 2072.5 1285.17Z" stroke="#75BD42" stroke-width="4.58333" stroke-miterlimit="8" fill="#C8E5B3" fill-rule="evenodd"/><text fill="#404040" font-family="Microsoft YaHei,Microsoft YaHei_MSFontService,sans-serif" font-weight="700" font-size="55" transform="matrix(1 0 0 1 2204.45 1201)">time</text><text fill="#404040" font-family="Microsoft YaHei,Microsoft YaHei_MSFontService,sans-serif" font-weight="400" font-size="46" transform="matrix(1 0 0 1 2179.81 1288)">[7</text><text fill="#404040" font-family="Microsoft YaHei,Microsoft YaHei_MSFontService,sans-serif" font-weight="400" font-size="46" transform="matrix(1 0 0 1 2222.21 1288)">-</text><text fill="#404040" font-family="Microsoft YaHei,Microsoft YaHei_MSFontService,sans-serif" font-weight="400" font-size="46" transform="matrix(1 0 0 1 2242.26 1288)">8] 2B</text><path d="M3241.5 1116C3241.5 1106.89 3248.89 1099.5 3258 1099.5L3615 1099.5C3624.11 1099.5 3631.5 1106.89 3631.5 1116L3631.5 1116C3631.5 1125.11 3624.11 1132.5 3615 1132.5L3258 1132.5C3248.89 1132.5 3241.5 1125.11 3241.5 1116Z" stroke="#75BD42" stroke-width="4.58333" stroke-miterlimit="8" fill="#75BD42" fill-rule="evenodd"/><path d="M3241.5 1163.83C3241.5 1147.08 3255.08 1133.5 3271.83 1133.5L3601.17 1133.5C3617.92 1133.5 3631.5 1147.08 3631.5 1163.83L3631.5 1285.17C3631.5 1301.92 3617.92 1315.5 3601.17 1315.5L3271.83 1315.5C3255.08 1315.5 3241.5 1301.92 3241.5 1285.17Z" stroke="#75BD42" stroke-width="4.58333" stroke-miterlimit="8" fill="#C8E5B3" fill-rule="evenodd"/><text fill="#404040" font-family="Microsoft YaHei,Microsoft YaHei_MSFontService,sans-serif" font-weight="700" font-size="55" transform="matrix(1 0 0 1 3348.67 1201)">power</text><text fill="#404040" font-family="Microsoft YaHei,Microsoft YaHei_MSFontService,sans-serif" font-weight="400" font-size="46" transform="matrix(1 0 0 1 3322.18 1288)">[</text><text fill="#404040" font-family="Microsoft YaHei,Microsoft YaHei_MSFontService,sans-serif" font-weight="400" font-size="46" transform="matrix(1 0 0 1 3337.65 1288)">13</text><text fill="#404040" font-family="Microsoft YaHei,Microsoft YaHei_MSFontService,sans-serif" font-weight="400" font-size="46" transform="matrix(1 0 0 1 3391.5 1288)">-</text><text fill="#404040" font-family="Microsoft YaHei,Microsoft YaHei_MSFontService,sans-serif" font-weight="400" font-size="46" transform="matrix(1 0 0 1 3411.55 1288)">1</text><text fill="#404040" font-family="Microsoft YaHei,Microsoft YaHei_MSFontService,sans-serif" font-weight="400" font-size="46" transform="matrix(1 0 0 1 3438.48 1288)">4</text><text fill="#404040" font-family="Microsoft YaHei,Microsoft YaHei_MSFontService,sans-serif" font-weight="400" font-size="46" transform="matrix(1 0 0 1 3465.41 1288)">] </text><text fill="#404040" font-family="Microsoft YaHei,Microsoft YaHei_MSFontService,sans-serif" font-weight="400" font-size="46" transform="matrix(1 0 0 1 3494.63 1288)">2B</text><path d="M391.5 1450.5C391.5 1436.14 403.141 1424.5 417.5 1424.5L755.499 1424.5C769.859 1424.5 781.5 1436.14 781.5 1450.5L781.5 1554.5C781.5 1568.86 769.859 1580.5 755.499 1580.5L417.5 1580.5C403.141 1580.5 391.5 1568.86 391.5 1554.5Z" stroke="#2E54A1" stroke-width="4.58333" stroke-miterlimit="8" fill="none" fill-rule="evenodd"/><text fill="#404040" font-family="Microsoft YaHei,Microsoft YaHei_MSFontService,sans-serif" font-weight="400" font-size="46" transform="matrix(1 0 0 1 476.738 1519)">0x12 0x4c</text><path d="M1680.5 1450.5C1680.5 1436.14 1692.14 1424.5 1706.5 1424.5L2044.5 1424.5C2058.86 1424.5 2070.5 1436.14 2070.5 1450.5L2070.5 1554.5C2070.5 1568.86 2058.86 1580.5 2044.5 1580.5L1706.5 1580.5C1692.14 1580.5 1680.5 1568.86 1680.5 1554.5Z" stroke="#75BD42" stroke-width="4.58333" stroke-miterlimit="8" fill="none" fill-rule="evenodd"/><text fill="#404040" font-family="Microsoft YaHei,Microsoft YaHei_MSFontService,sans-serif" font-weight="400" font-size="46" transform="matrix(1 0 0 1 1764.05 1519)">0x84 0x03</text><path d="M782.5 1450.5C782.5 1436.14 794.141 1424.5 808.501 1424.5L1055.5 1424.5C1069.86 1424.5 1081.5 1436.14 1081.5 1450.5L1081.5 1554.5C1081.5 1568.86 1069.86 1580.5 1055.5 1580.5L808.501 1580.5C794.141 1580.5 782.5 1568.86 782.5 1554.5Z" stroke="#2E54A1" stroke-width="4.58333" stroke-miterlimit="8" fill="none" fill-rule="evenodd"/><text fill="#404040" font-family="Microsoft YaHei,Microsoft YaHei_MSFontService,sans-serif" font-weight="400" font-size="46" transform="matrix(1 0 0 1 878.438 1519)">0x</text><text fill="#404040" font-family="Microsoft YaHei,Microsoft YaHei_MSFontService,sans-serif" font-weight="400" font-size="46" transform="matrix(1 0 0 1 928.855 1519)">0b</text><path d="M1081.5 1450.5C1081.5 1436.14 1093.14 1424.5 1107.5 1424.5L1354.5 1424.5C1368.86 1424.5 1380.5 1436.14 1380.5 1450.5L1380.5 1554.5C1380.5 1568.86 1368.86 1580.5 1354.5 1580.5L1107.5 1580.5C1093.14 1580.5 1081.5 1568.86 1081.5 1554.5Z" stroke="#2E54A1" stroke-width="4.58333" stroke-miterlimit="8" fill="none" fill-rule="evenodd"/><text fill="#404040" font-family="Microsoft YaHei,Microsoft YaHei_MSFontService,sans-serif" font-weight="400" font-size="46" transform="matrix(1 0 0 1 1177.26 1519)">0x</text><text fill="#404040" font-family="Microsoft YaHei,Microsoft YaHei_MSFontService,sans-serif" font-weight="400" font-size="46" transform="matrix(1 0 0 1 1227.67 1519)">0b</text><text fill="#404040" font-family="Microsoft YaHei,Microsoft YaHei_MSFontService,sans-serif" font-weight="400" font-size="50" transform="matrix(1 0 0 1 396.249 1389)">Example Values</text><path d="M2070.5 1451.5C2070.5 1437.14 2082.14 1425.5 2096.5 1425.5L2434.5 1425.5C2448.86 1425.5 2460.5 1437.14 2460.5 1451.5L2460.5 1555.5C2460.5 1569.86 2448.86 1581.5 2434.5 1581.5L2096.5 1581.5C2082.14 1581.5 2070.5 1569.86 2070.5 1555.5Z" stroke="#75BD42" stroke-width="4.58333" stroke-miterlimit="8" fill="none" fill-rule="evenodd"/><text fill="#404040" font-family="Microsoft YaHei,Microsoft YaHei_MSFontService,sans-serif" font-weight="400" font-size="46" transform="matrix(1 0 0 1 2153.82 1520)">0x58 0x02</text><path d="M3239.5 1451.5C3239.5 1437.14 3251.14 1425.5 3265.5 1425.5L3603.5 1425.5C3617.86 1425.5 3629.5 1437.14 3629.5 1451.5L3629.5 1555.5C3629.5 1569.86 3617.86 1581.5 3603.5 1581.5L3265.5 1581.5C3251.14 1581.5 3239.5 1569.86 3239.5 1555.5Z" stroke="#75BD42" stroke-width="4.58333" stroke-miterlimit="8" fill="none" fill-rule="evenodd"/><text fill="#404040" font-family="Microsoft YaHei,Microsoft YaHei_MSFontService,sans-serif" font-weight="400" font-size="46" transform="matrix(1 0 0 1 3323.11 1520)">0x00 0x00</text><path d="M3629.5 1451.5C3629.5 1437.14 3641.14 1425.5 3655.5 1425.5L3902.5 1425.5C3916.86 1425.5 3928.5 1437.14 3928.5 1451.5L3928.5 1555.5C3928.5 1569.86 3916.86 1581.5 3902.5 1581.5L3655.5 1581.5C3641.14 1581.5 3629.5 1569.86 3629.5 1555.5Z" stroke="#8843AB" stroke-width="4.58333" stroke-miterlimit="8" fill="none" fill-rule="evenodd"/><text fill="#404040" font-family="Microsoft YaHei,Microsoft YaHei_MSFontService,sans-serif" font-weight="400" font-size="46" transform="matrix(1 0 0 1 3726.41 1520)">0x</text><text fill="#404040" font-family="Microsoft YaHei,Microsoft YaHei_MSFontService,sans-serif" font-weight="400" font-size="46" transform="matrix(1 0 0 1 3776.83 1520)">81</text><path d="M3631.5 1163.83C3631.5 1147.08 3645.08 1133.5 3661.83 1133.5L3900.17 1133.5C3916.92 1133.5 3930.5 1147.08 3930.5 1163.83L3930.5 1285.17C3930.5 1301.92 3916.92 1315.5 3900.17 1315.5L3661.83 1315.5C3645.08 1315.5 3631.5 1301.92 3631.5 1285.17Z" stroke="#8843AB" stroke-width="4.58333" stroke-miterlimit="8" fill="#CCCCFF" fill-rule="evenodd"/><text fill="#404040" font-family="Microsoft YaHei,Microsoft YaHei_MSFontService,sans-serif" font-weight="700" font-size="55" transform="matrix(1 0 0 1 3643.55 1201)">checksum</text><text fill="#404040" font-family="Microsoft YaHei,Microsoft YaHei_MSFontService,sans-serif" font-weight="400" font-size="46" transform="matrix(1 0 0 1 3703.41 1288)">[</text><text fill="#404040" font-family="Microsoft YaHei,Microsoft YaHei_MSFontService,sans-serif" font-weight="400" font-size="46" transform="matrix(1 0 0 1 3718.88 1288)">1</text><text fill="#404040" font-family="Microsoft YaHei,Microsoft YaHei_MSFontService,sans-serif" font-weight="400" font-size="46" transform="matrix(1 0 0 1 3745.81 1288)">5</text><text fill="#404040" font-family="Microsoft YaHei,Microsoft YaHei_MSFontService,sans-serif" font-weight="400" font-size="46" transform="matrix(1 0 0 1 3772.73 1288)">] </text><text fill="#404040" font-family="Microsoft YaHei,Microsoft YaHei_MSFontService,sans-serif" font-weight="400" font-size="46" transform="matrix(1 0 0 1 3801.95 1288)">1B</text><path d="M3631.5 1116C3631.5 1106.89 3638.89 1099.5 3648 1099.5L3914 1099.5C3923.11 1099.5 3930.5 1106.89 3930.5 1116L3930.5 1116C3930.5 1125.11 3923.11 1132.5 3914 1132.5L3648 1132.5C3638.89 1132.5 3631.5 1125.11 3631.5 1116Z" stroke="#8843AB" stroke-width="4.58333" stroke-miterlimit="8" fill="#8843AB" fill-rule="evenodd"/><path d="M1383.5 1115C1383.5 1105.89 1390.89 1098.5 1400 1098.5L1666 1098.5C1675.11 1098.5 1682.5 1105.89 1682.5 1115L1682.5 1115C1682.5 1124.11 1675.11 1131.5 1666 1131.5L1400 1131.5C1390.89 1131.5 1383.5 1124.11 1383.5 1115Z" stroke="#75BD42" stroke-width="4.58333" stroke-miterlimit="8" fill="#75BD42" fill-rule="evenodd"/><path d="M1383.5 1162.83C1383.5 1146.08 1397.08 1132.5 1413.83 1132.5L1652.17 1132.5C1668.92 1132.5 1682.5 1146.08 1682.5 1162.83L1682.5 1284.17C1682.5 1300.92 1668.92 1314.5 1652.17 1314.5L1413.83 1314.5C1397.08 1314.5 1383.5 1300.92 1383.5 1284.17Z" stroke="#75BD42" stroke-width="4.58333" stroke-miterlimit="8" fill="#C8E5B3" fill-rule="evenodd"/><text fill="#404040" font-family="Microsoft YaHei,Microsoft YaHei_MSFontService,sans-serif" font-weight="700" font-size="55" transform="matrix(1 0 0 1 1418.24 1200)">servo_id</text><text fill="#404040" font-family="Microsoft YaHei,Microsoft YaHei_MSFontService,sans-serif" font-weight="400" font-size="46" transform="matrix(1 0 0 1 1469.25 1287)">[4] 1B</text><path d="M1381.5 1450.5C1381.5 1436.14 1393.14 1424.5 1407.5 1424.5L1654.5 1424.5C1668.86 1424.5 1680.5 1436.14 1680.5 1450.5L1680.5 1554.5C1680.5 1568.86 1668.86 1580.5 1654.5 1580.5L1407.5 1580.5C1393.14 1580.5 1381.5 1568.86 1381.5 1554.5Z" stroke="#75BD42" stroke-width="4.58333" stroke-miterlimit="8" fill="none" fill-rule="evenodd"/><text fill="#404040" font-family="Microsoft YaHei,Microsoft YaHei_MSFontService,sans-serif" font-weight="400" font-size="46" transform="matrix(1 0 0 1 1478.77 1519)">0x0</text><text fill="#404040" font-family="Microsoft YaHei,Microsoft YaHei_MSFontService,sans-serif" font-weight="400" font-size="46" transform="matrix(1 0 0 1 1556.11 1519)">0</text><path d="M2462.5 1116C2462.5 1106.89 2469.89 1099.5 2479 1099.5L2836 1099.5C2845.11 1099.5 2852.5 1106.89 2852.5 1116L2852.5 1116C2852.5 1125.11 2845.11 1132.5 2836 1132.5L2479 1132.5C2469.89 1132.5 2462.5 1125.11 2462.5 1116Z" stroke="#75BD42" stroke-width="4.58333" stroke-miterlimit="8" fill="#75BD42" fill-rule="evenodd"/><path d="M2462.5 1163.83C2462.5 1147.08 2476.08 1133.5 2492.83 1133.5L2822.17 1133.5C2838.92 1133.5 2852.5 1147.08 2852.5 1163.83L2852.5 1285.17C2852.5 1301.92 2838.92 1315.5 2822.17 1315.5L2492.83 1315.5C2476.08 1315.5 2462.5 1301.92 2462.5 1285.17Z" stroke="#75BD42" stroke-width="4.58333" stroke-miterlimit="8" fill="#C8E5B3" fill-rule="evenodd"/><text fill="#404040" font-family="Microsoft YaHei,Microsoft YaHei_MSFontService,sans-serif" font-weight="700" font-size="55" transform="matrix(1 0 0 1 2588.2 1201)">a</text><text fill="#404040" font-family="Microsoft YaHei,Microsoft YaHei_MSFontService,sans-serif" font-weight="700" font-size="55" transform="matrix(1 0 0 1 2619.71 1201)">ccel</text><text fill="#404040" font-family="Microsoft YaHei,Microsoft YaHei_MSFontService,sans-serif" font-weight="400" font-size="46" transform="matrix(1 0 0 1 2556.11 1288)">[</text><text fill="#404040" font-family="Microsoft YaHei,Microsoft YaHei_MSFontService,sans-serif" font-weight="400" font-size="46" transform="matrix(1 0 0 1 2571.58 1288)">9</text><text fill="#404040" font-family="Microsoft YaHei,Microsoft YaHei_MSFontService,sans-serif" font-weight="400" font-size="46" transform="matrix(1 0 0 1 2598.51 1288)">-</text><text fill="#404040" font-family="Microsoft YaHei,Microsoft YaHei_MSFontService,sans-serif" font-weight="400" font-size="46" transform="matrix(1 0 0 1 2618.56 1288)">10</text><text fill="#404040" font-family="Microsoft YaHei,Microsoft YaHei_MSFontService,sans-serif" font-weight="400" font-size="46" transform="matrix(1 0 0 1 2672.42 1288)">] </text><text fill="#404040" font-family="Microsoft YaHei,Microsoft YaHei_MSFontService,sans-serif" font-weight="400" font-size="46" transform="matrix(1 0 0 1 2701.64 1288)">2B</text><path d="M2460.5 1451.5C2460.5 1437.14 2472.14 1425.5 2486.5 1425.5L2824.5 1425.5C2838.86 1425.5 2850.5 1437.14 2850.5 1451.5L2850.5 1555.5C2850.5 1569.86 2838.86 1581.5 2824.5 1581.5L2486.5 1581.5C2472.14 1581.5 2460.5 1569.86 2460.5 1555.5Z" stroke="#75BD42" stroke-width="4.58333" stroke-miterlimit="8" fill="none" fill-rule="evenodd"/><text fill="#404040" font-family="Microsoft YaHei,Microsoft YaHei_MSFontService,sans-serif" font-weight="400" font-size="46" transform="matrix(1 0 0 1 2543.58 1520)">0x64 0x00</text><path d="M2852.5 1116C2852.5 1106.89 2859.89 1099.5 2869 1099.5L3225 1099.5C3234.11 1099.5 3241.5 1106.89 3241.5 1116L3241.5 1116C3241.5 1125.11 3234.11 1132.5 3225 1132.5L2869 1132.5C2859.89 1132.5 2852.5 1125.11 2852.5 1116Z" stroke="#75BD42" stroke-width="4.58333" stroke-miterlimit="8" fill="#75BD42" fill-rule="evenodd"/><path d="M2852.5 1163.83C2852.5 1147.08 2866.08 1133.5 2882.83 1133.5L3211.17 1133.5C3227.92 1133.5 3241.5 1147.08 3241.5 1163.83L3241.5 1285.17C3241.5 1301.92 3227.92 1315.5 3211.17 1315.5L2882.83 1315.5C2866.08 1315.5 2852.5 1301.92 2852.5 1285.17Z" stroke="#75BD42" stroke-width="4.58333" stroke-miterlimit="8" fill="#C8E5B3" fill-rule="evenodd"/><text fill="#404040" font-family="Microsoft YaHei,Microsoft YaHei_MSFontService,sans-serif" font-weight="700" font-size="55" transform="matrix(1 0 0 1 2973.66 1201)">decel</text><text fill="#404040" font-family="Microsoft YaHei,Microsoft YaHei_MSFontService,sans-serif" font-weight="400" font-size="46" transform="matrix(1 0 0 1 2932.41 1288)">[</text><text fill="#404040" font-family="Microsoft YaHei,Microsoft YaHei_MSFontService,sans-serif" font-weight="400" font-size="46" transform="matrix(1 0 0 1 2947.88 1288)">11</text><text fill="#404040" font-family="Microsoft YaHei,Microsoft YaHei_MSFontService,sans-serif" font-weight="400" font-size="46" transform="matrix(1 0 0 1 3001.74 1288)">-</text><text fill="#404040" font-family="Microsoft YaHei,Microsoft YaHei_MSFontService,sans-serif" font-weight="400" font-size="46" transform="matrix(1 0 0 1 3021.79 1288)">12</text><text fill="#404040" font-family="Microsoft YaHei,Microsoft YaHei_MSFontService,sans-serif" font-weight="400" font-size="46" transform="matrix(1 0 0 1 3075.64 1288)">] </text><text fill="#404040" font-family="Microsoft YaHei,Microsoft YaHei_MSFontService,sans-serif" font-weight="400" font-size="46" transform="matrix(1 0 0 1 3104.86 1288)">2B</text><path d="M2850.5 1451.5C2850.5 1437.14 2862.14 1425.5 2876.5 1425.5L3213.5 1425.5C3227.86 1425.5 3239.5 1437.14 3239.5 1451.5L3239.5 1555.5C3239.5 1569.86 3227.86 1581.5 3213.5 1581.5L2876.5 1581.5C2862.14 1581.5 2850.5 1569.86 2850.5 1555.5Z" stroke="#75BD42" stroke-width="4.58333" stroke-miterlimit="8" fill="none" fill-rule="evenodd"/><text fill="#404040" font-family="Microsoft YaHei,Microsoft YaHei_MSFontService,sans-serif" font-weight="400" font-size="46" transform="matrix(1 0 0 1 2935.35 1520)">0xc8 0x00</text></g></svg>