<svg width="2783" height="336" xmlns="http://www.w3.org/2000/svg" xmlns:xlink="http://www.w3.org/1999/xlink" xml:space="preserve" overflow="hidden"><g transform="translate(-367 -1564)"><path d="M394.5 1690C394.5 1680.89 401.887 1673.5 411 1673.5L767 1673.5C776.113 1673.5 783.5 1680.89 783.5 1690L783.5 1690C783.5 1699.11 776.113 1706.5 767 1706.5L411 1706.5C401.887 1706.5 394.5 1699.11 394.5 1690Z" stroke="#249087" stroke-width="4.58333" stroke-miterlimit="8" fill="#249087" fill-rule="evenodd"/><path d="M394.5 1736.83C394.5 1720.08 408.081 1706.5 424.834 1706.5L753.166 1706.5C769.919 1706.5 783.5 1720.08 783.5 1736.83L783.5 1858.17C783.5 1874.92 769.919 1888.5 753.166 1888.5L424.834 1888.5C408.081 1888.5 394.5 1874.92 394.5 1858.17Z" stroke="#249087" stroke-width="4.58333" stroke-miterlimit="8" fill="#A9E9E4" fill-rule="evenodd"/><text fill="#404040" font-family="Microsoft YaHei,Microsoft YaHei_MSFontService,sans-serif" font-weight="700" font-size="55" transform="matrix(1 0 0 1 492.912 1774)">header</text><text fill="#404040" font-family="Microsoft YaHei,Microsoft YaHei_MSFontService,sans-serif" font-weight="400" font-size="46" transform="matrix(1 0 0 1 536.156 1861)">[0</text><text fill="#404040" font-family="Microsoft YaHei,Microsoft YaHei_MSFontService,sans-serif" font-weight="400" font-size="46" transform="matrix(1 0 0 1 578.552 1861)">-</text><text fill="#404040" font-family="Microsoft YaHei,Microsoft YaHei_MSFontService,sans-serif" font-weight="400" font-size="46" transform="matrix(1 0 0 1 598.604 1861)">1]</text><path d="M784.5 1690C784.5 1680.89 791.887 1673.5 801 1673.5L1067 1673.5C1076.11 1673.5 1083.5 1680.89 1083.5 1690L1083.5 1690C1083.5 1699.11 1076.11 1706.5 1067 1706.5L801 1706.5C791.887 1706.5 784.5 1699.11 784.5 1690Z" stroke="#249087" stroke-width="4.58333" stroke-miterlimit="8" fill="#249087" fill-rule="evenodd"/><path d="M784.5 1736.83C784.5 1720.08 798.081 1706.5 814.834 1706.5L1053.17 1706.5C1069.92 1706.5 1083.5 1720.08 1083.5 1736.83L1083.5 1858.17C1083.5 1874.92 1069.92 1888.5 1053.17 1888.5L814.834 1888.5C798.081 1888.5 784.5 1874.92 784.5 1858.17Z" stroke="#249087" stroke-width="4.58333" stroke-miterlimit="8" fill="#A9E9E4" fill-rule="evenodd"/><text fill="#404040" font-family="Microsoft YaHei,Microsoft YaHei_MSFontService,sans-serif" font-weight="700" font-size="55" transform="matrix(1 0 0 1 835.478 1774)">cmd_id</text><text fill="#404040" font-family="Microsoft YaHei,Microsoft YaHei_MSFontService,sans-serif" font-weight="400" font-size="46" transform="matrix(1 0 0 1 904.801 1861)">[2]</text><path d="M1083.5 1690C1083.5 1680.89 1090.89 1673.5 1100 1673.5L1366 1673.5C1375.11 1673.5 1382.5 1680.89 1382.5 1690L1382.5 1690C1382.5 1699.11 1375.11 1706.5 1366 1706.5L1100 1706.5C1090.89 1706.5 1083.5 1699.11 1083.5 1690Z" stroke="#249087" stroke-width="4.58333" stroke-miterlimit="8" fill="#249087" fill-rule="evenodd"/><path d="M1083.5 1736.83C1083.5 1720.08 1097.08 1706.5 1113.83 1706.5L1352.17 1706.5C1368.92 1706.5 1382.5 1720.08 1382.5 1736.83L1382.5 1858.17C1382.5 1874.92 1368.92 1888.5 1352.17 1888.5L1113.83 1888.5C1097.08 1888.5 1083.5 1874.92 1083.5 1858.17Z" stroke="#249087" stroke-width="4.58333" stroke-miterlimit="8" fill="#A9E9E4" fill-rule="evenodd"/><text fill="#404040" font-family="Microsoft YaHei,Microsoft YaHei_MSFontService,sans-serif" font-weight="700" font-size="55" transform="matrix(1 0 0 1 1143.18 1774)">length</text><text fill="#404040" font-family="Microsoft YaHei,Microsoft YaHei_MSFontService,sans-serif" font-weight="400" font-size="46" transform="matrix(1 0 0 1 1203.63 1861)">[3]</text><text fill="#404040" font-family="Microsoft YaHei,Microsoft YaHei_MSFontService,sans-serif" font-weight="400" font-size="50" transform="matrix(1 0 0 1 398.184 1637)">Respons</text><text fill="#404040" font-family="Microsoft YaHei,Microsoft YaHei_MSFontService,sans-serif" font-weight="400" font-size="50" transform="matrix(1 0 0 1 601.57 1637)">e</text><path d="M1379.5 1690C1379.5 1680.89 1386.89 1673.5 1396 1673.5L2182 1673.5C2191.11 1673.5 2198.5 1680.89 2198.5 1690L2198.5 1690C2198.5 1699.11 2191.11 1706.5 2182 1706.5L1396 1706.5C1386.89 1706.5 1379.5 1699.11 1379.5 1690Z" stroke="#75BD42" stroke-width="4.58333" stroke-miterlimit="8" fill="#75BD42" fill-rule="evenodd"/><path d="M1379.5 1736.83C1379.5 1720.08 1393.08 1706.5 1409.83 1706.5L2168.17 1706.5C2184.92 1706.5 2198.5 1720.08 2198.5 1736.83L2198.5 1858.17C2198.5 1874.92 2184.92 1888.5 2168.17 1888.5L1409.83 1888.5C1393.08 1888.5 1379.5 1874.92 1379.5 1858.17Z" stroke="#75BD42" stroke-width="4.58333" stroke-miterlimit="8" fill="#C8E5B3" fill-rule="evenodd"/><text fill="#404040" font-family="Microsoft YaHei,Microsoft YaHei_MSFontService,sans-serif" font-weight="700" font-size="55" transform="matrix(1 0 0 1 1682.01 1774)">content</text><text fill="#404040" font-family="Microsoft YaHei,Microsoft YaHei_MSFontService,sans-serif" font-weight="400" font-size="46" transform="matrix(1 0 0 1 1691.64 1861)">[</text><text fill="#404040" font-family="Microsoft YaHei,Microsoft YaHei_MSFontService,sans-serif" font-weight="400" font-size="46" transform="matrix(1 0 0 1 1707.1 1861)">4</text><text fill="#404040" font-family="Microsoft YaHei,Microsoft YaHei_MSFontService,sans-serif" font-weight="400" font-size="46" transform="matrix(1 0 0 1 1747.78 1861)">-</text><text fill="#404040" font-family="Microsoft YaHei,Microsoft YaHei_MSFontService,sans-serif" font-weight="400" font-size="46" transform="matrix(1 0 0 1 1781.58 1861)">n+</text><text fill="#404040" font-family="Microsoft YaHei,Microsoft YaHei_MSFontService,sans-serif" font-weight="400" font-size="46" transform="matrix(1 0 0 1 1843.46 1861)">4</text><text fill="#404040" font-family="Microsoft YaHei,Microsoft YaHei_MSFontService,sans-serif" font-weight="400" font-size="46" transform="matrix(1 0 0 1 1870.39 1861)">]</text><path d="M2196.5 1690C2196.5 1680.89 2203.89 1673.5 2213 1673.5L2479 1673.5C2488.11 1673.5 2495.5 1680.89 2495.5 1690L2495.5 1690C2495.5 1699.11 2488.11 1706.5 2479 1706.5L2213 1706.5C2203.89 1706.5 2196.5 1699.11 2196.5 1690Z" stroke="#8843AB" stroke-width="4.58333" stroke-miterlimit="8" fill="#8843AB" fill-rule="evenodd"/><path d="M2196.5 1736.83C2196.5 1720.08 2210.08 1706.5 2226.83 1706.5L2465.17 1706.5C2481.92 1706.5 2495.5 1720.08 2495.5 1736.83L2495.5 1858.17C2495.5 1874.92 2481.92 1888.5 2465.17 1888.5L2226.83 1888.5C2210.08 1888.5 2196.5 1874.92 2196.5 1858.17Z" stroke="#8843AB" stroke-width="4.58333" stroke-miterlimit="8" fill="#CCCCFF" fill-rule="evenodd"/><text fill="#404040" font-family="Microsoft YaHei,Microsoft YaHei_MSFontService,sans-serif" font-weight="700" font-size="55" transform="matrix(1 0 0 1 2208.59 1774)">checksum</text><text fill="#404040" font-family="Microsoft YaHei,Microsoft YaHei_MSFontService,sans-serif" font-weight="400" font-size="46" transform="matrix(1 0 0 1 2285.63 1861)">[n</text><text fill="#404040" font-family="Microsoft YaHei,Microsoft YaHei_MSFontService,sans-serif" font-weight="400" font-size="46" transform="matrix(1 0 0 1 2329.18 1861)">+</text><text fill="#404040" font-family="Microsoft YaHei,Microsoft YaHei_MSFontService,sans-serif" font-weight="400" font-size="46" transform="matrix(1 0 0 1 2362.98 1861)">5</text><text fill="#404040" font-family="Microsoft YaHei,Microsoft YaHei_MSFontService,sans-serif" font-weight="400" font-size="46" transform="matrix(1 0 0 1 2389.91 1861)">]</text></g></svg>