<svg width="2806" height="1179" xmlns="http://www.w3.org/2000/svg" xmlns:xlink="http://www.w3.org/1999/xlink" xml:space="preserve" overflow="hidden"><g transform="translate(-367 -297)"><path d="M395.5 420C395.5 410.887 402.887 403.5 412 403.5L769 403.5C778.113 403.5 785.5 410.887 785.5 420L785.5 420C785.5 429.113 778.113 436.5 769 436.5L412 436.5C402.887 436.5 395.5 429.113 395.5 420Z" stroke="#2E54A1" stroke-width="4.58333" stroke-miterlimit="8" fill="#2E54A1" fill-rule="evenodd"/><path d="M395.5 468.668C395.5 452.007 409.007 438.5 425.668 438.5L755.333 438.5C771.994 438.5 785.5 452.007 785.5 468.668L785.5 589.333C785.5 605.994 771.994 619.5 755.333 619.5L425.668 619.5C409.007 619.5 395.5 605.994 395.5 589.333Z" stroke="#2E54A1" stroke-width="4.58333" stroke-miterlimit="8" fill="#B6C7EA" fill-rule="evenodd"/><text fill="#404040" font-family="Microsoft YaHei,Microsoft YaHei_MSFontService,sans-serif" font-weight="700" font-size="55" transform="matrix(1 0 0 1 494.073 505)">header</text><text fill="#404040" font-family="Microsoft YaHei,Microsoft YaHei_MSFontService,sans-serif" font-weight="400" font-size="46" transform="matrix(1 0 0 1 502.667 592)">[0</text><text fill="#404040" font-family="Microsoft YaHei,Microsoft YaHei_MSFontService,sans-serif" font-weight="400" font-size="46" transform="matrix(1 0 0 1 545.063 592)">-</text><text fill="#404040" font-family="Microsoft YaHei,Microsoft YaHei_MSFontService,sans-serif" font-weight="400" font-size="46" transform="matrix(1 0 0 1 565.115 592)">1] 2B</text><path d="M786.5 420C786.5 410.887 793.887 403.5 803 403.5L1069 403.5C1078.11 403.5 1085.5 410.887 1085.5 420L1085.5 420C1085.5 429.113 1078.11 436.5 1069 436.5L803 436.5C793.887 436.5 786.5 429.113 786.5 420Z" stroke="#2E54A1" stroke-width="4.58333" stroke-miterlimit="8" fill="#2E54A1" fill-rule="evenodd"/><path d="M786.5 468.667C786.5 452.006 800.006 438.5 816.667 438.5L1055.33 438.5C1071.99 438.5 1085.5 452.006 1085.5 468.667L1085.5 589.333C1085.5 605.994 1071.99 619.5 1055.33 619.5L816.667 619.5C800.006 619.5 786.5 605.994 786.5 589.333Z" stroke="#2E54A1" stroke-width="4.58333" stroke-miterlimit="8" fill="#B6C7EA" fill-rule="evenodd"/><text fill="#404040" font-family="Microsoft YaHei,Microsoft YaHei_MSFontService,sans-serif" font-weight="700" font-size="55" transform="matrix(1 0 0 1 837.336 505)">cmd_id</text><text fill="#404040" font-family="Microsoft YaHei,Microsoft YaHei_MSFontService,sans-serif" font-weight="400" font-size="46" transform="matrix(1 0 0 1 871.986 592)">[2] 1B</text><text fill="#404040" font-family="Microsoft YaHei,Microsoft YaHei_MSFontService,sans-serif" font-weight="400" font-size="50" transform="matrix(1 0 0 1 400.12 370)">Command</text><path d="M393.5 755.5C393.5 741.141 405.141 729.5 419.5 729.5L757.499 729.5C771.859 729.5 783.5 741.141 783.5 755.5L783.5 859.5C783.5 873.859 771.859 885.5 757.499 885.5L419.5 885.5C405.141 885.5 393.5 873.859 393.5 859.5Z" stroke="#2E54A1" stroke-width="4.58333" stroke-miterlimit="8" fill="none" fill-rule="evenodd"/><text fill="#404040" font-family="Microsoft YaHei,Microsoft YaHei_MSFontService,sans-serif" font-weight="400" font-size="46" transform="matrix(1 0 0 1 478.674 824)">0x12 0x4c</text><path d="M784.5 755.501C784.5 741.141 796.141 729.5 810.501 729.5L1057.5 729.5C1071.86 729.5 1083.5 741.141 1083.5 755.501L1083.5 859.499C1083.5 873.859 1071.86 885.5 1057.5 885.5L810.501 885.5C796.141 885.5 784.5 873.859 784.5 859.499Z" stroke="#2E54A1" stroke-width="4.58333" stroke-miterlimit="8" fill="none" fill-rule="evenodd"/><text fill="#404040" font-family="Microsoft YaHei,Microsoft YaHei_MSFontService,sans-serif" font-weight="400" font-size="46" transform="matrix(1 0 0 1 881.52 824)">0x</text><text fill="#404040" font-family="Microsoft YaHei,Microsoft YaHei_MSFontService,sans-serif" font-weight="400" font-size="46" transform="matrix(1 0 0 1 931.937 824)">12</text><text fill="#404040" font-family="Microsoft YaHei,Microsoft YaHei_MSFontService,sans-serif" font-weight="400" font-size="50" transform="matrix(1 0 0 1 398.184 694)">Example Values</text><path d="M395.5 1009C395.5 999.887 402.887 992.5 412 992.5L769 992.5C778.113 992.5 785.5 999.887 785.5 1009L785.5 1009C785.5 1018.11 778.113 1025.5 769 1025.5L412 1025.5C402.887 1025.5 395.5 1018.11 395.5 1009Z" stroke="#2E54A1" stroke-width="4.58333" stroke-miterlimit="8" fill="#2E54A1" fill-rule="evenodd"/><path d="M395.5 1056.83C395.5 1040.08 409.081 1026.5 425.834 1026.5L755.166 1026.5C771.919 1026.5 785.5 1040.08 785.5 1056.83L785.5 1178.17C785.5 1194.92 771.919 1208.5 755.166 1208.5L425.834 1208.5C409.081 1208.5 395.5 1194.92 395.5 1178.17Z" stroke="#2E54A1" stroke-width="4.58333" stroke-miterlimit="8" fill="#B6C7EA" fill-rule="evenodd"/><text fill="#404040" font-family="Microsoft YaHei,Microsoft YaHei_MSFontService,sans-serif" font-weight="700" font-size="55" transform="matrix(1 0 0 1 494.073 1094)">header</text><text fill="#404040" font-family="Microsoft YaHei,Microsoft YaHei_MSFontService,sans-serif" font-weight="400" font-size="46" transform="matrix(1 0 0 1 502.667 1181)">[0</text><text fill="#404040" font-family="Microsoft YaHei,Microsoft YaHei_MSFontService,sans-serif" font-weight="400" font-size="46" transform="matrix(1 0 0 1 545.063 1181)">-</text><text fill="#404040" font-family="Microsoft YaHei,Microsoft YaHei_MSFontService,sans-serif" font-weight="400" font-size="46" transform="matrix(1 0 0 1 565.115 1181)">1] 2B</text><path d="M786.5 1009C786.5 999.887 793.887 992.5 803 992.5L1069 992.5C1078.11 992.5 1085.5 999.887 1085.5 1009L1085.5 1009C1085.5 1018.11 1078.11 1025.5 1069 1025.5L803 1025.5C793.887 1025.5 786.5 1018.11 786.5 1009Z" stroke="#2E54A1" stroke-width="4.58333" stroke-miterlimit="8" fill="#2E54A1" fill-rule="evenodd"/><path d="M786.5 1056.83C786.5 1040.08 800.081 1026.5 816.834 1026.5L1055.17 1026.5C1071.92 1026.5 1085.5 1040.08 1085.5 1056.83L1085.5 1178.17C1085.5 1194.92 1071.92 1208.5 1055.17 1208.5L816.834 1208.5C800.081 1208.5 786.5 1194.92 786.5 1178.17Z" stroke="#2E54A1" stroke-width="4.58333" stroke-miterlimit="8" fill="#B6C7EA" fill-rule="evenodd"/><text fill="#404040" font-family="Microsoft YaHei,Microsoft YaHei_MSFontService,sans-serif" font-weight="700" font-size="55" transform="matrix(1 0 0 1 837.336 1094)">cmd_id</text><text fill="#404040" font-family="Microsoft YaHei,Microsoft YaHei_MSFontService,sans-serif" font-weight="400" font-size="46" transform="matrix(1 0 0 1 871.986 1181)">[</text><text fill="#404040" font-family="Microsoft YaHei,Microsoft YaHei_MSFontService,sans-serif" font-weight="400" font-size="46" transform="matrix(1 0 0 1 887.455 1181)">2</text><text fill="#404040" font-family="Microsoft YaHei,Microsoft YaHei_MSFontService,sans-serif" font-weight="400" font-size="46" transform="matrix(1 0 0 1 914.382 1181)">] </text><text fill="#404040" font-family="Microsoft YaHei,Microsoft YaHei_MSFontService,sans-serif" font-weight="400" font-size="46" transform="matrix(1 0 0 1 943.6 1181)">1</text><text fill="#404040" font-family="Microsoft YaHei,Microsoft YaHei_MSFontService,sans-serif" font-weight="400" font-size="46" transform="matrix(1 0 0 1 970.527 1181)">B</text><path d="M1085.5 1009C1085.5 999.887 1092.89 992.5 1102 992.5L1368 992.5C1377.11 992.5 1384.5 999.887 1384.5 1009L1384.5 1009C1384.5 1018.11 1377.11 1025.5 1368 1025.5L1102 1025.5C1092.89 1025.5 1085.5 1018.11 1085.5 1009Z" stroke="#2E54A1" stroke-width="4.58333" stroke-miterlimit="8" fill="#2E54A1" fill-rule="evenodd"/><path d="M1085.5 1056.83C1085.5 1040.08 1099.08 1026.5 1115.83 1026.5L1354.17 1026.5C1370.92 1026.5 1384.5 1040.08 1384.5 1056.83L1384.5 1178.17C1384.5 1194.92 1370.92 1208.5 1354.17 1208.5L1115.83 1208.5C1099.08 1208.5 1085.5 1194.92 1085.5 1178.17Z" stroke="#2E54A1" stroke-width="4.58333" stroke-miterlimit="8" fill="#B6C7EA" fill-rule="evenodd"/><text fill="#404040" font-family="Microsoft YaHei,Microsoft YaHei_MSFontService,sans-serif" font-weight="700" font-size="55" transform="matrix(1 0 0 1 1145.03 1094)">length</text><text fill="#404040" font-family="Microsoft YaHei,Microsoft YaHei_MSFontService,sans-serif" font-weight="400" font-size="46" transform="matrix(1 0 0 1 1170.82 1181)">[3] 1B</text><text fill="#404040" font-family="Microsoft YaHei,Microsoft YaHei_MSFontService,sans-serif" font-weight="400" font-size="50" transform="matrix(1 0 0 1 400.12 959)">Command</text><path d="M1684.5 1009C1684.5 999.887 1691.89 992.5 1701 992.5L2058 992.5C2067.11 992.5 2074.5 999.887 2074.5 1009L2074.5 1009C2074.5 1018.11 2067.11 1025.5 2058 1025.5L1701 1025.5C1691.89 1025.5 1684.5 1018.11 1684.5 1009Z" stroke="#75BD42" stroke-width="4.58333" stroke-miterlimit="8" fill="#75BD42" fill-rule="evenodd"/><path d="M1684.5 1056.83C1684.5 1040.08 1698.08 1026.5 1714.83 1026.5L2044.17 1026.5C2060.92 1026.5 2074.5 1040.08 2074.5 1056.83L2074.5 1178.17C2074.5 1194.92 2060.92 1208.5 2044.17 1208.5L1714.83 1208.5C1698.08 1208.5 1684.5 1194.92 1684.5 1178.17Z" stroke="#75BD42" stroke-width="4.58333" stroke-miterlimit="8" fill="#C8E5B3" fill-rule="evenodd"/><text fill="#404040" font-family="Microsoft YaHei,Microsoft YaHei_MSFontService,sans-serif" font-weight="700" font-size="55" transform="matrix(1 0 0 1 1765.92 1094)">position</text><text fill="#404040" font-family="Microsoft YaHei,Microsoft YaHei_MSFontService,sans-serif" font-weight="400" font-size="46" transform="matrix(1 0 0 1 1791.97 1181)">[5</text><text fill="#404040" font-family="Microsoft YaHei,Microsoft YaHei_MSFontService,sans-serif" font-weight="400" font-size="46" transform="matrix(1 0 0 1 1834.37 1181)">-</text><text fill="#404040" font-family="Microsoft YaHei,Microsoft YaHei_MSFontService,sans-serif" font-weight="400" font-size="46" transform="matrix(1 0 0 1 1854.42 1181)">6] 2B</text><path d="M2074.5 1009C2074.5 999.887 2081.89 992.5 2091 992.5L2448 992.5C2457.11 992.5 2464.5 999.887 2464.5 1009L2464.5 1009C2464.5 1018.11 2457.11 1025.5 2448 1025.5L2091 1025.5C2081.89 1025.5 2074.5 1018.11 2074.5 1009Z" stroke="#75BD42" stroke-width="4.58333" stroke-miterlimit="8" fill="#75BD42" fill-rule="evenodd"/><path d="M2074.5 1056.83C2074.5 1040.08 2088.08 1026.5 2104.83 1026.5L2434.17 1026.5C2450.92 1026.5 2464.5 1040.08 2464.5 1056.83L2464.5 1178.17C2464.5 1194.92 2450.92 1208.5 2434.17 1208.5L2104.83 1208.5C2088.08 1208.5 2074.5 1194.92 2074.5 1178.17Z" stroke="#75BD42" stroke-width="4.58333" stroke-miterlimit="8" fill="#C8E5B3" fill-rule="evenodd"/><text fill="#404040" font-family="Microsoft YaHei,Microsoft YaHei_MSFontService,sans-serif" font-weight="700" font-size="55" transform="matrix(1 0 0 1 2206.39 1094)">time</text><text fill="#404040" font-family="Microsoft YaHei,Microsoft YaHei_MSFontService,sans-serif" font-weight="400" font-size="46" transform="matrix(1 0 0 1 2181.75 1181)">[7</text><text fill="#404040" font-family="Microsoft YaHei,Microsoft YaHei_MSFontService,sans-serif" font-weight="400" font-size="46" transform="matrix(1 0 0 1 2224.15 1181)">-</text><text fill="#404040" font-family="Microsoft YaHei,Microsoft YaHei_MSFontService,sans-serif" font-weight="400" font-size="46" transform="matrix(1 0 0 1 2244.2 1181)">8] 2B</text><path d="M2464.5 1009C2464.5 999.887 2471.89 992.5 2481 992.5L2837 992.5C2846.11 992.5 2853.5 999.887 2853.5 1009L2853.5 1009C2853.5 1018.11 2846.11 1025.5 2837 1025.5L2481 1025.5C2471.89 1025.5 2464.5 1018.11 2464.5 1009Z" stroke="#75BD42" stroke-width="4.58333" stroke-miterlimit="8" fill="#75BD42" fill-rule="evenodd"/><path d="M2464.5 1056.83C2464.5 1040.08 2478.08 1026.5 2494.83 1026.5L2823.17 1026.5C2839.92 1026.5 2853.5 1040.08 2853.5 1056.83L2853.5 1178.17C2853.5 1194.92 2839.92 1208.5 2823.17 1208.5L2494.83 1208.5C2478.08 1208.5 2464.5 1194.92 2464.5 1178.17Z" stroke="#75BD42" stroke-width="4.58333" stroke-miterlimit="8" fill="#C8E5B3" fill-rule="evenodd"/><text fill="#404040" font-family="Microsoft YaHei,Microsoft YaHei_MSFontService,sans-serif" font-weight="700" font-size="55" transform="matrix(1 0 0 1 2571.07 1094)">power</text><text fill="#404040" font-family="Microsoft YaHei,Microsoft YaHei_MSFontService,sans-serif" font-weight="400" font-size="46" transform="matrix(1 0 0 1 2558.05 1181)">[9</text><text fill="#404040" font-family="Microsoft YaHei,Microsoft YaHei_MSFontService,sans-serif" font-weight="400" font-size="46" transform="matrix(1 0 0 1 2600.45 1181)">-</text><text fill="#404040" font-family="Microsoft YaHei,Microsoft YaHei_MSFontService,sans-serif" font-weight="400" font-size="46" transform="matrix(1 0 0 1 2620.5 1181)">10] 2B</text><path d="M393.5 1344.33C393.5 1330.07 405.066 1318.5 419.334 1318.5L757.666 1318.5C771.934 1318.5 783.5 1330.07 783.5 1344.33L783.5 1447.67C783.5 1461.93 771.934 1473.5 757.666 1473.5L419.334 1473.5C405.066 1473.5 393.5 1461.93 393.5 1447.67Z" stroke="#2E54A1" stroke-width="4.58333" stroke-miterlimit="8" fill="none" fill-rule="evenodd"/><text fill="#404040" font-family="Microsoft YaHei,Microsoft YaHei_MSFontService,sans-serif" font-weight="400" font-size="46" transform="matrix(1 0 0 1 478.674 1412)">0x12 0x4c</text><path d="M1682.5 1344.33C1682.5 1330.07 1694.07 1318.5 1708.33 1318.5L2046.67 1318.5C2060.93 1318.5 2072.5 1330.07 2072.5 1344.33L2072.5 1447.67C2072.5 1461.93 2060.93 1473.5 2046.67 1473.5L1708.33 1473.5C1694.07 1473.5 1682.5 1461.93 1682.5 1447.67Z" stroke="#75BD42" stroke-width="4.58333" stroke-miterlimit="8" fill="none" fill-rule="evenodd"/><text fill="#404040" font-family="Microsoft YaHei,Microsoft YaHei_MSFontService,sans-serif" font-weight="400" font-size="46" transform="matrix(1 0 0 1 1765.99 1412)">0x84 0x03</text><path d="M784.5 1344.33C784.5 1330.07 796.066 1318.5 810.334 1318.5L1057.67 1318.5C1071.93 1318.5 1083.5 1330.07 1083.5 1344.33L1083.5 1447.67C1083.5 1461.93 1071.93 1473.5 1057.67 1473.5L810.334 1473.5C796.066 1473.5 784.5 1461.93 784.5 1447.67Z" stroke="#2E54A1" stroke-width="4.58333" stroke-miterlimit="8" fill="none" fill-rule="evenodd"/><text fill="#404040" font-family="Microsoft YaHei,Microsoft YaHei_MSFontService,sans-serif" font-weight="400" font-size="46" transform="matrix(1 0 0 1 881.52 1412)">0</text><text fill="#404040" font-family="Microsoft YaHei,Microsoft YaHei_MSFontService,sans-serif" font-weight="400" font-size="46" transform="matrix(1 0 0 1 908.447 1412)">x</text><text fill="#404040" font-family="Microsoft YaHei,Microsoft YaHei_MSFontService,sans-serif" font-weight="400" font-size="46" transform="matrix(1 0 0 1 931.937 1412)">08</text><path d="M1083.5 1344.33C1083.5 1330.07 1095.07 1318.5 1109.33 1318.5L1356.67 1318.5C1370.93 1318.5 1382.5 1330.07 1382.5 1344.33L1382.5 1447.67C1382.5 1461.93 1370.93 1473.5 1356.67 1473.5L1109.33 1473.5C1095.07 1473.5 1083.5 1461.93 1083.5 1447.67Z" stroke="#2E54A1" stroke-width="4.58333" stroke-miterlimit="8" fill="none" fill-rule="evenodd"/><text fill="#404040" font-family="Microsoft YaHei,Microsoft YaHei_MSFontService,sans-serif" font-weight="400" font-size="46" transform="matrix(1 0 0 1 1180.34 1412)">0x07</text><text fill="#404040" font-family="Microsoft YaHei,Microsoft YaHei_MSFontService,sans-serif" font-weight="400" font-size="50" transform="matrix(1 0 0 1 398.184 1282)">Example Values</text><path d="M2072.5 1344.33C2072.5 1330.07 2084.07 1318.5 2098.33 1318.5L2436.67 1318.5C2450.93 1318.5 2462.5 1330.07 2462.5 1344.33L2462.5 1447.67C2462.5 1461.93 2450.93 1473.5 2436.67 1473.5L2098.33 1473.5C2084.07 1473.5 2072.5 1461.93 2072.5 1447.67Z" stroke="#75BD42" stroke-width="4.58333" stroke-miterlimit="8" fill="none" fill-rule="evenodd"/><text fill="#404040" font-family="Microsoft YaHei,Microsoft YaHei_MSFontService,sans-serif" font-weight="400" font-size="46" transform="matrix(1 0 0 1 2161.19 1412)">0xf4 0x01</text><path d="M2462.5 1344.33C2462.5 1330.07 2474.07 1318.5 2488.33 1318.5L2826.67 1318.5C2840.93 1318.5 2852.5 1330.07 2852.5 1344.33L2852.5 1447.67C2852.5 1461.93 2840.93 1473.5 2826.67 1473.5L2488.33 1473.5C2474.07 1473.5 2462.5 1461.93 2462.5 1447.67Z" stroke="#75BD42" stroke-width="4.58333" stroke-miterlimit="8" fill="none" fill-rule="evenodd"/><text fill="#404040" font-family="Microsoft YaHei,Microsoft YaHei_MSFontService,sans-serif" font-weight="400" font-size="46" transform="matrix(1 0 0 1 2545.52 1412)">0x00 0x00</text><path d="M2852.5 1344.33C2852.5 1330.07 2864.07 1318.5 2878.33 1318.5L3124.67 1318.5C3138.93 1318.5 3150.5 1330.07 3150.5 1344.33L3150.5 1447.67C3150.5 1461.93 3138.93 1473.5 3124.67 1473.5L2878.33 1473.5C2864.07 1473.5 2852.5 1461.93 2852.5 1447.67Z" stroke="#8843AB" stroke-width="4.58333" stroke-miterlimit="8" fill="none" fill-rule="evenodd"/><text fill="#404040" font-family="Microsoft YaHei,Microsoft YaHei_MSFontService,sans-serif" font-weight="400" font-size="46" transform="matrix(1 0 0 1 2949.39 1412)">0xe9</text><path d="M2853.5 1056.83C2853.5 1040.08 2867.08 1026.5 2883.83 1026.5L3122.17 1026.5C3138.92 1026.5 3152.5 1040.08 3152.5 1056.83L3152.5 1178.17C3152.5 1194.92 3138.92 1208.5 3122.17 1208.5L2883.83 1208.5C2867.08 1208.5 2853.5 1194.92 2853.5 1178.17Z" stroke="#8843AB" stroke-width="4.58333" stroke-miterlimit="8" fill="#CCCCFF" fill-rule="evenodd"/><text fill="#404040" font-family="Microsoft YaHei,Microsoft YaHei_MSFontService,sans-serif" font-weight="700" font-size="55" transform="matrix(1 0 0 1 2865.96 1094)">checksum</text><text fill="#404040" font-family="Microsoft YaHei,Microsoft YaHei_MSFontService,sans-serif" font-weight="400" font-size="46" transform="matrix(1 0 0 1 2925.82 1181)">[11] 1B</text><path d="M2853.5 1009C2853.5 999.887 2860.89 992.5 2870 992.5L3136 992.5C3145.11 992.5 3152.5 999.887 3152.5 1009L3152.5 1009C3152.5 1018.11 3145.11 1025.5 3136 1025.5L2870 1025.5C2860.89 1025.5 2853.5 1018.11 2853.5 1009Z" stroke="#8843AB" stroke-width="4.58333" stroke-miterlimit="8" fill="#8843AB" fill-rule="evenodd"/><path d="M1385.5 1009C1385.5 999.887 1392.89 992.5 1402 992.5L1668 992.5C1677.11 992.5 1684.5 999.887 1684.5 1009L1684.5 1009C1684.5 1018.11 1677.11 1025.5 1668 1025.5L1402 1025.5C1392.89 1025.5 1385.5 1018.11 1385.5 1009Z" stroke="#75BD42" stroke-width="4.58333" stroke-miterlimit="8" fill="#75BD42" fill-rule="evenodd"/><path d="M1385.5 1056.83C1385.5 1040.08 1399.08 1026.5 1415.83 1026.5L1654.17 1026.5C1670.92 1026.5 1684.5 1040.08 1684.5 1056.83L1684.5 1178.17C1684.5 1194.92 1670.92 1208.5 1654.17 1208.5L1415.83 1208.5C1399.08 1208.5 1385.5 1194.92 1385.5 1178.17Z" stroke="#75BD42" stroke-width="4.58333" stroke-miterlimit="8" fill="#C8E5B3" fill-rule="evenodd"/><text fill="#404040" font-family="Microsoft YaHei,Microsoft YaHei_MSFontService,sans-serif" font-weight="700" font-size="55" transform="matrix(1 0 0 1 1420.17 1094)">servo_id</text><text fill="#404040" font-family="Microsoft YaHei,Microsoft YaHei_MSFontService,sans-serif" font-weight="400" font-size="46" transform="matrix(1 0 0 1 1471.18 1181)">[4] 1B</text><path d="M1383.5 1344.33C1383.5 1330.07 1395.07 1318.5 1409.33 1318.5L1656.67 1318.5C1670.93 1318.5 1682.5 1330.07 1682.5 1344.33L1682.5 1447.67C1682.5 1461.93 1670.93 1473.5 1656.67 1473.5L1409.33 1473.5C1395.07 1473.5 1383.5 1461.93 1383.5 1447.67Z" stroke="#75BD42" stroke-width="4.58333" stroke-miterlimit="8" fill="none" fill-rule="evenodd"/><text fill="#404040" font-family="Microsoft YaHei,Microsoft YaHei_MSFontService,sans-serif" font-weight="400" font-size="46" transform="matrix(1 0 0 1 1480.71 1412)">0</text><text fill="#404040" font-family="Microsoft YaHei,Microsoft YaHei_MSFontService,sans-serif" font-weight="400" font-size="46" transform="matrix(1 0 0 1 1507.63 1412)">x</text><text fill="#404040" font-family="Microsoft YaHei,Microsoft YaHei_MSFontService,sans-serif" font-weight="400" font-size="46" transform="matrix(1 0 0 1 1531.12 1412)">00</text><path d="M1085.5 420C1085.5 410.887 1092.89 403.5 1102 403.5L1368 403.5C1377.11 403.5 1384.5 410.887 1384.5 420L1384.5 420C1384.5 429.113 1377.11 436.5 1368 436.5L1102 436.5C1092.89 436.5 1085.5 429.113 1085.5 420Z" stroke="#2E54A1" stroke-width="4.58333" stroke-miterlimit="8" fill="#2E54A1" fill-rule="evenodd"/><path d="M1085.5 468.667C1085.5 452.006 1099.01 438.5 1115.67 438.5L1354.33 438.5C1370.99 438.5 1384.5 452.006 1384.5 468.667L1384.5 589.333C1384.5 605.994 1370.99 619.5 1354.33 619.5L1115.67 619.5C1099.01 619.5 1085.5 605.994 1085.5 589.333Z" stroke="#2E54A1" stroke-width="4.58333" stroke-miterlimit="8" fill="#B6C7EA" fill-rule="evenodd"/><text fill="#404040" font-family="Microsoft YaHei,Microsoft YaHei_MSFontService,sans-serif" font-weight="700" font-size="55" transform="matrix(1 0 0 1 1145.03 505)">length</text><text fill="#404040" font-family="Microsoft YaHei,Microsoft YaHei_MSFontService,sans-serif" font-weight="400" font-size="46" transform="matrix(1 0 0 1 1170.82 592)">[3] 1B</text><path d="M1083.5 755.501C1083.5 741.141 1095.14 729.5 1109.5 729.5L1356.5 729.5C1370.86 729.5 1382.5 741.141 1382.5 755.501L1382.5 859.499C1382.5 873.859 1370.86 885.5 1356.5 885.5L1109.5 885.5C1095.14 885.5 1083.5 873.859 1083.5 859.499Z" stroke="#2E54A1" stroke-width="4.58333" stroke-miterlimit="8" fill="none" fill-rule="evenodd"/><text fill="#404040" font-family="Microsoft YaHei,Microsoft YaHei_MSFontService,sans-serif" font-weight="400" font-size="46" transform="matrix(1 0 0 1 1180.34 824)">0x0</text><text fill="#404040" font-family="Microsoft YaHei,Microsoft YaHei_MSFontService,sans-serif" font-weight="400" font-size="46" transform="matrix(1 0 0 1 1257.68 824)">0</text><path d="M1381.5 755.501C1381.5 741.141 1393.14 729.5 1407.5 729.5L1654.5 729.5C1668.86 729.5 1680.5 741.141 1680.5 755.501L1680.5 859.499C1680.5 873.859 1668.86 885.5 1654.5 885.5L1407.5 885.5C1393.14 885.5 1381.5 873.859 1381.5 859.499Z" stroke="#8843AB" stroke-width="4.58333" stroke-miterlimit="8" fill="none" fill-rule="evenodd"/><text fill="#404040" font-family="Microsoft YaHei,Microsoft YaHei_MSFontService,sans-serif" font-weight="400" font-size="46" transform="matrix(1 0 0 1 1478.77 824)">0x</text><text fill="#404040" font-family="Microsoft YaHei,Microsoft YaHei_MSFontService,sans-serif" font-weight="400" font-size="46" transform="matrix(1 0 0 1 1529.19 824)">70</text><path d="M1383.5 468.667C1383.5 452.006 1397.01 438.5 1413.67 438.5L1652.33 438.5C1668.99 438.5 1682.5 452.006 1682.5 468.667L1682.5 589.333C1682.5 605.994 1668.99 619.5 1652.33 619.5L1413.67 619.5C1397.01 619.5 1383.5 605.994 1383.5 589.333Z" stroke="#8843AB" stroke-width="4.58333" stroke-miterlimit="8" fill="#CCCCFF" fill-rule="evenodd"/><text fill="#404040" font-family="Microsoft YaHei,Microsoft YaHei_MSFontService,sans-serif" font-weight="700" font-size="55" transform="matrix(1 0 0 1 1395.91 505)">checksum</text><text fill="#404040" font-family="Microsoft YaHei,Microsoft YaHei_MSFontService,sans-serif" font-weight="400" font-size="46" transform="matrix(1 0 0 1 1469.25 592)">[</text><text fill="#404040" font-family="Microsoft YaHei,Microsoft YaHei_MSFontService,sans-serif" font-weight="400" font-size="46" transform="matrix(1 0 0 1 1484.72 592)">4</text><text fill="#404040" font-family="Microsoft YaHei,Microsoft YaHei_MSFontService,sans-serif" font-weight="400" font-size="46" transform="matrix(1 0 0 1 1511.64 592)">] </text><text fill="#404040" font-family="Microsoft YaHei,Microsoft YaHei_MSFontService,sans-serif" font-weight="400" font-size="46" transform="matrix(1 0 0 1 1540.86 592)">1B</text><path d="M1383.5 420C1383.5 410.887 1390.89 403.5 1400 403.5L1666 403.5C1675.11 403.5 1682.5 410.887 1682.5 420L1682.5 420C1682.5 429.113 1675.11 436.5 1666 436.5L1400 436.5C1390.89 436.5 1383.5 429.113 1383.5 420Z" stroke="#8843AB" stroke-width="4.58333" stroke-miterlimit="8" fill="#8843AB" fill-rule="evenodd"/></g></svg>