<svg width="3703" height="1183" xmlns="http://www.w3.org/2000/svg" xmlns:xlink="http://www.w3.org/1999/xlink" xml:space="preserve" overflow="hidden"><g transform="translate(-365 -992)"><path d="M393.5 1115C393.5 1105.89 400.887 1098.5 410 1098.5L767 1098.5C776.113 1098.5 783.5 1105.89 783.5 1115L783.5 1115C783.5 1124.11 776.113 1131.5 767 1131.5L410 1131.5C400.887 1131.5 393.5 1124.11 393.5 1115Z" stroke="#2E54A1" stroke-width="4.58333" stroke-miterlimit="8" fill="#2E54A1" fill-rule="evenodd"/><path d="M393.5 1162.83C393.5 1146.08 407.081 1132.5 423.834 1132.5L753.166 1132.5C769.919 1132.5 783.5 1146.08 783.5 1162.83L783.5 1284.17C783.5 1300.92 769.919 1314.5 753.166 1314.5L423.834 1314.5C407.081 1314.5 393.5 1300.92 393.5 1284.17Z" stroke="#2E54A1" stroke-width="4.58333" stroke-miterlimit="8" fill="#B6C7EA" fill-rule="evenodd"/><text fill="#404040" font-family="Microsoft YaHei,Microsoft YaHei_MSFontService,sans-serif" font-weight="700" font-size="55" transform="matrix(1 0 0 1 492.138 1200)">header</text><text fill="#404040" font-family="Microsoft YaHei,Microsoft YaHei_MSFontService,sans-serif" font-weight="400" font-size="46" transform="matrix(1 0 0 1 500.731 1287)">[0</text><text fill="#404040" font-family="Microsoft YaHei,Microsoft YaHei_MSFontService,sans-serif" font-weight="400" font-size="46" transform="matrix(1 0 0 1 543.127 1287)">-</text><text fill="#404040" font-family="Microsoft YaHei,Microsoft YaHei_MSFontService,sans-serif" font-weight="400" font-size="46" transform="matrix(1 0 0 1 563.179 1287)">1] 2B</text><path d="M784.5 1115C784.5 1105.89 791.887 1098.5 801 1098.5L1067 1098.5C1076.11 1098.5 1083.5 1105.89 1083.5 1115L1083.5 1115C1083.5 1124.11 1076.11 1131.5 1067 1131.5L801 1131.5C791.887 1131.5 784.5 1124.11 784.5 1115Z" stroke="#2E54A1" stroke-width="4.58333" stroke-miterlimit="8" fill="#2E54A1" fill-rule="evenodd"/><path d="M784.5 1162.83C784.5 1146.08 798.081 1132.5 814.834 1132.5L1053.17 1132.5C1069.92 1132.5 1083.5 1146.08 1083.5 1162.83L1083.5 1284.17C1083.5 1300.92 1069.92 1314.5 1053.17 1314.5L814.834 1314.5C798.081 1314.5 784.5 1300.92 784.5 1284.17Z" stroke="#2E54A1" stroke-width="4.58333" stroke-miterlimit="8" fill="#B6C7EA" fill-rule="evenodd"/><text fill="#404040" font-family="Microsoft YaHei,Microsoft YaHei_MSFontService,sans-serif" font-weight="700" font-size="55" transform="matrix(1 0 0 1 835.4 1200)">cmd_id</text><text fill="#404040" font-family="Microsoft YaHei,Microsoft YaHei_MSFontService,sans-serif" font-weight="400" font-size="46" transform="matrix(1 0 0 1 870.05 1287)">[2] 1B</text><path d="M1083.5 1115C1083.5 1105.89 1090.89 1098.5 1100 1098.5L1366 1098.5C1375.11 1098.5 1382.5 1105.89 1382.5 1115L1382.5 1115C1382.5 1124.11 1375.11 1131.5 1366 1131.5L1100 1131.5C1090.89 1131.5 1083.5 1124.11 1083.5 1115Z" stroke="#2E54A1" stroke-width="4.58333" stroke-miterlimit="8" fill="#2E54A1" fill-rule="evenodd"/><path d="M1083.5 1162.83C1083.5 1146.08 1097.08 1132.5 1113.83 1132.5L1352.17 1132.5C1368.92 1132.5 1382.5 1146.08 1382.5 1162.83L1382.5 1284.17C1382.5 1300.92 1368.92 1314.5 1352.17 1314.5L1113.83 1314.5C1097.08 1314.5 1083.5 1300.92 1083.5 1284.17Z" stroke="#2E54A1" stroke-width="4.58333" stroke-miterlimit="8" fill="#B6C7EA" fill-rule="evenodd"/><text fill="#404040" font-family="Microsoft YaHei,Microsoft YaHei_MSFontService,sans-serif" font-weight="700" font-size="55" transform="matrix(1 0 0 1 1143.1 1200)">length</text><text fill="#404040" font-family="Microsoft YaHei,Microsoft YaHei_MSFontService,sans-serif" font-weight="400" font-size="46" transform="matrix(1 0 0 1 1168.88 1287)">[3] 1B</text><text fill="#404040" font-family="Microsoft YaHei,Microsoft YaHei_MSFontService,sans-serif" font-weight="400" font-size="50" transform="matrix(1 0 0 1 398.184 1065)">Command</text><path d="M2578.5 1116C2578.5 1106.89 2585.89 1099.5 2595 1099.5L2952 1099.5C2961.11 1099.5 2968.5 1106.89 2968.5 1116L2968.5 1116C2968.5 1125.11 2961.11 1132.5 2952 1132.5L2595 1132.5C2585.89 1132.5 2578.5 1125.11 2578.5 1116Z" stroke="#75BD42" stroke-width="4.58333" stroke-miterlimit="8" fill="#75BD42" fill-rule="evenodd"/><path d="M2578.5 1163.83C2578.5 1147.08 2592.08 1133.5 2608.83 1133.5L2938.17 1133.5C2954.92 1133.5 2968.5 1147.08 2968.5 1163.83L2968.5 1285.17C2968.5 1301.92 2954.92 1315.5 2938.17 1315.5L2608.83 1315.5C2592.08 1315.5 2578.5 1301.92 2578.5 1285.17Z" stroke="#75BD42" stroke-width="4.58333" stroke-miterlimit="8" fill="#C8E5B3" fill-rule="evenodd"/><text fill="#404040" font-family="Microsoft YaHei,Microsoft YaHei_MSFontService,sans-serif" font-weight="700" font-size="55" transform="matrix(1 0 0 1 2659.68 1201)">position</text><text fill="#404040" font-family="Microsoft YaHei,Microsoft YaHei_MSFontService,sans-serif" font-weight="400" font-size="46" transform="matrix(1 0 0 1 2685.74 1288)">[</text><text fill="#404040" font-family="Microsoft YaHei,Microsoft YaHei_MSFontService,sans-serif" font-weight="400" font-size="46" transform="matrix(1 0 0 1 2701.21 1288)">8</text><text fill="#404040" font-family="Microsoft YaHei,Microsoft YaHei_MSFontService,sans-serif" font-weight="400" font-size="46" transform="matrix(1 0 0 1 2728.13 1288)">-</text><text fill="#404040" font-family="Microsoft YaHei,Microsoft YaHei_MSFontService,sans-serif" font-weight="400" font-size="46" transform="matrix(1 0 0 1 2748.19 1288)">9</text><text fill="#404040" font-family="Microsoft YaHei,Microsoft YaHei_MSFontService,sans-serif" font-weight="400" font-size="46" transform="matrix(1 0 0 1 2775.11 1288)">] </text><text fill="#404040" font-family="Microsoft YaHei,Microsoft YaHei_MSFontService,sans-serif" font-weight="400" font-size="46" transform="matrix(1 0 0 1 2804.33 1288)">2B</text><path d="M2968.5 1116C2968.5 1106.89 2975.89 1099.5 2985 1099.5L3341 1099.5C3350.11 1099.5 3357.5 1106.89 3357.5 1116L3357.5 1116C3357.5 1125.11 3350.11 1132.5 3341 1132.5L2985 1132.5C2975.89 1132.5 2968.5 1125.11 2968.5 1116Z" stroke="#75BD42" stroke-width="4.58333" stroke-miterlimit="8" fill="#75BD42" fill-rule="evenodd"/><path d="M2968.5 1163.83C2968.5 1147.08 2982.08 1133.5 2998.83 1133.5L3327.17 1133.5C3343.92 1133.5 3357.5 1147.08 3357.5 1163.83L3357.5 1285.17C3357.5 1301.92 3343.92 1315.5 3327.17 1315.5L2998.83 1315.5C2982.08 1315.5 2968.5 1301.92 2968.5 1285.17Z" stroke="#75BD42" stroke-width="4.58333" stroke-miterlimit="8" fill="#C8E5B3" fill-rule="evenodd"/><text fill="#404040" font-family="Microsoft YaHei,Microsoft YaHei_MSFontService,sans-serif" font-weight="700" font-size="55" transform="matrix(1 0 0 1 3100.15 1201)">time</text><text fill="#404040" font-family="Microsoft YaHei,Microsoft YaHei_MSFontService,sans-serif" font-weight="400" font-size="46" transform="matrix(1 0 0 1 3048.59 1288)">[</text><text fill="#404040" font-family="Microsoft YaHei,Microsoft YaHei_MSFontService,sans-serif" font-weight="400" font-size="46" transform="matrix(1 0 0 1 3064.05 1288)">10</text><text fill="#404040" font-family="Microsoft YaHei,Microsoft YaHei_MSFontService,sans-serif" font-weight="400" font-size="46" transform="matrix(1 0 0 1 3117.91 1288)">-</text><text fill="#404040" font-family="Microsoft YaHei,Microsoft YaHei_MSFontService,sans-serif" font-weight="400" font-size="46" transform="matrix(1 0 0 1 3137.96 1288)">11</text><text fill="#404040" font-family="Microsoft YaHei,Microsoft YaHei_MSFontService,sans-serif" font-weight="400" font-size="46" transform="matrix(1 0 0 1 3191.82 1288)">] </text><text fill="#404040" font-family="Microsoft YaHei,Microsoft YaHei_MSFontService,sans-serif" font-weight="400" font-size="46" transform="matrix(1 0 0 1 3221.03 1288)">2B</text><path d="M3357.5 1116C3357.5 1106.89 3364.89 1099.5 3374 1099.5L3731 1099.5C3740.11 1099.5 3747.5 1106.89 3747.5 1116L3747.5 1116C3747.5 1125.11 3740.11 1132.5 3731 1132.5L3374 1132.5C3364.89 1132.5 3357.5 1125.11 3357.5 1116Z" stroke="#75BD42" stroke-width="4.58333" stroke-miterlimit="8" fill="#75BD42" fill-rule="evenodd"/><path d="M3357.5 1163.83C3357.5 1147.08 3371.08 1133.5 3387.83 1133.5L3717.17 1133.5C3733.92 1133.5 3747.5 1147.08 3747.5 1163.83L3747.5 1285.17C3747.5 1301.92 3733.92 1315.5 3717.17 1315.5L3387.83 1315.5C3371.08 1315.5 3357.5 1301.92 3357.5 1285.17Z" stroke="#75BD42" stroke-width="4.58333" stroke-miterlimit="8" fill="#C8E5B3" fill-rule="evenodd"/><text fill="#404040" font-family="Microsoft YaHei,Microsoft YaHei_MSFontService,sans-serif" font-weight="700" font-size="55" transform="matrix(1 0 0 1 3464.84 1201)">power</text><text fill="#404040" font-family="Microsoft YaHei,Microsoft YaHei_MSFontService,sans-serif" font-weight="400" font-size="46" transform="matrix(1 0 0 1 3438.35 1288)">[</text><text fill="#404040" font-family="Microsoft YaHei,Microsoft YaHei_MSFontService,sans-serif" font-weight="400" font-size="46" transform="matrix(1 0 0 1 3453.82 1288)">12</text><text fill="#404040" font-family="Microsoft YaHei,Microsoft YaHei_MSFontService,sans-serif" font-weight="400" font-size="46" transform="matrix(1 0 0 1 3507.67 1288)">-</text><text fill="#404040" font-family="Microsoft YaHei,Microsoft YaHei_MSFontService,sans-serif" font-weight="400" font-size="46" transform="matrix(1 0 0 1 3527.72 1288)">1</text><text fill="#404040" font-family="Microsoft YaHei,Microsoft YaHei_MSFontService,sans-serif" font-weight="400" font-size="46" transform="matrix(1 0 0 1 3554.65 1288)">3</text><text fill="#404040" font-family="Microsoft YaHei,Microsoft YaHei_MSFontService,sans-serif" font-weight="400" font-size="46" transform="matrix(1 0 0 1 3581.58 1288)">] </text><text fill="#404040" font-family="Microsoft YaHei,Microsoft YaHei_MSFontService,sans-serif" font-weight="400" font-size="46" transform="matrix(1 0 0 1 3610.8 1288)">2B</text><path d="M391.5 1450.5C391.5 1436.14 403.141 1424.5 417.5 1424.5L755.499 1424.5C769.859 1424.5 781.5 1436.14 781.5 1450.5L781.5 1554.5C781.5 1568.86 769.859 1580.5 755.499 1580.5L417.5 1580.5C403.141 1580.5 391.5 1568.86 391.5 1554.5Z" stroke="#2E54A1" stroke-width="4.58333" stroke-miterlimit="8" fill="none" fill-rule="evenodd"/><text fill="#404040" font-family="Microsoft YaHei,Microsoft YaHei_MSFontService,sans-serif" font-weight="400" font-size="46" transform="matrix(1 0 0 1 476.738 1519)">0x12 0x4c</text><path d="M2576.5 1451.5C2576.5 1437.14 2588.14 1425.5 2602.5 1425.5L2940.5 1425.5C2954.86 1425.5 2966.5 1437.14 2966.5 1451.5L2966.5 1555.5C2966.5 1569.86 2954.86 1581.5 2940.5 1581.5L2602.5 1581.5C2588.14 1581.5 2576.5 1569.86 2576.5 1555.5Z" stroke="#75BD42" stroke-width="4.58333" stroke-miterlimit="8" fill="none" fill-rule="evenodd"/><text fill="#404040" font-family="Microsoft YaHei,Microsoft YaHei_MSFontService,sans-serif" font-weight="400" font-size="46" transform="matrix(1 0 0 1 2661.76 1520)">0x2c 0x01</text><path d="M782.5 1450.5C782.5 1436.14 794.141 1424.5 808.501 1424.5L1055.5 1424.5C1069.86 1424.5 1081.5 1436.14 1081.5 1450.5L1081.5 1554.5C1081.5 1568.86 1069.86 1580.5 1055.5 1580.5L808.501 1580.5C794.141 1580.5 782.5 1568.86 782.5 1554.5Z" stroke="#2E54A1" stroke-width="4.58333" stroke-miterlimit="8" fill="none" fill-rule="evenodd"/><text fill="#404040" font-family="Microsoft YaHei,Microsoft YaHei_MSFontService,sans-serif" font-weight="400" font-size="46" transform="matrix(1 0 0 1 879.584 1519)">0x</text><text fill="#404040" font-family="Microsoft YaHei,Microsoft YaHei_MSFontService,sans-serif" font-weight="400" font-size="46" transform="matrix(1 0 0 1 930.001 1519)">19</text><path d="M1081.5 1450.5C1081.5 1436.14 1093.14 1424.5 1107.5 1424.5L1354.5 1424.5C1368.86 1424.5 1380.5 1436.14 1380.5 1450.5L1380.5 1554.5C1380.5 1568.86 1368.86 1580.5 1354.5 1580.5L1107.5 1580.5C1093.14 1580.5 1081.5 1568.86 1081.5 1554.5Z" stroke="#2E54A1" stroke-width="4.58333" stroke-miterlimit="8" fill="none" fill-rule="evenodd"/><text fill="#404040" font-family="Microsoft YaHei,Microsoft YaHei_MSFontService,sans-serif" font-weight="400" font-size="46" transform="matrix(1 0 0 1 1178.4 1519)">0x</text><text fill="#404040" font-family="Microsoft YaHei,Microsoft YaHei_MSFontService,sans-serif" font-weight="400" font-size="46" transform="matrix(1 0 0 1 1228.82 1519)">11</text><text fill="#404040" font-family="Microsoft YaHei,Microsoft YaHei_MSFontService,sans-serif" font-weight="400" font-size="50" transform="matrix(1 0 0 1 396.249 1389)">Example Values</text><path d="M2966.5 1451.5C2966.5 1437.14 2978.14 1425.5 2992.5 1425.5L3330.5 1425.5C3344.86 1425.5 3356.5 1437.14 3356.5 1451.5L3356.5 1555.5C3356.5 1569.86 3344.86 1581.5 3330.5 1581.5L2992.5 1581.5C2978.14 1581.5 2966.5 1569.86 2966.5 1555.5Z" stroke="#75BD42" stroke-width="4.58333" stroke-miterlimit="8" fill="none" fill-rule="evenodd"/><text fill="#404040" font-family="Microsoft YaHei,Microsoft YaHei_MSFontService,sans-serif" font-weight="400" font-size="46" transform="matrix(1 0 0 1 3050.09 1520)">0xe8 0x03</text><path d="M3356.5 1451.5C3356.5 1437.14 3368.14 1425.5 3382.5 1425.5L3719.5 1425.5C3733.86 1425.5 3745.5 1437.14 3745.5 1451.5L3745.5 1555.5C3745.5 1569.86 3733.86 1581.5 3719.5 1581.5L3382.5 1581.5C3368.14 1581.5 3356.5 1569.86 3356.5 1555.5Z" stroke="#75BD42" stroke-width="4.58333" stroke-miterlimit="8" fill="none" fill-rule="evenodd"/><text fill="#404040" font-family="Microsoft YaHei,Microsoft YaHei_MSFontService,sans-serif" font-weight="400" font-size="46" transform="matrix(1 0 0 1 3439.28 1520)">0x00 0x00</text><path d="M1382.5 1115C1382.5 1105.89 1389.89 1098.5 1399 1098.5L1665 1098.5C1674.11 1098.5 1681.5 1105.89 1681.5 1115L1681.5 1115C1681.5 1124.11 1674.11 1131.5 1665 1131.5L1399 1131.5C1389.89 1131.5 1382.5 1124.11 1382.5 1115Z" stroke="#75BD42" stroke-width="4.58333" stroke-miterlimit="8" fill="#75BD42" fill-rule="evenodd"/><path d="M1382.5 1162.83C1382.5 1146.08 1396.08 1132.5 1412.83 1132.5L1651.17 1132.5C1667.92 1132.5 1681.5 1146.08 1681.5 1162.83L1681.5 1284.17C1681.5 1300.92 1667.92 1314.5 1651.17 1314.5L1412.83 1314.5C1396.08 1314.5 1382.5 1300.92 1382.5 1284.17Z" stroke="#75BD42" stroke-width="4.58333" stroke-miterlimit="8" fill="#C8E5B3" fill-rule="evenodd"/><text fill="#404040" font-family="Microsoft YaHei,Microsoft YaHei_MSFontService,sans-serif" font-weight="700" font-size="55" transform="matrix(1 0 0 1 1433.04 1200)">cm</text><text fill="#404040" font-family="Microsoft YaHei,Microsoft YaHei_MSFontService,sans-serif" font-weight="700" font-size="55" transform="matrix(1 0 0 1 1515.54 1200)">d</text><text fill="#404040" font-family="Microsoft YaHei,Microsoft YaHei_MSFontService,sans-serif" font-weight="700" font-size="55" transform="matrix(1 0 0 1 1552.2 1200)">_</text><text fill="#404040" font-family="Microsoft YaHei,Microsoft YaHei_MSFontService,sans-serif" font-weight="700" font-size="55" transform="matrix(1 0 0 1 1576.84 1200)">id</text><text fill="#404040" font-family="Microsoft YaHei,Microsoft YaHei_MSFontService,sans-serif" font-weight="400" font-size="46" transform="matrix(1 0 0 1 1467.69 1287)">[</text><text fill="#404040" font-family="Microsoft YaHei,Microsoft YaHei_MSFontService,sans-serif" font-weight="400" font-size="46" transform="matrix(1 0 0 1 1483.16 1287)">4</text><text fill="#404040" font-family="Microsoft YaHei,Microsoft YaHei_MSFontService,sans-serif" font-weight="400" font-size="46" transform="matrix(1 0 0 1 1510.08 1287)">] </text><text fill="#404040" font-family="Microsoft YaHei,Microsoft YaHei_MSFontService,sans-serif" font-weight="400" font-size="46" transform="matrix(1 0 0 1 1539.3 1287)">1B</text><path d="M1380.5 1450.5C1380.5 1436.14 1392.14 1424.5 1406.5 1424.5L1653.5 1424.5C1667.86 1424.5 1679.5 1436.14 1679.5 1450.5L1679.5 1554.5C1679.5 1568.86 1667.86 1580.5 1653.5 1580.5L1406.5 1580.5C1392.14 1580.5 1380.5 1568.86 1380.5 1554.5Z" stroke="#75BD42" stroke-width="4.58333" stroke-miterlimit="8" fill="none" fill-rule="evenodd"/><text fill="#404040" font-family="Microsoft YaHei,Microsoft YaHei_MSFontService,sans-serif" font-weight="400" font-size="46" transform="matrix(1 0 0 1 1477.22 1519)">0x0</text><text fill="#404040" font-family="Microsoft YaHei,Microsoft YaHei_MSFontService,sans-serif" font-weight="400" font-size="46" transform="matrix(1 0 0 1 1554.57 1519)">8</text><path d="M2579.5 1707C2579.5 1697.89 2586.89 1690.5 2596 1690.5L2953 1690.5C2962.11 1690.5 2969.5 1697.89 2969.5 1707L2969.5 1707C2969.5 1716.11 2962.11 1723.5 2953 1723.5L2596 1723.5C2586.89 1723.5 2579.5 1716.11 2579.5 1707Z" stroke="#75BD42" stroke-width="4.58333" stroke-miterlimit="8" fill="#75BD42" fill-rule="evenodd"/><path d="M2579.5 1754.83C2579.5 1738.08 2593.08 1724.5 2609.83 1724.5L2939.17 1724.5C2955.92 1724.5 2969.5 1738.08 2969.5 1754.83L2969.5 1876.17C2969.5 1892.92 2955.92 1906.5 2939.17 1906.5L2609.83 1906.5C2593.08 1906.5 2579.5 1892.92 2579.5 1876.17Z" stroke="#75BD42" stroke-width="4.58333" stroke-miterlimit="8" fill="#C8E5B3" fill-rule="evenodd"/><text fill="#404040" font-family="Microsoft YaHei,Microsoft YaHei_MSFontService,sans-serif" font-weight="700" font-size="55" transform="matrix(1 0 0 1 2660.95 1792)">position</text><text fill="#404040" font-family="Microsoft YaHei,Microsoft YaHei_MSFontService,sans-serif" font-weight="400" font-size="46" transform="matrix(1 0 0 1 2660.08 1879)">[</text><text fill="#404040" font-family="Microsoft YaHei,Microsoft YaHei_MSFontService,sans-serif" font-weight="400" font-size="46" transform="matrix(1 0 0 1 2675.54 1879)">15</text><text fill="#404040" font-family="Microsoft YaHei,Microsoft YaHei_MSFontService,sans-serif" font-weight="400" font-size="46" transform="matrix(1 0 0 1 2729.4 1879)">-</text><text fill="#404040" font-family="Microsoft YaHei,Microsoft YaHei_MSFontService,sans-serif" font-weight="400" font-size="46" transform="matrix(1 0 0 1 2749.45 1879)">16</text><text fill="#404040" font-family="Microsoft YaHei,Microsoft YaHei_MSFontService,sans-serif" font-weight="400" font-size="46" transform="matrix(1 0 0 1 2803.3 1879)">] </text><text fill="#404040" font-family="Microsoft YaHei,Microsoft YaHei_MSFontService,sans-serif" font-weight="400" font-size="46" transform="matrix(1 0 0 1 2832.52 1879)">2B</text><path d="M2969.5 1707C2969.5 1697.89 2976.89 1690.5 2986 1690.5L3343 1690.5C3352.11 1690.5 3359.5 1697.89 3359.5 1707L3359.5 1707C3359.5 1716.11 3352.11 1723.5 3343 1723.5L2986 1723.5C2976.89 1723.5 2969.5 1716.11 2969.5 1707Z" stroke="#75BD42" stroke-width="4.58333" stroke-miterlimit="8" fill="#75BD42" fill-rule="evenodd"/><path d="M2969.5 1754.83C2969.5 1738.08 2983.08 1724.5 2999.83 1724.5L3329.17 1724.5C3345.92 1724.5 3359.5 1738.08 3359.5 1754.83L3359.5 1876.17C3359.5 1892.92 3345.92 1906.5 3329.17 1906.5L2999.83 1906.5C2983.08 1906.5 2969.5 1892.92 2969.5 1876.17Z" stroke="#75BD42" stroke-width="4.58333" stroke-miterlimit="8" fill="#C8E5B3" fill-rule="evenodd"/><text fill="#404040" font-family="Microsoft YaHei,Microsoft YaHei_MSFontService,sans-serif" font-weight="700" font-size="55" transform="matrix(1 0 0 1 3101.4 1792)">time</text><text fill="#404040" font-family="Microsoft YaHei,Microsoft YaHei_MSFontService,sans-serif" font-weight="400" font-size="46" transform="matrix(1 0 0 1 3049.84 1879)">[</text><text fill="#404040" font-family="Microsoft YaHei,Microsoft YaHei_MSFontService,sans-serif" font-weight="400" font-size="46" transform="matrix(1 0 0 1 3065.31 1879)">17</text><text fill="#404040" font-family="Microsoft YaHei,Microsoft YaHei_MSFontService,sans-serif" font-weight="400" font-size="46" transform="matrix(1 0 0 1 3119.16 1879)">-</text><text fill="#404040" font-family="Microsoft YaHei,Microsoft YaHei_MSFontService,sans-serif" font-weight="400" font-size="46" transform="matrix(1 0 0 1 3139.21 1879)">18</text><text fill="#404040" font-family="Microsoft YaHei,Microsoft YaHei_MSFontService,sans-serif" font-weight="400" font-size="46" transform="matrix(1 0 0 1 3193.07 1879)">] </text><text fill="#404040" font-family="Microsoft YaHei,Microsoft YaHei_MSFontService,sans-serif" font-weight="400" font-size="46" transform="matrix(1 0 0 1 3222.29 1879)">2B</text><path d="M3359.5 1707C3359.5 1697.89 3366.89 1690.5 3376 1690.5L3732 1690.5C3741.11 1690.5 3748.5 1697.89 3748.5 1707L3748.5 1707C3748.5 1716.11 3741.11 1723.5 3732 1723.5L3376 1723.5C3366.89 1723.5 3359.5 1716.11 3359.5 1707Z" stroke="#75BD42" stroke-width="4.58333" stroke-miterlimit="8" fill="#75BD42" fill-rule="evenodd"/><path d="M3359.5 1754.83C3359.5 1738.08 3373.08 1724.5 3389.83 1724.5L3718.17 1724.5C3734.92 1724.5 3748.5 1738.08 3748.5 1754.83L3748.5 1876.17C3748.5 1892.92 3734.92 1906.5 3718.17 1906.5L3389.83 1906.5C3373.08 1906.5 3359.5 1892.92 3359.5 1876.17Z" stroke="#75BD42" stroke-width="4.58333" stroke-miterlimit="8" fill="#C8E5B3" fill-rule="evenodd"/><text fill="#404040" font-family="Microsoft YaHei,Microsoft YaHei_MSFontService,sans-serif" font-weight="700" font-size="55" transform="matrix(1 0 0 1 3466.09 1792)">power</text><text fill="#404040" font-family="Microsoft YaHei,Microsoft YaHei_MSFontService,sans-serif" font-weight="400" font-size="46" transform="matrix(1 0 0 1 3439.6 1879)">[</text><text fill="#404040" font-family="Microsoft YaHei,Microsoft YaHei_MSFontService,sans-serif" font-weight="400" font-size="46" transform="matrix(1 0 0 1 3455.07 1879)">19</text><text fill="#404040" font-family="Microsoft YaHei,Microsoft YaHei_MSFontService,sans-serif" font-weight="400" font-size="46" transform="matrix(1 0 0 1 3508.93 1879)">-</text><text fill="#404040" font-family="Microsoft YaHei,Microsoft YaHei_MSFontService,sans-serif" font-weight="400" font-size="46" transform="matrix(1 0 0 1 3528.98 1879)">20</text><text fill="#404040" font-family="Microsoft YaHei,Microsoft YaHei_MSFontService,sans-serif" font-weight="400" font-size="46" transform="matrix(1 0 0 1 3582.83 1879)">] </text><text fill="#404040" font-family="Microsoft YaHei,Microsoft YaHei_MSFontService,sans-serif" font-weight="400" font-size="46" transform="matrix(1 0 0 1 3612.05 1879)">2B</text><path d="M2577.5 2042.5C2577.5 2028.14 2589.14 2016.5 2603.5 2016.5L2941.5 2016.5C2955.86 2016.5 2967.5 2028.14 2967.5 2042.5L2967.5 2146.5C2967.5 2160.86 2955.86 2172.5 2941.5 2172.5L2603.5 2172.5C2589.14 2172.5 2577.5 2160.86 2577.5 2146.5Z" stroke="#75BD42" stroke-width="4.58333" stroke-miterlimit="8" fill="none" fill-rule="evenodd"/><text fill="#404040" font-family="Microsoft YaHei,Microsoft YaHei_MSFontService,sans-serif" font-weight="400" font-size="46" transform="matrix(1 0 0 1 2661 2110)">0x58 0x02</text><path d="M2967.5 2042.5C2967.5 2028.14 2979.14 2016.5 2993.5 2016.5L3331.5 2016.5C3345.86 2016.5 3357.5 2028.14 3357.5 2042.5L3357.5 2146.5C3357.5 2160.86 3345.86 2172.5 3331.5 2172.5L2993.5 2172.5C2979.14 2172.5 2967.5 2160.86 2967.5 2146.5Z" stroke="#75BD42" stroke-width="4.58333" stroke-miterlimit="8" fill="none" fill-rule="evenodd"/><text fill="#404040" font-family="Microsoft YaHei,Microsoft YaHei_MSFontService,sans-serif" font-weight="400" font-size="46" transform="matrix(1 0 0 1 3049.62 2110)">0xd0 0x07</text><path d="M3357.5 2042.5C3357.5 2028.14 3369.14 2016.5 3383.5 2016.5L3721.5 2016.5C3735.86 2016.5 3747.5 2028.14 3747.5 2042.5L3747.5 2146.5C3747.5 2160.86 3735.86 2172.5 3721.5 2172.5L3383.5 2172.5C3369.14 2172.5 3357.5 2160.86 3357.5 2146.5Z" stroke="#75BD42" stroke-width="4.58333" stroke-miterlimit="8" fill="none" fill-rule="evenodd"/><text fill="#404040" font-family="Microsoft YaHei,Microsoft YaHei_MSFontService,sans-serif" font-weight="400" font-size="46" transform="matrix(1 0 0 1 3440.53 2110)">0x00 0x00</text><path d="M3747.5 2042.5C3747.5 2028.14 3759.14 2016.5 3773.5 2016.5L4019.5 2016.5C4033.86 2016.5 4045.5 2028.14 4045.5 2042.5L4045.5 2146.5C4045.5 2160.86 4033.86 2172.5 4019.5 2172.5L3773.5 2172.5C3759.14 2172.5 3747.5 2160.86 3747.5 2146.5Z" stroke="#8843AB" stroke-width="4.58333" stroke-miterlimit="8" fill="none" fill-rule="evenodd"/><text fill="#404040" font-family="Microsoft YaHei,Microsoft YaHei_MSFontService,sans-serif" font-weight="400" font-size="46" transform="matrix(1 0 0 1 3844.41 2110)">0xe</text><text fill="#404040" font-family="Microsoft YaHei,Microsoft YaHei_MSFontService,sans-serif" font-weight="400" font-size="46" transform="matrix(1 0 0 1 3920.6 2110)">5</text><path d="M3748.5 1754.83C3748.5 1738.08 3762.08 1724.5 3778.83 1724.5L4017.17 1724.5C4033.92 1724.5 4047.5 1738.08 4047.5 1754.83L4047.5 1876.17C4047.5 1892.92 4033.92 1906.5 4017.17 1906.5L3778.83 1906.5C3762.08 1906.5 3748.5 1892.92 3748.5 1876.17Z" stroke="#8843AB" stroke-width="4.58333" stroke-miterlimit="8" fill="#CCCCFF" fill-rule="evenodd"/><text fill="#404040" font-family="Microsoft YaHei,Microsoft YaHei_MSFontService,sans-serif" font-weight="700" font-size="55" transform="matrix(1 0 0 1 3760.98 1792)">checksum</text><text fill="#404040" font-family="Microsoft YaHei,Microsoft YaHei_MSFontService,sans-serif" font-weight="400" font-size="46" transform="matrix(1 0 0 1 3820.84 1879)">[</text><text fill="#404040" font-family="Microsoft YaHei,Microsoft YaHei_MSFontService,sans-serif" font-weight="400" font-size="46" transform="matrix(1 0 0 1 3836.3 1879)">2</text><text fill="#404040" font-family="Microsoft YaHei,Microsoft YaHei_MSFontService,sans-serif" font-weight="400" font-size="46" transform="matrix(1 0 0 1 3863.23 1879)">1</text><text fill="#404040" font-family="Microsoft YaHei,Microsoft YaHei_MSFontService,sans-serif" font-weight="400" font-size="46" transform="matrix(1 0 0 1 3890.16 1879)">] </text><text fill="#404040" font-family="Microsoft YaHei,Microsoft YaHei_MSFontService,sans-serif" font-weight="400" font-size="46" transform="matrix(1 0 0 1 3919.38 1879)">1B</text><path d="M3748.5 1707C3748.5 1697.89 3755.89 1690.5 3765 1690.5L4031 1690.5C4040.11 1690.5 4047.5 1697.89 4047.5 1707L4047.5 1707C4047.5 1716.11 4040.11 1723.5 4031 1723.5L3765 1723.5C3755.89 1723.5 3748.5 1716.11 3748.5 1707Z" stroke="#8843AB" stroke-width="4.58333" stroke-miterlimit="8" fill="#8843AB" fill-rule="evenodd"/><path d="M2280.5 1707C2280.5 1697.89 2287.89 1690.5 2297 1690.5L2563 1690.5C2572.11 1690.5 2579.5 1697.89 2579.5 1707L2579.5 1707C2579.5 1716.11 2572.11 1723.5 2563 1723.5L2297 1723.5C2287.89 1723.5 2280.5 1716.11 2280.5 1707Z" stroke="#75BD42" stroke-width="4.58333" stroke-miterlimit="8" fill="#75BD42" fill-rule="evenodd"/><path d="M2280.5 1754.83C2280.5 1738.08 2294.08 1724.5 2310.83 1724.5L2549.17 1724.5C2565.92 1724.5 2579.5 1738.08 2579.5 1754.83L2579.5 1876.17C2579.5 1892.92 2565.92 1906.5 2549.17 1906.5L2310.83 1906.5C2294.08 1906.5 2280.5 1892.92 2280.5 1876.17Z" stroke="#75BD42" stroke-width="4.58333" stroke-miterlimit="8" fill="#C8E5B3" fill-rule="evenodd"/><text fill="#404040" font-family="Microsoft YaHei,Microsoft YaHei_MSFontService,sans-serif" font-weight="700" font-size="55" transform="matrix(1 0 0 1 2315.19 1792)">servo_id</text><text fill="#404040" font-family="Microsoft YaHei,Microsoft YaHei_MSFontService,sans-serif" font-weight="400" font-size="46" transform="matrix(1 0 0 1 2352.75 1879)">[</text><text fill="#404040" font-family="Microsoft YaHei,Microsoft YaHei_MSFontService,sans-serif" font-weight="400" font-size="46" transform="matrix(1 0 0 1 2368.22 1879)">14</text><text fill="#404040" font-family="Microsoft YaHei,Microsoft YaHei_MSFontService,sans-serif" font-weight="400" font-size="46" transform="matrix(1 0 0 1 2422.07 1879)">] </text><text fill="#404040" font-family="Microsoft YaHei,Microsoft YaHei_MSFontService,sans-serif" font-weight="400" font-size="46" transform="matrix(1 0 0 1 2451.29 1879)">1B</text><path d="M2278.5 2042.5C2278.5 2028.14 2290.14 2016.5 2304.5 2016.5L2551.5 2016.5C2565.86 2016.5 2577.5 2028.14 2577.5 2042.5L2577.5 2146.5C2577.5 2160.86 2565.86 2172.5 2551.5 2172.5L2304.5 2172.5C2290.14 2172.5 2278.5 2160.86 2278.5 2146.5Z" stroke="#75BD42" stroke-width="4.58333" stroke-miterlimit="8" fill="none" fill-rule="evenodd"/><text fill="#404040" font-family="Microsoft YaHei,Microsoft YaHei_MSFontService,sans-serif" font-weight="400" font-size="46" transform="matrix(1 0 0 1 2375.72 2110)">0x0</text><text fill="#404040" font-family="Microsoft YaHei,Microsoft YaHei_MSFontService,sans-serif" font-weight="400" font-size="46" transform="matrix(1 0 0 1 2453.07 2110)">2</text><path d="M1680.5 1116C1680.5 1106.89 1687.89 1099.5 1697 1099.5L1963 1099.5C1972.11 1099.5 1979.5 1106.89 1979.5 1116L1979.5 1116C1979.5 1125.11 1972.11 1132.5 1963 1132.5L1697 1132.5C1687.89 1132.5 1680.5 1125.11 1680.5 1116Z" stroke="#75BD42" stroke-width="4.58333" stroke-miterlimit="8" fill="#75BD42" fill-rule="evenodd"/><path d="M1680.5 1163.83C1680.5 1147.08 1694.08 1133.5 1710.83 1133.5L1949.17 1133.5C1965.92 1133.5 1979.5 1147.08 1979.5 1163.83L1979.5 1285.17C1979.5 1301.92 1965.92 1315.5 1949.17 1315.5L1710.83 1315.5C1694.08 1315.5 1680.5 1301.92 1680.5 1285.17Z" stroke="#75BD42" stroke-width="4.58333" stroke-miterlimit="8" fill="#C8E5B3" fill-rule="evenodd"/><text fill="#404040" font-family="Microsoft YaHei,Microsoft YaHei_MSFontService,sans-serif" font-weight="700" font-size="55" transform="matrix(1 0 0 1 1739.77 1201)">length</text><text fill="#404040" font-family="Microsoft YaHei,Microsoft YaHei_MSFontService,sans-serif" font-weight="400" font-size="46" transform="matrix(1 0 0 1 1765.55 1288)">[</text><text fill="#404040" font-family="Microsoft YaHei,Microsoft YaHei_MSFontService,sans-serif" font-weight="400" font-size="46" transform="matrix(1 0 0 1 1781.02 1288)">5</text><text fill="#404040" font-family="Microsoft YaHei,Microsoft YaHei_MSFontService,sans-serif" font-weight="400" font-size="46" transform="matrix(1 0 0 1 1807.95 1288)">] </text><text fill="#404040" font-family="Microsoft YaHei,Microsoft YaHei_MSFontService,sans-serif" font-weight="400" font-size="46" transform="matrix(1 0 0 1 1837.16 1288)">1B</text><path d="M1678.5 1451.5C1678.5 1437.14 1690.14 1425.5 1704.5 1425.5L1951.5 1425.5C1965.86 1425.5 1977.5 1437.14 1977.5 1451.5L1977.5 1555.5C1977.5 1569.86 1965.86 1581.5 1951.5 1581.5L1704.5 1581.5C1690.14 1581.5 1678.5 1569.86 1678.5 1555.5Z" stroke="#75BD42" stroke-width="4.58333" stroke-miterlimit="8" fill="none" fill-rule="evenodd"/><text fill="#404040" font-family="Microsoft YaHei,Microsoft YaHei_MSFontService,sans-serif" font-weight="400" font-size="46" transform="matrix(1 0 0 1 1775.07 1520)">0x0</text><text fill="#404040" font-family="Microsoft YaHei,Microsoft YaHei_MSFontService,sans-serif" font-weight="400" font-size="46" transform="matrix(1 0 0 1 1852.42 1520)">7</text><path d="M1979.5 1115C1979.5 1105.89 1986.89 1098.5 1996 1098.5L2262 1098.5C2271.11 1098.5 2278.5 1105.89 2278.5 1115L2278.5 1115C2278.5 1124.11 2271.11 1131.5 2262 1131.5L1996 1131.5C1986.89 1131.5 1979.5 1124.11 1979.5 1115Z" stroke="#75BD42" stroke-width="4.58333" stroke-miterlimit="8" fill="#75BD42" fill-rule="evenodd"/><path d="M1979.5 1162.83C1979.5 1146.08 1993.08 1132.5 2009.83 1132.5L2248.17 1132.5C2264.92 1132.5 2278.5 1146.08 2278.5 1162.83L2278.5 1284.17C2278.5 1300.92 2264.92 1314.5 2248.17 1314.5L2009.83 1314.5C1993.08 1314.5 1979.5 1300.92 1979.5 1284.17Z" stroke="#75BD42" stroke-width="4.58333" stroke-miterlimit="8" fill="#C8E5B3" fill-rule="evenodd"/><text fill="#404040" font-family="Microsoft YaHei,Microsoft YaHei_MSFontService,sans-serif" font-weight="700" font-size="55" transform="matrix(1 0 0 1 2049.01 1200)">coun</text><text fill="#404040" font-family="Microsoft YaHei,Microsoft YaHei_MSFontService,sans-serif" font-weight="700" font-size="55" transform="matrix(1 0 0 1 2184.79 1200)">t</text><text fill="#404040" font-family="Microsoft YaHei,Microsoft YaHei_MSFontService,sans-serif" font-weight="400" font-size="46" transform="matrix(1 0 0 1 2064.75 1287)">[</text><text fill="#404040" font-family="Microsoft YaHei,Microsoft YaHei_MSFontService,sans-serif" font-weight="400" font-size="46" transform="matrix(1 0 0 1 2080.22 1287)">6</text><text fill="#404040" font-family="Microsoft YaHei,Microsoft YaHei_MSFontService,sans-serif" font-weight="400" font-size="46" transform="matrix(1 0 0 1 2107.15 1287)">] </text><text fill="#404040" font-family="Microsoft YaHei,Microsoft YaHei_MSFontService,sans-serif" font-weight="400" font-size="46" transform="matrix(1 0 0 1 2136.37 1287)">1B</text><path d="M1977.5 1450.5C1977.5 1436.14 1989.14 1424.5 2003.5 1424.5L2250.5 1424.5C2264.86 1424.5 2276.5 1436.14 2276.5 1450.5L2276.5 1554.5C2276.5 1568.86 2264.86 1580.5 2250.5 1580.5L2003.5 1580.5C1989.14 1580.5 1977.5 1568.86 1977.5 1554.5Z" stroke="#75BD42" stroke-width="4.58333" stroke-miterlimit="8" fill="none" fill-rule="evenodd"/><text fill="#404040" font-family="Microsoft YaHei,Microsoft YaHei_MSFontService,sans-serif" font-weight="400" font-size="46" transform="matrix(1 0 0 1 2074.29 1519)">0x0</text><text fill="#404040" font-family="Microsoft YaHei,Microsoft YaHei_MSFontService,sans-serif" font-weight="400" font-size="46" transform="matrix(1 0 0 1 2151.63 1519)">2</text><path d="M2278.5 1115C2278.5 1105.89 2285.89 1098.5 2295 1098.5L2561 1098.5C2570.11 1098.5 2577.5 1105.89 2577.5 1115L2577.5 1115C2577.5 1124.11 2570.11 1131.5 2561 1131.5L2295 1131.5C2285.89 1131.5 2278.5 1124.11 2278.5 1115Z" stroke="#75BD42" stroke-width="4.58333" stroke-miterlimit="8" fill="#75BD42" fill-rule="evenodd"/><path d="M2278.5 1162.83C2278.5 1146.08 2292.08 1132.5 2308.83 1132.5L2547.17 1132.5C2563.92 1132.5 2577.5 1146.08 2577.5 1162.83L2577.5 1284.17C2577.5 1300.92 2563.92 1314.5 2547.17 1314.5L2308.83 1314.5C2292.08 1314.5 2278.5 1300.92 2278.5 1284.17Z" stroke="#75BD42" stroke-width="4.58333" stroke-miterlimit="8" fill="#C8E5B3" fill-rule="evenodd"/><text fill="#404040" font-family="Microsoft YaHei,Microsoft YaHei_MSFontService,sans-serif" font-weight="700" font-size="55" transform="matrix(1 0 0 1 2313.25 1200)">servo_id</text><text fill="#404040" font-family="Microsoft YaHei,Microsoft YaHei_MSFontService,sans-serif" font-weight="400" font-size="46" transform="matrix(1 0 0 1 2364.26 1287)">[</text><text fill="#404040" font-family="Microsoft YaHei,Microsoft YaHei_MSFontService,sans-serif" font-weight="400" font-size="46" transform="matrix(1 0 0 1 2379.73 1287)">7</text><text fill="#404040" font-family="Microsoft YaHei,Microsoft YaHei_MSFontService,sans-serif" font-weight="400" font-size="46" transform="matrix(1 0 0 1 2406.66 1287)">] </text><text fill="#404040" font-family="Microsoft YaHei,Microsoft YaHei_MSFontService,sans-serif" font-weight="400" font-size="46" transform="matrix(1 0 0 1 2435.88 1287)">1B</text><path d="M2277.5 1450.5C2277.5 1436.14 2289.14 1424.5 2303.5 1424.5L2549.5 1424.5C2563.86 1424.5 2575.5 1436.14 2575.5 1450.5L2575.5 1554.5C2575.5 1568.86 2563.86 1580.5 2549.5 1580.5L2303.5 1580.5C2289.14 1580.5 2277.5 1568.86 2277.5 1554.5Z" stroke="#75BD42" stroke-width="4.58333" stroke-miterlimit="8" fill="none" fill-rule="evenodd"/><text fill="#404040" font-family="Microsoft YaHei,Microsoft YaHei_MSFontService,sans-serif" font-weight="400" font-size="46" transform="matrix(1 0 0 1 2373.79 1519)">0x0</text><text fill="#404040" font-family="Microsoft YaHei,Microsoft YaHei_MSFontService,sans-serif" font-weight="400" font-size="46" transform="matrix(1 0 0 1 2451.13 1519)">1</text></g></svg>