<svg width="2781" height="593" xmlns="http://www.w3.org/2000/svg" xmlns:xlink="http://www.w3.org/1999/xlink" xml:space="preserve" overflow="hidden"><g transform="translate(-369 -1684)"><path d="M397.5 1807.5C397.5 1798.66 404.663 1791.5 413.5 1791.5L771.5 1791.5C780.337 1791.5 787.5 1798.66 787.5 1807.5L787.5 1807.5C787.5 1816.34 780.337 1823.5 771.5 1823.5L413.5 1823.5C404.663 1823.5 397.5 1816.34 397.5 1807.5Z" stroke="#249087" stroke-width="4.58333" stroke-miterlimit="8" fill="#249087" fill-rule="evenodd"/><path d="M397.5 1855.83C397.5 1839.08 411.081 1825.5 427.834 1825.5L757.166 1825.5C773.919 1825.5 787.5 1839.08 787.5 1855.83L787.5 1977.17C787.5 1993.92 773.919 2007.5 757.166 2007.5L427.834 2007.5C411.081 2007.5 397.5 1993.92 397.5 1977.17Z" stroke="#249087" stroke-width="4.58333" stroke-miterlimit="8" fill="#A9E9E4" fill-rule="evenodd"/><text fill="#404040" font-family="Microsoft YaHei,Microsoft YaHei_MSFontService,sans-serif" font-weight="700" font-size="55" transform="matrix(1 0 0 1 496.398 1893)">header</text><text fill="#404040" font-family="Microsoft YaHei,Microsoft YaHei_MSFontService,sans-serif" font-weight="400" font-size="46" transform="matrix(1 0 0 1 504.991 1980)">[0</text><text fill="#404040" font-family="Microsoft YaHei,Microsoft YaHei_MSFontService,sans-serif" font-weight="400" font-size="46" transform="matrix(1 0 0 1 547.387 1980)">-</text><text fill="#404040" font-family="Microsoft YaHei,Microsoft YaHei_MSFontService,sans-serif" font-weight="400" font-size="46" transform="matrix(1 0 0 1 567.439 1980)">1] 2B</text><path d="M789.5 1807.5C789.5 1798.66 796.664 1791.5 805.5 1791.5L1071.5 1791.5C1080.34 1791.5 1087.5 1798.66 1087.5 1807.5L1087.5 1807.5C1087.5 1816.34 1080.34 1823.5 1071.5 1823.5L805.5 1823.5C796.664 1823.5 789.5 1816.34 789.5 1807.5Z" stroke="#249087" stroke-width="4.58333" stroke-miterlimit="8" fill="#249087" fill-rule="evenodd"/><path d="M789.5 1855.83C789.5 1839.08 803.081 1825.5 819.834 1825.5L1057.17 1825.5C1073.92 1825.5 1087.5 1839.08 1087.5 1855.83L1087.5 1977.17C1087.5 1993.92 1073.92 2007.5 1057.17 2007.5L819.834 2007.5C803.081 2007.5 789.5 1993.92 789.5 1977.17Z" stroke="#249087" stroke-width="4.58333" stroke-miterlimit="8" fill="#A9E9E4" fill-rule="evenodd"/><text fill="#404040" font-family="Microsoft YaHei,Microsoft YaHei_MSFontService,sans-serif" font-weight="700" font-size="55" transform="matrix(1 0 0 1 839.66 1893)">cmd_id</text><text fill="#404040" font-family="Microsoft YaHei,Microsoft YaHei_MSFontService,sans-serif" font-weight="400" font-size="46" transform="matrix(1 0 0 1 874.31 1980)">[2] 1B</text><path d="M1087.5 1807.5C1087.5 1798.66 1094.66 1791.5 1103.5 1791.5L1370.5 1791.5C1379.34 1791.5 1386.5 1798.66 1386.5 1807.5L1386.5 1807.5C1386.5 1816.34 1379.34 1823.5 1370.5 1823.5L1103.5 1823.5C1094.66 1823.5 1087.5 1816.34 1087.5 1807.5Z" stroke="#249087" stroke-width="4.58333" stroke-miterlimit="8" fill="#249087" fill-rule="evenodd"/><path d="M1087.5 1855.83C1087.5 1839.08 1101.08 1825.5 1117.83 1825.5L1356.17 1825.5C1372.92 1825.5 1386.5 1839.08 1386.5 1855.83L1386.5 1977.17C1386.5 1993.92 1372.92 2007.5 1356.17 2007.5L1117.83 2007.5C1101.08 2007.5 1087.5 1993.92 1087.5 1977.17Z" stroke="#249087" stroke-width="4.58333" stroke-miterlimit="8" fill="#A9E9E4" fill-rule="evenodd"/><text fill="#404040" font-family="Microsoft YaHei,Microsoft YaHei_MSFontService,sans-serif" font-weight="700" font-size="55" transform="matrix(1 0 0 1 1147.36 1893)">length</text><text fill="#404040" font-family="Microsoft YaHei,Microsoft YaHei_MSFontService,sans-serif" font-weight="400" font-size="46" transform="matrix(1 0 0 1 1173.14 1980)">[3] 1B</text><text fill="#404040" font-family="Microsoft YaHei,Microsoft YaHei_MSFontService,sans-serif" font-weight="400" font-size="50" transform="matrix(1 0 0 1 402.444 1757)">Response</text><path d="M395.5 2144.5C395.5 2130.14 407.141 2118.5 421.501 2118.5L759.5 2118.5C773.859 2118.5 785.5 2130.14 785.5 2144.5L785.5 2248.5C785.5 2262.86 773.859 2274.5 759.5 2274.5L421.501 2274.5C407.141 2274.5 395.5 2262.86 395.5 2248.5Z" stroke="#249087" stroke-width="4.58333" stroke-miterlimit="8" fill="none" fill-rule="evenodd"/><text fill="#404040" font-family="Microsoft YaHei,Microsoft YaHei_MSFontService,sans-serif" font-weight="400" font-size="46" transform="matrix(1 0 0 1 480.61 2213)">0x05 0x1c</text><path d="M786.5 2144.5C786.5 2130.14 798.141 2118.5 812.501 2118.5L1059.5 2118.5C1073.86 2118.5 1085.5 2130.14 1085.5 2144.5L1085.5 2248.5C1085.5 2262.86 1073.86 2274.5 1059.5 2274.5L812.501 2274.5C798.141 2274.5 786.5 2262.86 786.5 2248.5Z" stroke="#249087" stroke-width="4.58333" stroke-miterlimit="8" fill="none" fill-rule="evenodd"/><text fill="#404040" font-family="Microsoft YaHei,Microsoft YaHei_MSFontService,sans-serif" font-weight="400" font-size="46" transform="matrix(1 0 0 1 883.456 2213)">0x0</text><text fill="#404040" font-family="Microsoft YaHei,Microsoft YaHei_MSFontService,sans-serif" font-weight="400" font-size="46" transform="matrix(1 0 0 1 960.799 2213)">3</text><path d="M1085.5 2144.5C1085.5 2130.14 1097.14 2118.5 1111.5 2118.5L1358.5 2118.5C1372.86 2118.5 1384.5 2130.14 1384.5 2144.5L1384.5 2248.5C1384.5 2262.86 1372.86 2274.5 1358.5 2274.5L1111.5 2274.5C1097.14 2274.5 1085.5 2262.86 1085.5 2248.5Z" stroke="#249087" stroke-width="4.58333" stroke-miterlimit="8" fill="none" fill-rule="evenodd"/><text fill="#404040" font-family="Microsoft YaHei,Microsoft YaHei_MSFontService,sans-serif" font-weight="400" font-size="46" transform="matrix(1 0 0 1 1182.27 2213)">0x0</text><text fill="#404040" font-family="Microsoft YaHei,Microsoft YaHei_MSFontService,sans-serif" font-weight="400" font-size="46" transform="matrix(1 0 0 1 1259.62 2213)">4</text><text fill="#404040" font-family="Microsoft YaHei,Microsoft YaHei_MSFontService,sans-serif" font-weight="400" font-size="50" transform="matrix(1 0 0 1 400.12 2083)">Example Values</text><path d="M1388.5 1807.5C1388.5 1798.66 1395.66 1791.5 1404.5 1791.5L1671.5 1791.5C1680.34 1791.5 1687.5 1798.66 1687.5 1807.5L1687.5 1807.5C1687.5 1816.34 1680.34 1823.5 1671.5 1823.5L1404.5 1823.5C1395.66 1823.5 1388.5 1816.34 1388.5 1807.5Z" stroke="#75BD42" stroke-width="4.58333" stroke-miterlimit="8" fill="#75BD42" fill-rule="evenodd"/><path d="M1388.5 1855.83C1388.5 1839.08 1402.08 1825.5 1418.83 1825.5L1657.17 1825.5C1673.92 1825.5 1687.5 1839.08 1687.5 1855.83L1687.5 1977.17C1687.5 1993.92 1673.92 2007.5 1657.17 2007.5L1418.83 2007.5C1402.08 2007.5 1388.5 1993.92 1388.5 1977.17Z" stroke="#75BD42" stroke-width="4.58333" stroke-miterlimit="8" fill="#C8E5B3" fill-rule="evenodd"/><text fill="#404040" font-family="Microsoft YaHei,Microsoft YaHei_MSFontService,sans-serif" font-weight="700" font-size="55" transform="matrix(1 0 0 1 1422.5 1893)">servo_id</text><text fill="#404040" font-family="Microsoft YaHei,Microsoft YaHei_MSFontService,sans-serif" font-weight="400" font-size="46" transform="matrix(1 0 0 1 1473.51 1980)">[4] 1B</text><path d="M1385.5 2144.5C1385.5 2130.14 1397.14 2118.5 1411.5 2118.5L1658.5 2118.5C1672.86 2118.5 1684.5 2130.14 1684.5 2144.5L1684.5 2248.5C1684.5 2262.86 1672.86 2274.5 1658.5 2274.5L1411.5 2274.5C1397.14 2274.5 1385.5 2262.86 1385.5 2248.5Z" stroke="#75BD42" stroke-width="4.58333" stroke-miterlimit="8" fill="none" fill-rule="evenodd"/><text fill="#404040" font-family="Microsoft YaHei,Microsoft YaHei_MSFontService,sans-serif" font-weight="400" font-size="46" transform="matrix(1 0 0 1 1482.64 2213)">0x00</text><path d="M1983.5 1807.5C1983.5 1798.66 1990.66 1791.5 1999.5 1791.5L2357.5 1791.5C2366.34 1791.5 2373.5 1798.66 2373.5 1807.5L2373.5 1807.5C2373.5 1816.34 2366.34 1823.5 2357.5 1823.5L1999.5 1823.5C1990.66 1823.5 1983.5 1816.34 1983.5 1807.5Z" stroke="#75BD42" stroke-width="4.58333" stroke-miterlimit="8" fill="#75BD42" fill-rule="evenodd"/><path d="M1983.5 1855.83C1983.5 1839.08 1997.08 1825.5 2013.83 1825.5L2343.17 1825.5C2359.92 1825.5 2373.5 1839.08 2373.5 1855.83L2373.5 1977.17C2373.5 1993.92 2359.92 2007.5 2343.17 2007.5L2013.83 2007.5C1997.08 2007.5 1983.5 1993.92 1983.5 1977.17Z" stroke="#75BD42" stroke-width="4.58333" stroke-miterlimit="8" fill="#C8E5B3" fill-rule="evenodd"/><text fill="#404040" font-family="Microsoft YaHei,Microsoft YaHei_MSFontService,sans-serif" font-weight="700" font-size="55" transform="matrix(1 0 0 1 2090.77 1893)">power</text><text fill="#404040" font-family="Microsoft YaHei,Microsoft YaHei_MSFontService,sans-serif" font-weight="400" font-size="46" transform="matrix(1 0 0 1 2091.2 1980)">[</text><text fill="#404040" font-family="Microsoft YaHei,Microsoft YaHei_MSFontService,sans-serif" font-weight="400" font-size="46" transform="matrix(1 0 0 1 2106.67 1980)">7</text><text fill="#404040" font-family="Microsoft YaHei,Microsoft YaHei_MSFontService,sans-serif" font-weight="400" font-size="46" transform="matrix(1 0 0 1 2133.6 1980)">-</text><text fill="#404040" font-family="Microsoft YaHei,Microsoft YaHei_MSFontService,sans-serif" font-weight="400" font-size="46" transform="matrix(1 0 0 1 2153.65 1980)">8</text><text fill="#404040" font-family="Microsoft YaHei,Microsoft YaHei_MSFontService,sans-serif" font-weight="400" font-size="46" transform="matrix(1 0 0 1 2180.58 1980)">] </text><text fill="#404040" font-family="Microsoft YaHei,Microsoft YaHei_MSFontService,sans-serif" font-weight="400" font-size="46" transform="matrix(1 0 0 1 2209.8 1980)">2B</text><path d="M1981.5 2144.5C1981.5 2130.14 1993.14 2118.5 2007.5 2118.5L2345.5 2118.5C2359.86 2118.5 2371.5 2130.14 2371.5 2144.5L2371.5 2248.5C2371.5 2262.86 2359.86 2274.5 2345.5 2274.5L2007.5 2274.5C1993.14 2274.5 1981.5 2262.86 1981.5 2248.5Z" stroke="#75BD42" stroke-width="4.58333" stroke-miterlimit="8" fill="none" fill-rule="evenodd"/><text fill="#404040" font-family="Microsoft YaHei,Microsoft YaHei_MSFontService,sans-serif" font-weight="400" font-size="46" transform="matrix(1 0 0 1 2065.2 2213)">0x62 </text><text fill="#404040" font-family="Microsoft YaHei,Microsoft YaHei_MSFontService,sans-serif" font-weight="400" font-size="46" transform="matrix(1 0 0 1 2183.23 2213)">0x01</text><path d="M2375.5 1807.5C2375.5 1798.66 2382.66 1791.5 2391.5 1791.5L2658.5 1791.5C2667.34 1791.5 2674.5 1798.66 2674.5 1807.5L2674.5 1807.5C2674.5 1816.34 2667.34 1823.5 2658.5 1823.5L2391.5 1823.5C2382.66 1823.5 2375.5 1816.34 2375.5 1807.5Z" stroke="#8843AB" stroke-width="4.58333" stroke-miterlimit="8" fill="#8843AB" fill-rule="evenodd"/><path d="M2375.5 1855.83C2375.5 1839.08 2389.08 1825.5 2405.83 1825.5L2644.17 1825.5C2660.92 1825.5 2674.5 1839.08 2674.5 1855.83L2674.5 1977.17C2674.5 1993.92 2660.92 2007.5 2644.17 2007.5L2405.83 2007.5C2389.08 2007.5 2375.5 1993.92 2375.5 1977.17Z" stroke="#8843AB" stroke-width="4.58333" stroke-miterlimit="8" fill="#CCCCFF" fill-rule="evenodd"/><text fill="#404040" font-family="Microsoft YaHei,Microsoft YaHei_MSFontService,sans-serif" font-weight="700" font-size="55" transform="matrix(1 0 0 1 2387.98 1893)">checksum</text><text fill="#404040" font-family="Microsoft YaHei,Microsoft YaHei_MSFontService,sans-serif" font-weight="400" font-size="46" transform="matrix(1 0 0 1 2461.31 1980)">[</text><text fill="#404040" font-family="Microsoft YaHei,Microsoft YaHei_MSFontService,sans-serif" font-weight="400" font-size="46" transform="matrix(1 0 0 1 2476.78 1980)">9</text><text fill="#404040" font-family="Microsoft YaHei,Microsoft YaHei_MSFontService,sans-serif" font-weight="400" font-size="46" transform="matrix(1 0 0 1 2503.7 1980)">] </text><text fill="#404040" font-family="Microsoft YaHei,Microsoft YaHei_MSFontService,sans-serif" font-weight="400" font-size="46" transform="matrix(1 0 0 1 2532.92 1980)">1B</text><path d="M2373.5 2144.5C2373.5 2130.14 2385.14 2118.5 2399.5 2118.5L2646.5 2118.5C2660.86 2118.5 2672.5 2130.14 2672.5 2144.5L2672.5 2248.5C2672.5 2262.86 2660.86 2274.5 2646.5 2274.5L2399.5 2274.5C2385.14 2274.5 2373.5 2262.86 2373.5 2248.5Z" stroke="#8843AB" stroke-width="4.58333" stroke-miterlimit="8" fill="none" fill-rule="evenodd"/><text fill="#404040" font-family="Microsoft YaHei,Microsoft YaHei_MSFontService,sans-serif" font-weight="400" font-size="46" transform="matrix(1 0 0 1 2471.02 2213)">0x</text><text fill="#404040" font-family="Microsoft YaHei,Microsoft YaHei_MSFontService,sans-serif" font-weight="400" font-size="46" transform="matrix(1 0 0 1 2521.43 2213)">8</text><text fill="#404040" font-family="Microsoft YaHei,Microsoft YaHei_MSFontService,sans-serif" font-weight="400" font-size="46" transform="matrix(1 0 0 1 2548.36 2213)">e</text><path d="M1686.5 1807.5C1686.5 1798.66 1693.66 1791.5 1702.5 1791.5L1968.5 1791.5C1977.34 1791.5 1984.5 1798.66 1984.5 1807.5L1984.5 1807.5C1984.5 1816.34 1977.34 1823.5 1968.5 1823.5L1702.5 1823.5C1693.66 1823.5 1686.5 1816.34 1686.5 1807.5Z" stroke="#75BD42" stroke-width="4.58333" stroke-miterlimit="8" fill="#75BD42" fill-rule="evenodd"/><path d="M1686.5 1855.83C1686.5 1839.08 1700.08 1825.5 1716.83 1825.5L1954.17 1825.5C1970.92 1825.5 1984.5 1839.08 1984.5 1855.83L1984.5 1977.17C1984.5 1993.92 1970.92 2007.5 1954.17 2007.5L1716.83 2007.5C1700.08 2007.5 1686.5 1993.92 1686.5 1977.17Z" stroke="#75BD42" stroke-width="4.58333" stroke-miterlimit="8" fill="#C8E5B3" fill-rule="evenodd"/><text fill="#404040" font-family="Microsoft YaHei,Microsoft YaHei_MSFontService,sans-serif" font-weight="700" font-size="55" transform="matrix(1 0 0 1 1734.98 1893)">data</text><text fill="#404040" font-family="Microsoft YaHei,Microsoft YaHei_MSFontService,sans-serif" font-weight="700" font-size="55" transform="matrix(1 0 0 1 1857.58 1893)">_</text><text fill="#404040" font-family="Microsoft YaHei,Microsoft YaHei_MSFontService,sans-serif" font-weight="700" font-size="55" transform="matrix(1 0 0 1 1882.22 1893)">id</text><text fill="#404040" font-family="Microsoft YaHei,Microsoft YaHei_MSFontService,sans-serif" font-weight="400" font-size="46" transform="matrix(1 0 0 1 1771.35 1980)">[</text><text fill="#404040" font-family="Microsoft YaHei,Microsoft YaHei_MSFontService,sans-serif" font-weight="400" font-size="46" transform="matrix(1 0 0 1 1786.82 1980)">5</text><text fill="#404040" font-family="Microsoft YaHei,Microsoft YaHei_MSFontService,sans-serif" font-weight="400" font-size="46" transform="matrix(1 0 0 1 1813.74 1980)">] </text><text fill="#404040" font-family="Microsoft YaHei,Microsoft YaHei_MSFontService,sans-serif" font-weight="400" font-size="46" transform="matrix(1 0 0 1 1842.96 1980)">1B</text><path d="M1683.5 2144.5C1683.5 2130.14 1695.14 2118.5 1709.5 2118.5L1956.5 2118.5C1970.86 2118.5 1982.5 2130.14 1982.5 2144.5L1982.5 2248.5C1982.5 2262.86 1970.86 2274.5 1956.5 2274.5L1709.5 2274.5C1695.14 2274.5 1683.5 2262.86 1683.5 2248.5Z" stroke="#75BD42" stroke-width="4.58333" stroke-miterlimit="8" fill="none" fill-rule="evenodd"/><text fill="#404040" font-family="Microsoft YaHei,Microsoft YaHei_MSFontService,sans-serif" font-weight="400" font-size="46" transform="matrix(1 0 0 1 1780.49 2213)">0x0</text><text fill="#404040" font-family="Microsoft YaHei,Microsoft YaHei_MSFontService,sans-serif" font-weight="400" font-size="46" transform="matrix(1 0 0 1 1857.84 2213)">3</text></g></svg>