<svg width="3716" height="592" xmlns="http://www.w3.org/2000/svg" xmlns:xlink="http://www.w3.org/1999/xlink" xml:space="preserve" overflow="hidden"><g transform="translate(-365 -992)"><path d="M393.5 1115C393.5 1105.89 400.887 1098.5 410 1098.5L767 1098.5C776.113 1098.5 783.5 1105.89 783.5 1115L783.5 1115C783.5 1124.11 776.113 1131.5 767 1131.5L410 1131.5C400.887 1131.5 393.5 1124.11 393.5 1115Z" stroke="#2E54A1" stroke-width="4.58333" stroke-miterlimit="8" fill="#2E54A1" fill-rule="evenodd"/><path d="M393.5 1162.83C393.5 1146.08 407.081 1132.5 423.834 1132.5L753.166 1132.5C769.919 1132.5 783.5 1146.08 783.5 1162.83L783.5 1284.17C783.5 1300.92 769.919 1314.5 753.166 1314.5L423.834 1314.5C407.081 1314.5 393.5 1300.92 393.5 1284.17Z" stroke="#2E54A1" stroke-width="4.58333" stroke-miterlimit="8" fill="#B6C7EA" fill-rule="evenodd"/><text fill="#404040" font-family="Microsoft YaHei,Microsoft YaHei_MSFontService,sans-serif" font-weight="700" font-size="55" transform="matrix(1 0 0 1 492.138 1200)">header</text><text fill="#404040" font-family="Microsoft YaHei,Microsoft YaHei_MSFontService,sans-serif" font-weight="400" font-size="46" transform="matrix(1 0 0 1 500.731 1287)">[0</text><text fill="#404040" font-family="Microsoft YaHei,Microsoft YaHei_MSFontService,sans-serif" font-weight="400" font-size="46" transform="matrix(1 0 0 1 543.127 1287)">-</text><text fill="#404040" font-family="Microsoft YaHei,Microsoft YaHei_MSFontService,sans-serif" font-weight="400" font-size="46" transform="matrix(1 0 0 1 563.179 1287)">1] 2B</text><path d="M784.5 1115C784.5 1105.89 791.887 1098.5 801 1098.5L1067 1098.5C1076.11 1098.5 1083.5 1105.89 1083.5 1115L1083.5 1115C1083.5 1124.11 1076.11 1131.5 1067 1131.5L801 1131.5C791.887 1131.5 784.5 1124.11 784.5 1115Z" stroke="#2E54A1" stroke-width="4.58333" stroke-miterlimit="8" fill="#2E54A1" fill-rule="evenodd"/><path d="M784.5 1162.83C784.5 1146.08 798.081 1132.5 814.834 1132.5L1053.17 1132.5C1069.92 1132.5 1083.5 1146.08 1083.5 1162.83L1083.5 1284.17C1083.5 1300.92 1069.92 1314.5 1053.17 1314.5L814.834 1314.5C798.081 1314.5 784.5 1300.92 784.5 1284.17Z" stroke="#2E54A1" stroke-width="4.58333" stroke-miterlimit="8" fill="#B6C7EA" fill-rule="evenodd"/><text fill="#404040" font-family="Microsoft YaHei,Microsoft YaHei_MSFontService,sans-serif" font-weight="700" font-size="55" transform="matrix(1 0 0 1 835.4 1200)">cmd_id</text><text fill="#404040" font-family="Microsoft YaHei,Microsoft YaHei_MSFontService,sans-serif" font-weight="400" font-size="46" transform="matrix(1 0 0 1 870.05 1287)">[2] 1B</text><path d="M1083.5 1115C1083.5 1105.89 1090.89 1098.5 1100 1098.5L1366 1098.5C1375.11 1098.5 1382.5 1105.89 1382.5 1115L1382.5 1115C1382.5 1124.11 1375.11 1131.5 1366 1131.5L1100 1131.5C1090.89 1131.5 1083.5 1124.11 1083.5 1115Z" stroke="#2E54A1" stroke-width="4.58333" stroke-miterlimit="8" fill="#2E54A1" fill-rule="evenodd"/><path d="M1083.5 1162.83C1083.5 1146.08 1097.08 1132.5 1113.83 1132.5L1352.17 1132.5C1368.92 1132.5 1382.5 1146.08 1382.5 1162.83L1382.5 1284.17C1382.5 1300.92 1368.92 1314.5 1352.17 1314.5L1113.83 1314.5C1097.08 1314.5 1083.5 1300.92 1083.5 1284.17Z" stroke="#2E54A1" stroke-width="4.58333" stroke-miterlimit="8" fill="#B6C7EA" fill-rule="evenodd"/><text fill="#404040" font-family="Microsoft YaHei,Microsoft YaHei_MSFontService,sans-serif" font-weight="700" font-size="55" transform="matrix(1 0 0 1 1143.1 1200)">length</text><text fill="#404040" font-family="Microsoft YaHei,Microsoft YaHei_MSFontService,sans-serif" font-weight="400" font-size="46" transform="matrix(1 0 0 1 1168.88 1287)">[3] 1B</text><text fill="#404040" font-family="Microsoft YaHei,Microsoft YaHei_MSFontService,sans-serif" font-weight="400" font-size="50" transform="matrix(1 0 0 1 398.184 1065)">Command</text><path d="M1682.5 1115C1682.5 1105.89 1689.89 1098.5 1699 1098.5L2186 1098.5C2195.11 1098.5 2202.5 1105.89 2202.5 1115L2202.5 1115C2202.5 1124.11 2195.11 1131.5 2186 1131.5L1699 1131.5C1689.89 1131.5 1682.5 1124.11 1682.5 1115Z" stroke="#75BD42" stroke-width="4.58333" stroke-miterlimit="8" fill="#75BD42" fill-rule="evenodd"/><path d="M1682.5 1162.83C1682.5 1146.08 1696.08 1132.5 1712.83 1132.5L2172.17 1132.5C2188.92 1132.5 2202.5 1146.08 2202.5 1162.83L2202.5 1284.17C2202.5 1300.92 2188.92 1314.5 2172.17 1314.5L1712.83 1314.5C1696.08 1314.5 1682.5 1300.92 1682.5 1284.17Z" stroke="#75BD42" stroke-width="4.58333" stroke-miterlimit="8" fill="#C8E5B3" fill-rule="evenodd"/><text fill="#404040" font-family="Microsoft YaHei,Microsoft YaHei_MSFontService,sans-serif" font-weight="700" font-size="55" transform="matrix(1 0 0 1 1828.94 1200)">position</text><text fill="#404040" font-family="Microsoft YaHei,Microsoft YaHei_MSFontService,sans-serif" font-weight="400" font-size="46" transform="matrix(1 0 0 1 1855.02 1287)">[5</text><text fill="#404040" font-family="Microsoft YaHei,Microsoft YaHei_MSFontService,sans-serif" font-weight="400" font-size="46" transform="matrix(1 0 0 1 1897.42 1287)">-</text><text fill="#404040" font-family="Microsoft YaHei,Microsoft YaHei_MSFontService,sans-serif" font-weight="400" font-size="46" transform="matrix(1 0 0 1 1917.47 1287)">8] 4B</text><path d="M3371.5 1117C3371.5 1107.89 3378.89 1100.5 3388 1100.5L3745 1100.5C3754.11 1100.5 3761.5 1107.89 3761.5 1117L3761.5 1117C3761.5 1126.11 3754.11 1133.5 3745 1133.5L3388 1133.5C3378.89 1133.5 3371.5 1126.11 3371.5 1117Z" stroke="#75BD42" stroke-width="4.58333" stroke-miterlimit="8" fill="#75BD42" fill-rule="evenodd"/><path d="M3371.5 1164.83C3371.5 1148.08 3385.08 1134.5 3401.83 1134.5L3731.17 1134.5C3747.92 1134.5 3761.5 1148.08 3761.5 1164.83L3761.5 1286.17C3761.5 1302.92 3747.92 1316.5 3731.17 1316.5L3401.83 1316.5C3385.08 1316.5 3371.5 1302.92 3371.5 1286.17Z" stroke="#75BD42" stroke-width="4.58333" stroke-miterlimit="8" fill="#C8E5B3" fill-rule="evenodd"/><text fill="#404040" font-family="Microsoft YaHei,Microsoft YaHei_MSFontService,sans-serif" font-weight="700" font-size="55" transform="matrix(1 0 0 1 3478.59 1202)">power</text><text fill="#404040" font-family="Microsoft YaHei,Microsoft YaHei_MSFontService,sans-serif" font-weight="400" font-size="46" transform="matrix(1 0 0 1 3452.1 1289)">[</text><text fill="#404040" font-family="Microsoft YaHei,Microsoft YaHei_MSFontService,sans-serif" font-weight="400" font-size="46" transform="matrix(1 0 0 1 3467.57 1289)">1</text><text fill="#404040" font-family="Microsoft YaHei,Microsoft YaHei_MSFontService,sans-serif" font-weight="400" font-size="46" transform="matrix(1 0 0 1 3494.5 1289)">5</text><text fill="#404040" font-family="Microsoft YaHei,Microsoft YaHei_MSFontService,sans-serif" font-weight="400" font-size="46" transform="matrix(1 0 0 1 3521.42 1289)">-</text><text fill="#404040" font-family="Microsoft YaHei,Microsoft YaHei_MSFontService,sans-serif" font-weight="400" font-size="46" transform="matrix(1 0 0 1 3541.47 1289)">1</text><text fill="#404040" font-family="Microsoft YaHei,Microsoft YaHei_MSFontService,sans-serif" font-weight="400" font-size="46" transform="matrix(1 0 0 1 3568.4 1289)">6</text><text fill="#404040" font-family="Microsoft YaHei,Microsoft YaHei_MSFontService,sans-serif" font-weight="400" font-size="46" transform="matrix(1 0 0 1 3595.33 1289)">] </text><text fill="#404040" font-family="Microsoft YaHei,Microsoft YaHei_MSFontService,sans-serif" font-weight="400" font-size="46" transform="matrix(1 0 0 1 3624.55 1289)">2B</text><path d="M391.5 1450.5C391.5 1436.14 403.141 1424.5 417.5 1424.5L755.499 1424.5C769.859 1424.5 781.5 1436.14 781.5 1450.5L781.5 1554.5C781.5 1568.86 769.859 1580.5 755.499 1580.5L417.5 1580.5C403.141 1580.5 391.5 1568.86 391.5 1554.5Z" stroke="#2E54A1" stroke-width="4.58333" stroke-miterlimit="8" fill="none" fill-rule="evenodd"/><text fill="#404040" font-family="Microsoft YaHei,Microsoft YaHei_MSFontService,sans-serif" font-weight="400" font-size="46" transform="matrix(1 0 0 1 476.738 1519)">0x12 0x4c</text><path d="M1680.5 1450.5C1680.5 1436.14 1692.14 1424.5 1706.5 1424.5L2174.5 1424.5C2188.86 1424.5 2200.5 1436.14 2200.5 1450.5L2200.5 1554.5C2200.5 1568.86 2188.86 1580.5 2174.5 1580.5L1706.5 1580.5C1692.14 1580.5 1680.5 1568.86 1680.5 1554.5Z" stroke="#75BD42" stroke-width="4.58333" stroke-miterlimit="8" fill="none" fill-rule="evenodd"/><text fill="#404040" font-family="Microsoft YaHei,Microsoft YaHei_MSFontService,sans-serif" font-weight="400" font-size="46" transform="matrix(1 0 0 1 1710.99 1519)">0x70 0x17 0x00 0x00</text><path d="M782.5 1450.5C782.5 1436.14 794.141 1424.5 808.501 1424.5L1055.5 1424.5C1069.86 1424.5 1081.5 1436.14 1081.5 1450.5L1081.5 1554.5C1081.5 1568.86 1069.86 1580.5 1055.5 1580.5L808.501 1580.5C794.141 1580.5 782.5 1568.86 782.5 1554.5Z" stroke="#2E54A1" stroke-width="4.58333" stroke-miterlimit="8" fill="none" fill-rule="evenodd"/><text fill="#404040" font-family="Microsoft YaHei,Microsoft YaHei_MSFontService,sans-serif" font-weight="400" font-size="46" transform="matrix(1 0 0 1 885.027 1519)">0x0</text><text fill="#404040" font-family="Microsoft YaHei,Microsoft YaHei_MSFontService,sans-serif" font-weight="400" font-size="46" transform="matrix(1 0 0 1 962.37 1519)">f</text><path d="M1081.5 1450.5C1081.5 1436.14 1093.14 1424.5 1107.5 1424.5L1354.5 1424.5C1368.86 1424.5 1380.5 1436.14 1380.5 1450.5L1380.5 1554.5C1380.5 1568.86 1368.86 1580.5 1354.5 1580.5L1107.5 1580.5C1093.14 1580.5 1081.5 1568.86 1081.5 1554.5Z" stroke="#2E54A1" stroke-width="4.58333" stroke-miterlimit="8" fill="none" fill-rule="evenodd"/><text fill="#404040" font-family="Microsoft YaHei,Microsoft YaHei_MSFontService,sans-serif" font-weight="400" font-size="46" transform="matrix(1 0 0 1 1177.26 1519)">0x0</text><text fill="#404040" font-family="Microsoft YaHei,Microsoft YaHei_MSFontService,sans-serif" font-weight="400" font-size="46" transform="matrix(1 0 0 1 1254.6 1519)">d</text><text fill="#404040" font-family="Microsoft YaHei,Microsoft YaHei_MSFontService,sans-serif" font-weight="400" font-size="50" transform="matrix(1 0 0 1 396.249 1389)">Example Values</text><path d="M3369.5 1450.5C3369.5 1436.14 3381.14 1424.5 3395.5 1424.5L3733.5 1424.5C3747.86 1424.5 3759.5 1436.14 3759.5 1450.5L3759.5 1554.5C3759.5 1568.86 3747.86 1580.5 3733.5 1580.5L3395.5 1580.5C3381.14 1580.5 3369.5 1568.86 3369.5 1554.5Z" stroke="#75BD42" stroke-width="4.58333" stroke-miterlimit="8" fill="none" fill-rule="evenodd"/><text fill="#404040" font-family="Microsoft YaHei,Microsoft YaHei_MSFontService,sans-serif" font-weight="400" font-size="46" transform="matrix(1 0 0 1 3453.03 1519)">0x00 0x00</text><path d="M3759.5 1450.5C3759.5 1436.14 3771.14 1424.5 3785.5 1424.5L4032.5 1424.5C4046.86 1424.5 4058.5 1436.14 4058.5 1450.5L4058.5 1554.5C4058.5 1568.86 4046.86 1580.5 4032.5 1580.5L3785.5 1580.5C3771.14 1580.5 3759.5 1568.86 3759.5 1554.5Z" stroke="#8843AB" stroke-width="4.58333" stroke-miterlimit="8" fill="none" fill-rule="evenodd"/><text fill="#404040" font-family="Microsoft YaHei,Microsoft YaHei_MSFontService,sans-serif" font-weight="400" font-size="46" transform="matrix(1 0 0 1 3857.19 1519)">0x</text><text fill="#404040" font-family="Microsoft YaHei,Microsoft YaHei_MSFontService,sans-serif" font-weight="400" font-size="46" transform="matrix(1 0 0 1 3907.61 1519)">a0</text><path d="M3761.5 1164.83C3761.5 1148.08 3775.08 1134.5 3791.83 1134.5L4030.17 1134.5C4046.92 1134.5 4060.5 1148.08 4060.5 1164.83L4060.5 1286.17C4060.5 1302.92 4046.92 1316.5 4030.17 1316.5L3791.83 1316.5C3775.08 1316.5 3761.5 1302.92 3761.5 1286.17Z" stroke="#8843AB" stroke-width="4.58333" stroke-miterlimit="8" fill="#CCCCFF" fill-rule="evenodd"/><text fill="#404040" font-family="Microsoft YaHei,Microsoft YaHei_MSFontService,sans-serif" font-weight="700" font-size="55" transform="matrix(1 0 0 1 3773.47 1202)">checksum</text><text fill="#404040" font-family="Microsoft YaHei,Microsoft YaHei_MSFontService,sans-serif" font-weight="400" font-size="46" transform="matrix(1 0 0 1 3833.33 1289)">[</text><text fill="#404040" font-family="Microsoft YaHei,Microsoft YaHei_MSFontService,sans-serif" font-weight="400" font-size="46" transform="matrix(1 0 0 1 3848.8 1289)">1</text><text fill="#404040" font-family="Microsoft YaHei,Microsoft YaHei_MSFontService,sans-serif" font-weight="400" font-size="46" transform="matrix(1 0 0 1 3875.73 1289)">7</text><text fill="#404040" font-family="Microsoft YaHei,Microsoft YaHei_MSFontService,sans-serif" font-weight="400" font-size="46" transform="matrix(1 0 0 1 3902.66 1289)">] </text><text fill="#404040" font-family="Microsoft YaHei,Microsoft YaHei_MSFontService,sans-serif" font-weight="400" font-size="46" transform="matrix(1 0 0 1 3931.87 1289)">1B</text><path d="M3761.5 1117C3761.5 1107.89 3768.89 1100.5 3778 1100.5L4044 1100.5C4053.11 1100.5 4060.5 1107.89 4060.5 1117L4060.5 1117C4060.5 1126.11 4053.11 1133.5 4044 1133.5L3778 1133.5C3768.89 1133.5 3761.5 1126.11 3761.5 1117Z" stroke="#8843AB" stroke-width="4.58333" stroke-miterlimit="8" fill="#8843AB" fill-rule="evenodd"/><path d="M1383.5 1115C1383.5 1105.89 1390.89 1098.5 1400 1098.5L1666 1098.5C1675.11 1098.5 1682.5 1105.89 1682.5 1115L1682.5 1115C1682.5 1124.11 1675.11 1131.5 1666 1131.5L1400 1131.5C1390.89 1131.5 1383.5 1124.11 1383.5 1115Z" stroke="#75BD42" stroke-width="4.58333" stroke-miterlimit="8" fill="#75BD42" fill-rule="evenodd"/><path d="M1383.5 1162.83C1383.5 1146.08 1397.08 1132.5 1413.83 1132.5L1652.17 1132.5C1668.92 1132.5 1682.5 1146.08 1682.5 1162.83L1682.5 1284.17C1682.5 1300.92 1668.92 1314.5 1652.17 1314.5L1413.83 1314.5C1397.08 1314.5 1383.5 1300.92 1383.5 1284.17Z" stroke="#75BD42" stroke-width="4.58333" stroke-miterlimit="8" fill="#C8E5B3" fill-rule="evenodd"/><text fill="#404040" font-family="Microsoft YaHei,Microsoft YaHei_MSFontService,sans-serif" font-weight="700" font-size="55" transform="matrix(1 0 0 1 1418.24 1200)">servo_id</text><text fill="#404040" font-family="Microsoft YaHei,Microsoft YaHei_MSFontService,sans-serif" font-weight="400" font-size="46" transform="matrix(1 0 0 1 1469.25 1287)">[4] 1B</text><path d="M1381.5 1450.5C1381.5 1436.14 1393.14 1424.5 1407.5 1424.5L1654.5 1424.5C1668.86 1424.5 1680.5 1436.14 1680.5 1450.5L1680.5 1554.5C1680.5 1568.86 1668.86 1580.5 1654.5 1580.5L1407.5 1580.5C1393.14 1580.5 1381.5 1568.86 1381.5 1554.5Z" stroke="#75BD42" stroke-width="4.58333" stroke-miterlimit="8" fill="none" fill-rule="evenodd"/><text fill="#404040" font-family="Microsoft YaHei,Microsoft YaHei_MSFontService,sans-serif" font-weight="400" font-size="46" transform="matrix(1 0 0 1 1478.77 1519)">0x00</text><path d="M2592.5 1116.5C2592.5 1107.66 2599.66 1100.5 2608.5 1100.5L2965.5 1100.5C2974.34 1100.5 2981.5 1107.66 2981.5 1116.5L2981.5 1116.5C2981.5 1125.34 2974.34 1132.5 2965.5 1132.5L2608.5 1132.5C2599.66 1132.5 2592.5 1125.34 2592.5 1116.5Z" stroke="#75BD42" stroke-width="4.58333" stroke-miterlimit="8" fill="#75BD42" fill-rule="evenodd"/><path d="M2592.5 1164.83C2592.5 1148.08 2606.08 1134.5 2622.83 1134.5L2951.17 1134.5C2967.92 1134.5 2981.5 1148.08 2981.5 1164.83L2981.5 1286.17C2981.5 1302.92 2967.92 1316.5 2951.17 1316.5L2622.83 1316.5C2606.08 1316.5 2592.5 1302.92 2592.5 1286.17Z" stroke="#75BD42" stroke-width="4.58333" stroke-miterlimit="8" fill="#C8E5B3" fill-rule="evenodd"/><text fill="#404040" font-family="Microsoft YaHei,Microsoft YaHei_MSFontService,sans-serif" font-weight="700" font-size="55" transform="matrix(1 0 0 1 2718.13 1202)">accel</text><text fill="#404040" font-family="Microsoft YaHei,Microsoft YaHei_MSFontService,sans-serif" font-weight="400" font-size="46" transform="matrix(1 0 0 1 2672.57 1289)">[</text><text fill="#404040" font-family="Microsoft YaHei,Microsoft YaHei_MSFontService,sans-serif" font-weight="400" font-size="46" transform="matrix(1 0 0 1 2688.04 1289)">1</text><text fill="#404040" font-family="Microsoft YaHei,Microsoft YaHei_MSFontService,sans-serif" font-weight="400" font-size="46" transform="matrix(1 0 0 1 2714.97 1289)">1</text><text fill="#404040" font-family="Microsoft YaHei,Microsoft YaHei_MSFontService,sans-serif" font-weight="400" font-size="46" transform="matrix(1 0 0 1 2741.9 1289)">-</text><text fill="#404040" font-family="Microsoft YaHei,Microsoft YaHei_MSFontService,sans-serif" font-weight="400" font-size="46" transform="matrix(1 0 0 1 2761.95 1289)">1</text><text fill="#404040" font-family="Microsoft YaHei,Microsoft YaHei_MSFontService,sans-serif" font-weight="400" font-size="46" transform="matrix(1 0 0 1 2788.87 1289)">2</text><text fill="#404040" font-family="Microsoft YaHei,Microsoft YaHei_MSFontService,sans-serif" font-weight="400" font-size="46" transform="matrix(1 0 0 1 2815.8 1289)">] </text><text fill="#404040" font-family="Microsoft YaHei,Microsoft YaHei_MSFontService,sans-serif" font-weight="400" font-size="46" transform="matrix(1 0 0 1 2845.02 1289)">2B</text><path d="M2590.5 1450.5C2590.5 1436.14 2602.14 1424.5 2616.5 1424.5L2954.5 1424.5C2968.86 1424.5 2980.5 1436.14 2980.5 1450.5L2980.5 1554.5C2980.5 1568.86 2968.86 1580.5 2954.5 1580.5L2616.5 1580.5C2602.14 1580.5 2590.5 1568.86 2590.5 1554.5Z" stroke="#75BD42" stroke-width="4.58333" stroke-miterlimit="8" fill="none" fill-rule="evenodd"/><text fill="#404040" font-family="Microsoft YaHei,Microsoft YaHei_MSFontService,sans-serif" font-weight="400" font-size="46" transform="matrix(1 0 0 1 2673.5 1519)">0x64 0x00</text><path d="M2981.5 1116.5C2981.5 1107.66 2988.66 1100.5 2997.5 1100.5L3355.5 1100.5C3364.34 1100.5 3371.5 1107.66 3371.5 1116.5L3371.5 1116.5C3371.5 1125.34 3364.34 1132.5 3355.5 1132.5L2997.5 1132.5C2988.66 1132.5 2981.5 1125.34 2981.5 1116.5Z" stroke="#75BD42" stroke-width="4.58333" stroke-miterlimit="8" fill="#75BD42" fill-rule="evenodd"/><path d="M2981.5 1164.83C2981.5 1148.08 2995.08 1134.5 3011.83 1134.5L3341.17 1134.5C3357.92 1134.5 3371.5 1148.08 3371.5 1164.83L3371.5 1286.17C3371.5 1302.92 3357.92 1316.5 3341.17 1316.5L3011.83 1316.5C2995.08 1316.5 2981.5 1302.92 2981.5 1286.17Z" stroke="#75BD42" stroke-width="4.58333" stroke-miterlimit="8" fill="#C8E5B3" fill-rule="evenodd"/><text fill="#404040" font-family="Microsoft YaHei,Microsoft YaHei_MSFontService,sans-serif" font-weight="700" font-size="55" transform="matrix(1 0 0 1 3103.59 1202)">decel</text><text fill="#404040" font-family="Microsoft YaHei,Microsoft YaHei_MSFontService,sans-serif" font-weight="400" font-size="46" transform="matrix(1 0 0 1 3062.34 1289)">[</text><text fill="#404040" font-family="Microsoft YaHei,Microsoft YaHei_MSFontService,sans-serif" font-weight="400" font-size="46" transform="matrix(1 0 0 1 3077.8 1289)">1</text><text fill="#404040" font-family="Microsoft YaHei,Microsoft YaHei_MSFontService,sans-serif" font-weight="400" font-size="46" transform="matrix(1 0 0 1 3104.73 1289)">3</text><text fill="#404040" font-family="Microsoft YaHei,Microsoft YaHei_MSFontService,sans-serif" font-weight="400" font-size="46" transform="matrix(1 0 0 1 3131.66 1289)">-</text><text fill="#404040" font-family="Microsoft YaHei,Microsoft YaHei_MSFontService,sans-serif" font-weight="400" font-size="46" transform="matrix(1 0 0 1 3151.71 1289)">1</text><text fill="#404040" font-family="Microsoft YaHei,Microsoft YaHei_MSFontService,sans-serif" font-weight="400" font-size="46" transform="matrix(1 0 0 1 3178.64 1289)">4</text><text fill="#404040" font-family="Microsoft YaHei,Microsoft YaHei_MSFontService,sans-serif" font-weight="400" font-size="46" transform="matrix(1 0 0 1 3205.56 1289)">] </text><text fill="#404040" font-family="Microsoft YaHei,Microsoft YaHei_MSFontService,sans-serif" font-weight="400" font-size="46" transform="matrix(1 0 0 1 3234.78 1289)">2B</text><path d="M2980.5 1450.5C2980.5 1436.14 2992.14 1424.5 3006.5 1424.5L3343.5 1424.5C3357.86 1424.5 3369.5 1436.14 3369.5 1450.5L3369.5 1554.5C3369.5 1568.86 3357.86 1580.5 3343.5 1580.5L3006.5 1580.5C2992.14 1580.5 2980.5 1568.86 2980.5 1554.5Z" stroke="#75BD42" stroke-width="4.58333" stroke-miterlimit="8" fill="none" fill-rule="evenodd"/><text fill="#404040" font-family="Microsoft YaHei,Microsoft YaHei_MSFontService,sans-serif" font-weight="400" font-size="46" transform="matrix(1 0 0 1 3063.26 1519)">0x64 0x00</text><path d="M2202.5 1116C2202.5 1106.89 2209.89 1099.5 2219 1099.5L2576 1099.5C2585.11 1099.5 2592.5 1106.89 2592.5 1116L2592.5 1116C2592.5 1125.11 2585.11 1132.5 2576 1132.5L2219 1132.5C2209.89 1132.5 2202.5 1125.11 2202.5 1116Z" stroke="#75BD42" stroke-width="4.58333" stroke-miterlimit="8" fill="#75BD42" fill-rule="evenodd"/><path d="M2202.5 1163.83C2202.5 1147.08 2216.08 1133.5 2232.83 1133.5L2562.17 1133.5C2578.92 1133.5 2592.5 1147.08 2592.5 1163.83L2592.5 1285.17C2592.5 1301.92 2578.92 1315.5 2562.17 1315.5L2232.83 1315.5C2216.08 1315.5 2202.5 1301.92 2202.5 1285.17Z" stroke="#75BD42" stroke-width="4.58333" stroke-miterlimit="8" fill="#C8E5B3" fill-rule="evenodd"/><text fill="#404040" font-family="Microsoft YaHei,Microsoft YaHei_MSFontService,sans-serif" font-weight="700" font-size="55" transform="matrix(1 0 0 1 2314.6 1201)">speed</text><text fill="#404040" font-family="Microsoft YaHei,Microsoft YaHei_MSFontService,sans-serif" font-weight="400" font-size="46" transform="matrix(1 0 0 1 2296.27 1288)">[</text><text fill="#404040" font-family="Microsoft YaHei,Microsoft YaHei_MSFontService,sans-serif" font-weight="400" font-size="46" transform="matrix(1 0 0 1 2311.74 1288)">9</text><text fill="#404040" font-family="Microsoft YaHei,Microsoft YaHei_MSFontService,sans-serif" font-weight="400" font-size="46" transform="matrix(1 0 0 1 2338.67 1288)">-</text><text fill="#404040" font-family="Microsoft YaHei,Microsoft YaHei_MSFontService,sans-serif" font-weight="400" font-size="46" transform="matrix(1 0 0 1 2358.72 1288)">10</text><text fill="#404040" font-family="Microsoft YaHei,Microsoft YaHei_MSFontService,sans-serif" font-weight="400" font-size="46" transform="matrix(1 0 0 1 2412.57 1288)">] </text><text fill="#404040" font-family="Microsoft YaHei,Microsoft YaHei_MSFontService,sans-serif" font-weight="400" font-size="46" transform="matrix(1 0 0 1 2441.79 1288)">2B</text><path d="M2200.5 1451.5C2200.5 1437.14 2212.14 1425.5 2226.5 1425.5L2564.5 1425.5C2578.86 1425.5 2590.5 1437.14 2590.5 1451.5L2590.5 1555.5C2590.5 1569.86 2578.86 1581.5 2564.5 1581.5L2226.5 1581.5C2212.14 1581.5 2200.5 1569.86 2200.5 1555.5Z" stroke="#75BD42" stroke-width="4.58333" stroke-miterlimit="8" fill="none" fill-rule="evenodd"/><text fill="#404040" font-family="Microsoft YaHei,Microsoft YaHei_MSFontService,sans-serif" font-weight="400" font-size="46" transform="matrix(1 0 0 1 2282.59 1520)">0xd0 0x07</text></g></svg>