<svg width="2783" height="593" xmlns="http://www.w3.org/2000/svg" xmlns:xlink="http://www.w3.org/1999/xlink" xml:space="preserve" overflow="hidden"><g transform="translate(-367 -1684)"><path d="M395.5 1808C395.5 1798.89 402.887 1791.5 412 1791.5L769 1791.5C778.113 1791.5 785.5 1798.89 785.5 1808L785.5 1808C785.5 1817.11 778.113 1824.5 769 1824.5L412 1824.5C402.887 1824.5 395.5 1817.11 395.5 1808Z" stroke="#249087" stroke-width="4.58333" stroke-miterlimit="8" fill="#249087" fill-rule="evenodd"/><path d="M395.5 1855.83C395.5 1839.08 409.081 1825.5 425.834 1825.5L755.166 1825.5C771.919 1825.5 785.5 1839.08 785.5 1855.83L785.5 1977.17C785.5 1993.92 771.919 2007.5 755.166 2007.5L425.834 2007.5C409.081 2007.5 395.5 1993.92 395.5 1977.17Z" stroke="#249087" stroke-width="4.58333" stroke-miterlimit="8" fill="#A9E9E4" fill-rule="evenodd"/><text fill="#404040" font-family="Microsoft YaHei,Microsoft YaHei_MSFontService,sans-serif" font-weight="700" font-size="55" transform="matrix(1 0 0 1 494.073 1893)">header</text><text fill="#404040" font-family="Microsoft YaHei,Microsoft YaHei_MSFontService,sans-serif" font-weight="400" font-size="46" transform="matrix(1 0 0 1 502.667 1980)">[0</text><text fill="#404040" font-family="Microsoft YaHei,Microsoft YaHei_MSFontService,sans-serif" font-weight="400" font-size="46" transform="matrix(1 0 0 1 545.063 1980)">-</text><text fill="#404040" font-family="Microsoft YaHei,Microsoft YaHei_MSFontService,sans-serif" font-weight="400" font-size="46" transform="matrix(1 0 0 1 565.115 1980)">1</text><text fill="#404040" font-family="Microsoft YaHei,Microsoft YaHei_MSFontService,sans-serif" font-weight="400" font-size="46" transform="matrix(1 0 0 1 592.042 1980)">]</text><text fill="#404040" font-family="Microsoft YaHei,Microsoft YaHei_MSFontService,sans-serif" font-weight="400" font-size="46" transform="matrix(1 0 0 1 621.261 1980)">2B</text><path d="M786.5 1808C786.5 1798.89 793.887 1791.5 803 1791.5L1069 1791.5C1078.11 1791.5 1085.5 1798.89 1085.5 1808L1085.5 1808C1085.5 1817.11 1078.11 1824.5 1069 1824.5L803 1824.5C793.887 1824.5 786.5 1817.11 786.5 1808Z" stroke="#249087" stroke-width="4.58333" stroke-miterlimit="8" fill="#249087" fill-rule="evenodd"/><path d="M786.5 1855.83C786.5 1839.08 800.081 1825.5 816.834 1825.5L1055.17 1825.5C1071.92 1825.5 1085.5 1839.08 1085.5 1855.83L1085.5 1977.17C1085.5 1993.92 1071.92 2007.5 1055.17 2007.5L816.834 2007.5C800.081 2007.5 786.5 1993.92 786.5 1977.17Z" stroke="#249087" stroke-width="4.58333" stroke-miterlimit="8" fill="#A9E9E4" fill-rule="evenodd"/><text fill="#404040" font-family="Microsoft YaHei,Microsoft YaHei_MSFontService,sans-serif" font-weight="700" font-size="55" transform="matrix(1 0 0 1 837.336 1893)">cmd_id</text><text fill="#404040" font-family="Microsoft YaHei,Microsoft YaHei_MSFontService,sans-serif" font-weight="400" font-size="46" transform="matrix(1 0 0 1 871.986 1980)">[2</text><text fill="#404040" font-family="Microsoft YaHei,Microsoft YaHei_MSFontService,sans-serif" font-weight="400" font-size="46" transform="matrix(1 0 0 1 914.382 1980)">]</text><text fill="#404040" font-family="Microsoft YaHei,Microsoft YaHei_MSFontService,sans-serif" font-weight="400" font-size="46" transform="matrix(1 0 0 1 943.6 1980)">1B</text><path d="M1085.5 1808C1085.5 1798.89 1092.89 1791.5 1102 1791.5L1368 1791.5C1377.11 1791.5 1384.5 1798.89 1384.5 1808L1384.5 1808C1384.5 1817.11 1377.11 1824.5 1368 1824.5L1102 1824.5C1092.89 1824.5 1085.5 1817.11 1085.5 1808Z" stroke="#249087" stroke-width="4.58333" stroke-miterlimit="8" fill="#249087" fill-rule="evenodd"/><path d="M1085.5 1855.83C1085.5 1839.08 1099.08 1825.5 1115.83 1825.5L1354.17 1825.5C1370.92 1825.5 1384.5 1839.08 1384.5 1855.83L1384.5 1977.17C1384.5 1993.92 1370.92 2007.5 1354.17 2007.5L1115.83 2007.5C1099.08 2007.5 1085.5 1993.92 1085.5 1977.17Z" stroke="#249087" stroke-width="4.58333" stroke-miterlimit="8" fill="#A9E9E4" fill-rule="evenodd"/><text fill="#404040" font-family="Microsoft YaHei,Microsoft YaHei_MSFontService,sans-serif" font-weight="700" font-size="55" transform="matrix(1 0 0 1 1145.03 1893)">length</text><text fill="#404040" font-family="Microsoft YaHei,Microsoft YaHei_MSFontService,sans-serif" font-weight="400" font-size="46" transform="matrix(1 0 0 1 1170.82 1980)">[3</text><text fill="#404040" font-family="Microsoft YaHei,Microsoft YaHei_MSFontService,sans-serif" font-weight="400" font-size="46" transform="matrix(1 0 0 1 1213.21 1980)">]</text><text fill="#404040" font-family="Microsoft YaHei,Microsoft YaHei_MSFontService,sans-serif" font-weight="400" font-size="46" transform="matrix(1 0 0 1 1242.43 1980)">1B</text><text fill="#404040" font-family="Microsoft YaHei,Microsoft YaHei_MSFontService,sans-serif" font-weight="400" font-size="50" transform="matrix(1 0 0 1 400.12 1758)">Response</text><path d="M393.5 2145.33C393.5 2131.07 405.066 2119.5 419.334 2119.5L756.666 2119.5C770.934 2119.5 782.5 2131.07 782.5 2145.33L782.5 2248.67C782.5 2262.93 770.934 2274.5 756.666 2274.5L419.334 2274.5C405.066 2274.5 393.5 2262.93 393.5 2248.67Z" stroke="#249087" stroke-width="4.58333" stroke-miterlimit="8" fill="none" fill-rule="evenodd"/><text fill="#404040" font-family="Microsoft YaHei,Microsoft YaHei_MSFontService,sans-serif" font-weight="400" font-size="46" transform="matrix(1 0 0 1 478.286 2213)">0x</text><text fill="#404040" font-family="Microsoft YaHei,Microsoft YaHei_MSFontService,sans-serif" font-weight="400" font-size="46" transform="matrix(1 0 0 1 528.702 2213)">05</text><text fill="#404040" font-family="Microsoft YaHei,Microsoft YaHei_MSFontService,sans-serif" font-weight="400" font-size="46" transform="matrix(1 0 0 1 596.306 2213)">0x</text><text fill="#404040" font-family="Microsoft YaHei,Microsoft YaHei_MSFontService,sans-serif" font-weight="400" font-size="46" transform="matrix(1 0 0 1 646.723 2213)">1c</text><path d="M784.5 2145.33C784.5 2131.07 796.066 2119.5 810.334 2119.5L1057.67 2119.5C1071.93 2119.5 1083.5 2131.07 1083.5 2145.33L1083.5 2248.67C1083.5 2262.93 1071.93 2274.5 1057.67 2274.5L810.334 2274.5C796.066 2274.5 784.5 2262.93 784.5 2248.67Z" stroke="#249087" stroke-width="4.58333" stroke-miterlimit="8" fill="none" fill-rule="evenodd"/><text fill="#404040" font-family="Microsoft YaHei,Microsoft YaHei_MSFontService,sans-serif" font-weight="400" font-size="46" transform="matrix(1 0 0 1 881.132 2213)">0x0</text><text fill="#404040" font-family="Microsoft YaHei,Microsoft YaHei_MSFontService,sans-serif" font-weight="400" font-size="46" transform="matrix(1 0 0 1 958.475 2213)">1</text><path d="M1083.5 2145.33C1083.5 2131.07 1095.07 2119.5 1109.33 2119.5L1355.67 2119.5C1369.93 2119.5 1381.5 2131.07 1381.5 2145.33L1381.5 2248.67C1381.5 2262.93 1369.93 2274.5 1355.67 2274.5L1109.33 2274.5C1095.07 2274.5 1083.5 2262.93 1083.5 2248.67Z" stroke="#249087" stroke-width="4.58333" stroke-miterlimit="8" fill="none" fill-rule="evenodd"/><text fill="#404040" font-family="Microsoft YaHei,Microsoft YaHei_MSFontService,sans-serif" font-weight="400" font-size="46" transform="matrix(1 0 0 1 1179.95 2213)">0x</text><text fill="#404040" font-family="Microsoft YaHei,Microsoft YaHei_MSFontService,sans-serif" font-weight="400" font-size="46" transform="matrix(1 0 0 1 1230.37 2213)">0</text><text fill="#404040" font-family="Microsoft YaHei,Microsoft YaHei_MSFontService,sans-serif" font-weight="400" font-size="46" transform="matrix(1 0 0 1 1257.29 2213)">1</text><text fill="#404040" font-family="Microsoft YaHei,Microsoft YaHei_MSFontService,sans-serif" font-weight="400" font-size="50" transform="matrix(1 0 0 1 397.796 2083)">Example Values</text><path d="M1385.5 1808C1385.5 1798.89 1392.89 1791.5 1402 1791.5L1668 1791.5C1677.11 1791.5 1684.5 1798.89 1684.5 1808L1684.5 1808C1684.5 1817.11 1677.11 1824.5 1668 1824.5L1402 1824.5C1392.89 1824.5 1385.5 1817.11 1385.5 1808Z" stroke="#75BD42" stroke-width="4.58333" stroke-miterlimit="8" fill="#75BD42" fill-rule="evenodd"/><path d="M1385.5 1855.83C1385.5 1839.08 1399.08 1825.5 1415.83 1825.5L1654.17 1825.5C1670.92 1825.5 1684.5 1839.08 1684.5 1855.83L1684.5 1977.17C1684.5 1993.92 1670.92 2007.5 1654.17 2007.5L1415.83 2007.5C1399.08 2007.5 1385.5 1993.92 1385.5 1977.17Z" stroke="#75BD42" stroke-width="4.58333" stroke-miterlimit="8" fill="#C8E5B3" fill-rule="evenodd"/><text fill="#404040" font-family="Microsoft YaHei,Microsoft YaHei_MSFontService,sans-serif" font-weight="700" font-size="55" transform="matrix(1 0 0 1 1420.17 1893)">s</text><text fill="#404040" font-family="Microsoft YaHei,Microsoft YaHei_MSFontService,sans-serif" font-weight="700" font-size="55" transform="matrix(1 0 0 1 1447.1 1893)">ervo_id</text><text fill="#404040" font-family="Microsoft YaHei,Microsoft YaHei_MSFontService,sans-serif" font-weight="400" font-size="46" transform="matrix(1 0 0 1 1471.18 1980)">[</text><text fill="#404040" font-family="Microsoft YaHei,Microsoft YaHei_MSFontService,sans-serif" font-weight="400" font-size="46" transform="matrix(1 0 0 1 1486.65 1980)">4</text><text fill="#404040" font-family="Microsoft YaHei,Microsoft YaHei_MSFontService,sans-serif" font-weight="400" font-size="46" transform="matrix(1 0 0 1 1513.58 1980)">]</text><text fill="#404040" font-family="Microsoft YaHei,Microsoft YaHei_MSFontService,sans-serif" font-weight="400" font-size="46" transform="matrix(1 0 0 1 1542.8 1980)">1</text><text fill="#404040" font-family="Microsoft YaHei,Microsoft YaHei_MSFontService,sans-serif" font-weight="400" font-size="46" transform="matrix(1 0 0 1 1569.73 1980)">B</text><path d="M1383.5 2145.33C1383.5 2131.07 1395.07 2119.5 1409.33 2119.5L1656.67 2119.5C1670.93 2119.5 1682.5 2131.07 1682.5 2145.33L1682.5 2248.67C1682.5 2262.93 1670.93 2274.5 1656.67 2274.5L1409.33 2274.5C1395.07 2274.5 1383.5 2262.93 1383.5 2248.67Z" stroke="#75BD42" stroke-width="4.58333" stroke-miterlimit="8" fill="none" fill-rule="evenodd"/><text fill="#404040" font-family="Microsoft YaHei,Microsoft YaHei_MSFontService,sans-serif" font-weight="400" font-size="46" transform="matrix(1 0 0 1 1480.32 2213)">0x0</text><text fill="#404040" font-family="Microsoft YaHei,Microsoft YaHei_MSFontService,sans-serif" font-weight="400" font-size="46" transform="matrix(1 0 0 1 1557.66 2213)">0</text><path d="M1686.5 1808C1686.5 1798.89 1693.89 1791.5 1703 1791.5L1969 1791.5C1978.11 1791.5 1985.5 1798.89 1985.5 1808L1985.5 1808C1985.5 1817.11 1978.11 1824.5 1969 1824.5L1703 1824.5C1693.89 1824.5 1686.5 1817.11 1686.5 1808Z" stroke="#8843AB" stroke-width="4.58333" stroke-miterlimit="8" fill="#8843AB" fill-rule="evenodd"/><path d="M1686.5 1855.83C1686.5 1839.08 1700.08 1825.5 1716.83 1825.5L1955.17 1825.5C1971.92 1825.5 1985.5 1839.08 1985.5 1855.83L1985.5 1977.17C1985.5 1993.92 1971.92 2007.5 1955.17 2007.5L1716.83 2007.5C1700.08 2007.5 1686.5 1993.92 1686.5 1977.17Z" stroke="#8843AB" stroke-width="4.58333" stroke-miterlimit="8" fill="#CCCCFF" fill-rule="evenodd"/><text fill="#404040" font-family="Microsoft YaHei,Microsoft YaHei_MSFontService,sans-serif" font-weight="700" font-size="55" transform="matrix(1 0 0 1 1698.22 1893)">checksum</text><text fill="#404040" font-family="Microsoft YaHei,Microsoft YaHei_MSFontService,sans-serif" font-weight="400" font-size="46" transform="matrix(1 0 0 1 1771.55 1980)">[</text><text fill="#404040" font-family="Microsoft YaHei,Microsoft YaHei_MSFontService,sans-serif" font-weight="400" font-size="46" transform="matrix(1 0 0 1 1787.02 1980)">5</text><text fill="#404040" font-family="Microsoft YaHei,Microsoft YaHei_MSFontService,sans-serif" font-weight="400" font-size="46" transform="matrix(1 0 0 1 1813.95 1980)">]</text><text fill="#404040" font-family="Microsoft YaHei,Microsoft YaHei_MSFontService,sans-serif" font-weight="400" font-size="46" transform="matrix(1 0 0 1 1843.17 1980)">1B</text><path d="M1683.5 2145.33C1683.5 2131.07 1695.07 2119.5 1709.33 2119.5L1956.67 2119.5C1970.93 2119.5 1982.5 2131.07 1982.5 2145.33L1982.5 2248.67C1982.5 2262.93 1970.93 2274.5 1956.67 2274.5L1709.33 2274.5C1695.07 2274.5 1683.5 2262.93 1683.5 2248.67Z" stroke="#8843AB" stroke-width="4.58333" stroke-miterlimit="8" fill="none" fill-rule="evenodd"/><text fill="#404040" font-family="Microsoft YaHei,Microsoft YaHei_MSFontService,sans-serif" font-weight="400" font-size="46" transform="matrix(1 0 0 1 1780.69 2213)">0x</text><text fill="#404040" font-family="Microsoft YaHei,Microsoft YaHei_MSFontService,sans-serif" font-weight="400" font-size="46" transform="matrix(1 0 0 1 1831.1 2213)">23</text></g></svg>